  0
SECTION
  2
HEADER
  9
$ACADVER
  1
AC1024
  9
$ACADMAINTVER
 70
6
  9
$DWGCODEPAGE
  3
ANSI_1252
  9
$LASTSAVEDBY
  1
ezdxf
  9
$INSBASE
 10
0.0
 20
0.0
 30
0.0
  9
$EXTMIN
 10
1e+20
 20
1e+20
 30
1e+20
  9
$EXTMAX
 10
-1e+20
 20
-1e+20
 30
-1e+20
  9
$LIMMIN
 10
0.0
 20
0.0
  9
$LIMMAX
 10
420.0
 20
297.0
  9
$ORTHOMODE
 70
0
  9
$REGENMODE
 70
1
  9
$FILLMODE
 70
1
  9
$QTEXTMODE
 70
0
  9
$MIRRTEXT
 70
1
  9
$LTSCALE
 40
1.0
  9
$ATTMODE
 70
1
  9
$TEXTSIZE
 40
2.5
  9
$TRACEWID
 40
1.0
  9
$TEXTSTYLE
  7
OpenSans
  9
$CLAYER
  8
0
  9
$CELTYPE
  6
ByLayer
  9
$CECOLOR
 62
256
  9
$CELTSCALE
 40
1.0
  9
$DISPSILH
 70
0
  9
$DIMSCALE
 40
1.0
  9
$DIMASZ
 40
0.175
  9
$DIMEXO
 40
0.125
  9
$DIMDLI
 40
3.75
  9
$DIMRND
 40
0.0
  9
$DIMDLE
 40
0.0
  9
$DIMEXE
 40
0.375
  9
$DIMTP
 40
0.0
  9
$DIMTM
 40
0.0
  9
$DIMTXT
 40
0.25
  9
$DIMCEN
 40
2.5
  9
$DIMTSZ
 40
0.0
  9
$DIMTOL
 70
0
  9
$DIMLIM
 70
0
  9
$DIMTIH
 70
0
  9
$DIMTOH
 70
0
  9
$DIMSE1
 70
0
  9
$DIMSE2
 70
0
  9
$DIMTAD
 70
1
  9
$DIMZIN
 70
12
  9
$DIMBLK
  1
ARCHTICK
  9
$DIMASO
 70
1
  9
$DIMSHO
 70
1
  9
$DIMPOST
  1

  9
$DIMAPOST
  1

  9
$DIMALT
 70
0
  9
$DIMALTD
 70
3
  9
$DIMALTF
 40
0.03937007874
  9
$DIMLFAC
 40
100.0
  9
$DIMTOFL
 70
1
  9
$DIMTVP
 40
0.0
  9
$DIMTIX
 70
0
  9
$DIMSOXD
 70
0
  9
$DIMSAH
 70
0
  9
$DIMBLK1
  1

  9
$DIMBLK2
  1

  9
$DIMSTYLE
  2
EZDXF
  9
$DIMCLRD
 70
0
  9
$DIMCLRE
 70
0
  9
$DIMCLRT
 70
0
  9
$DIMTFAC
 40
0.5
  9
$DIMGAP
 40
0.1
  9
$DIMJUST
 70
0
  9
$DIMSD1
 70
0
  9
$DIMSD2
 70
0
  9
$DIMTOLJ
 70
0
  9
$DIMTZIN
 70
8
  9
$DIMALTZ
 70
0
  9
$DIMALTTZ
 70
0
  9
$DIMUPT
 70
1
  9
$DIMDEC
 70
2
  9
$DIMTDEC
 70
2
  9
$DIMALTU
 70
2
  9
$DIMALTTD
 70
3
  9
$DIMTXSTY
  7
OpenSansCondensed-Light
  9
$DIMAUNIT
 70
0
  9
$DIMADEC
 70
2
  9
$DIMALTRND
 40
0.0
  9
$DIMAZIN
 70
3
  9
$DIMDSEP
 70
46
  9
$DIMATFIT
 70
3
  9
$DIMFRAC
 70
0
  9
$DIMLDRBLK
  1

  9
$DIMLUNIT
 70
2
  9
$DIMLWD
 70
-2
  9
$DIMLWE
 70
-2
  9
$DIMTMOVE
 70
2
  9
$DIMFXL
 40
1.0
  9
$DIMFXLON
 70
0
  9
$DIMJOGANG
 40
0.785398163397
  9
$DIMTFILL
 70
0
  9
$DIMTFILLCLR
 70
0
  9
$DIMARCSYM
 70
0
  9
$DIMLTYPE
  6

  9
$DIMLTEX1
  6

  9
$DIMLTEX2
  6

  9
$DIMTXTDIRECTION
 70
0
  9
$LUNITS
 70
2
  9
$LUPREC
 70
4
  9
$SKETCHINC
 40
1.0
  9
$FILLETRAD
 40
10.0
  9
$AUNITS
 70
0
  9
$AUPREC
 70
2
  9
$MENU
  1
.
  9
$ELEVATION
 40
0.0
  9
$PELEVATION
 40
0.0
  9
$THICKNESS
 40
0.0
  9
$LIMCHECK
 70
0
  9
$CHAMFERA
 40
0.0
  9
$CHAMFERB
 40
0.0
  9
$CHAMFERC
 40
0.0
  9
$CHAMFERD
 40
0.0
  9
$SKPOLY
 70
0
  9
$TDCREATE
 40
2461286.888298611
  9
$TDUCREATE
 40
2458532.153996898
  9
$TDUPDATE
 40
2461286.888298611
  9
$TDUUPDATE
 40
2458532.1544311
  9
$TDINDWG
 40
0.0
  9
$TDUSRTIMER
 40
0.0
  9
$USRTIMER
 70
1
  9
$ANGBASE
 50
0.0
  9
$ANGDIR
 70
0
  9
$PDMODE
 70
0
  9
$PDSIZE
 40
0.0
  9
$PLINEWID
 40
0.0
  9
$SPLFRAME
 70
0
  9
$SPLINETYPE
 70
6
  9
$SPLINESEGS
 70
8
  9
$HANDSEED
  5
22E
  9
$SURFTAB1
 70
6
  9
$SURFTAB2
 70
6
  9
$SURFTYPE
 70
6
  9
$SURFU
 70
6
  9
$SURFV
 70
6
  9
$UCSBASE
  2

  9
$UCSNAME
  2

  9
$UCSORG
 10
0.0
 20
0.0
 30
0.0
  9
$UCSXDIR
 10
1.0
 20
0.0
 30
0.0
  9
$UCSYDIR
 10
0.0
 20
1.0
 30
0.0
  9
$UCSORTHOREF
  2

  9
$UCSORTHOVIEW
 70
0
  9
$UCSORGTOP
 10
0.0
 20
0.0
 30
0.0
  9
$UCSORGBOTTOM
 10
0.0
 20
0.0
 30
0.0
  9
$UCSORGLEFT
 10
0.0
 20
0.0
 30
0.0
  9
$UCSORGRIGHT
 10
0.0
 20
0.0
 30
0.0
  9
$UCSORGFRONT
 10
0.0
 20
0.0
 30
0.0
  9
$UCSORGBACK
 10
0.0
 20
0.0
 30
0.0
  9
$PUCSBASE
  2

  9
$PUCSNAME
  2

  9
$PUCSORG
 10
0.0
 20
0.0
 30
0.0
  9
$PUCSXDIR
 10
1.0
 20
0.0
 30
0.0
  9
$PUCSYDIR
 10
0.0
 20
1.0
 30
0.0
  9
$PUCSORTHOREF
  2

  9
$PUCSORTHOVIEW
 70
0
  9
$PUCSORGTOP
 10
0.0
 20
0.0
 30
0.0
  9
$PUCSORGBOTTOM
 10
0.0
 20
0.0
 30
0.0
  9
$PUCSORGLEFT
 10
0.0
 20
0.0
 30
0.0
  9
$PUCSORGRIGHT
 10
0.0
 20
0.0
 30
0.0
  9
$PUCSORGFRONT
 10
0.0
 20
0.0
 30
0.0
  9
$PUCSORGBACK
 10
0.0
 20
0.0
 30
0.0
  9
$USERI1
 70
0
  9
$USERI2
 70
0
  9
$USERI3
 70
0
  9
$USERI4
 70
0
  9
$USERI5
 70
0
  9
$USERR1
 40
0.0
  9
$USERR2
 40
0.0
  9
$USERR3
 40
0.0
  9
$USERR4
 40
0.0
  9
$USERR5
 40
0.0
  9
$WORLDVIEW
 70
1
  9
$SHADEDGE
 70
3
  9
$SHADEDIF
 70
70
  9
$TILEMODE
 70
1
  9
$MAXACTVP
 70
64
  9
$PINSBASE
 10
0.0
 20
0.0
 30
0.0
  9
$PLIMCHECK
 70
0
  9
$PEXTMIN
 10
1e+20
 20
1e+20
 30
1e+20
  9
$PEXTMAX
 10
-1e+20
 20
-1e+20
 30
-1e+20
  9
$PLIMMIN
 10
0.0
 20
0.0
  9
$PLIMMAX
 10
420.0
 20
297.0
  9
$UNITMODE
 70
0
  9
$VISRETAIN
 70
1
  9
$PLINEGEN
 70
0
  9
$PSLTSCALE
 70
1
  9
$TREEDEPTH
 70
3020
  9
$CMLSTYLE
  2
Standard
  9
$CMLJUST
 70
0
  9
$CMLSCALE
 40
20.0
  9
$PROXYGRAPHICS
 70
1
  9
$MEASUREMENT
 70
1
  9
$CELWEIGHT
370
-1
  9
$ENDCAPS
280
0
  9
$JOINSTYLE
280
0
  9
$LWDISPLAY
290
0
  9
$INSUNITS
 70
4
  9
$HYPERLINKBASE
  1

  9
$STYLESHEET
  1

  9
$XEDIT
290
1
  9
$CEPSNTYPE
380
0
  9
$PSTYLEMODE
290
1
  9
$FINGERPRINTGUID
  2
{6CC12B55-171F-49D2-805B-6BB10466F6E9}
  9
$VERSIONGUID
  2
{89A5E96C-539F-493A-93E0-59709DE50763}
  9
$EXTNAMES
290
1
  9
$PSVPSCALE
 40
0.0
  9
$OLESTARTUP
290
0
  9
$SORTENTS
280
127
  9
$INDEXCTL
280
0
  9
$HIDETEXT
280
1
  9
$XCLIPFRAME
280
1
  9
$HALOGAP
280
0
  9
$OBSCOLOR
 70
257
  9
$OBSLTYPE
280
0
  9
$INTERSECTIONDISPLAY
280
0
  9
$INTERSECTIONCOLOR
 70
257
  9
$DIMASSOC
280
2
  9
$PROJECTNAME
  1

  9
$CAMERADISPLAY
290
0
  9
$LENSLENGTH
 40
50.0
  9
$CAMERAHEIGHT
 40
0.0
  9
$STEPSPERSEC
 40
24.0
  9
$STEPSIZE
 40
100.0
  9
$3DDWFPREC
 40
2.0
  9
$PSOLWIDTH
 40
0.005
  9
$PSOLHEIGHT
 40
0.08
  9
$LOFTANG1
 40
1.570796326795
  9
$LOFTANG2
 40
1.570796326795
  9
$LOFTMAG1
 40
0.0
  9
$LOFTMAG2
 40
0.0
  9
$LOFTPARAM
 70
7
  9
$LOFTNORMALS
280
1
  9
$LATITUDE
 40
37.795
  9
$LONGITUDE
 40
-122.394
  9
$NORTHDIRECTION
 40
0.0
  9
$TIMEZONE
 70
-8000
  9
$LIGHTGLYPHDISPLAY
280
1
  9
$TILEMODELIGHTSYNCH
280
1
  9
$CMATERIAL
347
20
  9
$SOLIDHIST
280
0
  9
$SHOWHIST
280
1
  9
$DWFFRAME
280
2
  9
$DGNFRAME
280
2
  9
$REALWORLDSCALE
290
1
  9
$INTERFERECOLOR
 62
256
  9
$CSHADOW
280
0
  9
$SHADOWPLANELOCATION
 40
0.0
  0
ENDSEC
  0
SECTION
  2
CLASSES
  0
CLASS
  1
ACDBDICTIONARYWDFLT
  2
AcDbDictionaryWithDefault
  3
ObjectDBX Classes
 90
0
 91
0
280
0
281
0
  0
CLASS
  1
SUN
  2
AcDbSun
  3
SCENEOE
 90
1153
 91
0
280
0
281
0
  0
CLASS
  1
VISUALSTYLE
  2
AcDbVisualStyle
  3
ObjectDBX Classes
 90
4095
 91
0
280
0
281
0
  0
CLASS
  1
MATERIAL
  2
AcDbMaterial
  3
ObjectDBX Classes
 90
1153
 91
0
280
0
281
0
  0
CLASS
  1
SCALE
  2
AcDbScale
  3
ObjectDBX Classes
 90
1153
 91
0
280
0
281
0
  0
CLASS
  1
TABLESTYLE
  2
AcDbTableStyle
  3
ObjectDBX Classes
 90
4095
 91
0
280
0
281
0
  0
CLASS
  1
MLEADERSTYLE
  2
AcDbMLeaderStyle
  3
ACDB_MLEADERSTYLE_CLASS
 90
4095
 91
0
280
0
281
0
  0
CLASS
  1
DICTIONARYVAR
  2
AcDbDictionaryVar
  3
ObjectDBX Classes
 90
0
 91
0
280
0
281
0
  0
CLASS
  1
CELLSTYLEMAP
  2
AcDbCellStyleMap
  3
ObjectDBX Classes
 90
1152
 91
0
280
0
281
0
  0
CLASS
  1
MENTALRAYRENDERSETTINGS
  2
AcDbMentalRayRenderSettings
  3
SCENEOE
 90
1024
 91
0
280
0
281
0
  0
CLASS
  1
ACDBDETAILVIEWSTYLE
  2
AcDbDetailViewStyle
  3
ObjectDBX Classes
 90
1025
 91
0
280
0
281
0
  0
CLASS
  1
ACDBSECTIONVIEWSTYLE
  2
AcDbSectionViewStyle
  3
ObjectDBX Classes
 90
1025
 91
0
280
0
281
0
  0
CLASS
  1
RASTERVARIABLES
  2
AcDbRasterVariables
  3
ISM
 90
0
 91
0
280
0
281
0
  0
CLASS
  1
LAYOUT
  2
AcDbLayout
  3
ObjectDBX Classes
 90
0
 91
0
280
0
281
0
  0
CLASS
  1
ACDBPLACEHOLDER
  2
AcDbPlaceHolder
  3
ObjectDBX Classes
 90
0
 91
0
280
0
281
0
  0
ENDSEC
  0
SECTION
  2
TABLES
  0
TABLE
  2
VPORT
  5
8
330
0
100
AcDbSymbolTable
 70
1
  0
VPORT
  5
23
330
8
100
AcDbSymbolTableRecord
100
AcDbViewportTableRecord
  2
*Active
 70
0
 10
0.0
 20
0.0
 11
1.0
 21
1.0
 12
0.0
 22
0.0
 13
0.0
 23
0.0
 14
0.5
 24
0.5
 15
0.5
 25
0.5
 16
0.0
 26
0.0
 36
1.0
 17
0.0
 27
0.0
 37
0.0
 40
1000.0
 41
1.34
 42
50.0
 43
0.0
 44
0.0
 50
0.0
 51
0.0
 71
0
 72
1000
 73
1
 74
3
 75
0
 76
0
 77
0
 78
0
281
0
 65
0
146
0.0
  0
ENDTAB
  0
TABLE
  2
LTYPE
  5
2
330
0
100
AcDbSymbolTable
 70
21
  0
LTYPE
  5
24
330
2
100
AcDbSymbolTableRecord
100
AcDbLinetypeTableRecord
  2
ByBlock
 70
0
  3

 72
65
 73
0
 40
0.0
  0
LTYPE
  5
25
330
2
100
AcDbSymbolTableRecord
100
AcDbLinetypeTableRecord
  2
ByLayer
 70
0
  3

 72
65
 73
0
 40
0.0
  0
LTYPE
  5
26
330
2
100
AcDbSymbolTableRecord
100
AcDbLinetypeTableRecord
  2
Continuous
 70
0
  3

 72
65
 73
0
 40
0.0
  0
LTYPE
  5
2F
330
2
100
AcDbSymbolTableRecord
100
AcDbLinetypeTableRecord
  2
CENTER
 70
0
  3
Center ____ _ ____ _ ____ _ ____ _ ____ _ ____
 72
65
 73
4
 40
5.08
 49
3.175
 74
0
 49
-0.635
 74
0
 49
0.635
 74
0
 49
-0.635
 74
0
  0
LTYPE
  5
30
330
2
100
AcDbSymbolTableRecord
100
AcDbLinetypeTableRecord
  2
CENTERX2
 70
0
  3
Center (2x) ________  __  ________  __  ________
 72
65
 73
4
 40
8.89
 49
6.35
 74
0
 49
-0.635
 74
0
 49
1.27
 74
0
 49
-0.635
 74
0
  0
LTYPE
  5
31
330
2
100
AcDbSymbolTableRecord
100
AcDbLinetypeTableRecord
  2
CENTER2
 70
0
  3
Center (.5x) ____ _ ____ _ ____ _ ____ _ ____
 72
65
 73
4
 40
2.54
 49
1.587
 74
0
 49
-0.318
 74
0
 49
0.318
 74
0
 49
-0.318
 74
0
  0
LTYPE
  5
32
330
2
100
AcDbSymbolTableRecord
100
AcDbLinetypeTableRecord
  2
DASHED
 70
0
  3
Dashed __ __ __ __ __ __ __ __ __ __ __ __ __ _
 72
65
 73
2
 40
1.524
 49
1.27
 74
0
 49
-0.254
 74
0
  0
LTYPE
  5
33
330
2
100
AcDbSymbolTableRecord
100
AcDbLinetypeTableRecord
  2
DASHEDX2
 70
0
  3
Dashed (2x) ____  ____  ____  ____  ____  ____
 72
65
 73
2
 40
3.048
 49
2.54
 74
0
 49
-0.508
 74
0
  0
LTYPE
  5
34
330
2
100
AcDbSymbolTableRecord
100
AcDbLinetypeTableRecord
  2
DASHED2
 70
0
  3
Dashed (.5x) _ _ _ _ _ _ _ _ _ _ _ _ _ _
 72
65
 73
2
 40
0.762
 49
0.635
 74
0
 49
-0.127
 74
0
  0
LTYPE
  5
35
330
2
100
AcDbSymbolTableRecord
100
AcDbLinetypeTableRecord
  2
PHANTOM
 70
0
  3
Phantom ______  __  __  ______  __  __  ______
 72
65
 73
6
 40
6.35
 49
3.175
 74
0
 49
-0.635
 74
0
 49
0.635
 74
0
 49
-0.635
 74
0
 49
0.635
 74
0
 49
-0.635
 74
0
  0
LTYPE
  5
36
330
2
100
AcDbSymbolTableRecord
100
AcDbLinetypeTableRecord
  2
PHANTOMX2
 70
0
  3
Phantom (2x)____________    ____    ____    ____________
 72
65
 73
6
 40
10.795
 49
6.35
 74
0
 49
-0.635
 74
0
 49
1.27
 74
0
 49
-0.635
 74
0
 49
1.27
 74
0
 49
-0.635
 74
0
  0
LTYPE
  5
37
330
2
100
AcDbSymbolTableRecord
100
AcDbLinetypeTableRecord
  2
PHANTOM2
 70
0
  3
Phantom (.5x) ___ _ _ ___ _ _ ___ _ _ ___ _ _ ___
 72
65
 73
6
 40
3.175
 49
1.587
 74
0
 49
-0.318
 74
0
 49
0.318
 74
0
 49
-0.318
 74
0
 49
0.318
 74
0
 49
-0.318
 74
0
  0
LTYPE
  5
38
330
2
100
AcDbSymbolTableRecord
100
AcDbLinetypeTableRecord
  2
DASHDOT
 70
0
  3
Dash dot __ . __ . __ . __ . __ . __ . __ . __
 72
65
 73
4
 40
3.556
 49
2.54
 74
0
 49
-0.508
 74
0
 49
0.0
 74
0
 49
-0.508
 74
0
  0
LTYPE
  5
39
330
2
100
AcDbSymbolTableRecord
100
AcDbLinetypeTableRecord
  2
DASHDOTX2
 70
0
  3
Dash dot (2x) ____  .  ____  .  ____  .  ____
 72
65
 73
4
 40
6.096
 49
5.08
 74
0
 49
-0.508
 74
0
 49
0.0
 74
0
 49
-0.508
 74
0
  0
LTYPE
  5
3A
330
2
100
AcDbSymbolTableRecord
100
AcDbLinetypeTableRecord
  2
DASHDOT2
 70
0
  3
Dash dot (.5x) _ . _ . _ . _ . _ . _ . _ . _
 72
65
 73
4
 40
1.778
 49
1.27
 74
0
 49
-0.254
 74
0
 49
0.0
 74
0
 49
-0.254
 74
0
  0
LTYPE
  5
3B
330
2
100
AcDbSymbolTableRecord
100
AcDbLinetypeTableRecord
  2
DOT
 70
0
  3
Dot .  .  .  .  .  .  .  .  .  .  .  .  .  .  .  .
 72
65
 73
2
 40
0.508
 49
0.0
 74
0
 49
-0.508
 74
0
  0
LTYPE
  5
3C
330
2
100
AcDbSymbolTableRecord
100
AcDbLinetypeTableRecord
  2
DOTX2
 70
0
  3
Dot (2x) .    .    .    .    .    .    .    . 
 72
65
 73
2
 40
1.016
 49
0.0
 74
0
 49
-1.016
 74
0
  0
LTYPE
  5
3D
330
2
100
AcDbSymbolTableRecord
100
AcDbLinetypeTableRecord
  2
DOT2
 70
0
  3
Dot (.5) . . . . . . . . . . . . . . . . . . . 
 72
65
 73
2
 40
0.254
 49
0.0
 74
0
 49
-0.254
 74
0
  0
LTYPE
  5
3E
330
2
100
AcDbSymbolTableRecord
100
AcDbLinetypeTableRecord
  2
DIVIDE
 70
0
  3
Divide __ . . __ . . __ . . __ . . __ . . __
 72
65
 73
6
 40
4.064
 49
2.54
 74
0
 49
-0.508
 74
0
 49
0.0
 74
0
 49
-0.508
 74
0
 49
0.0
 74
0
 49
-0.508
 74
0
  0
LTYPE
  5
3F
330
2
100
AcDbSymbolTableRecord
100
AcDbLinetypeTableRecord
  2
DIVIDEX2
 70
0
  3
Divide (2x) ____  . .  ____  . .  ____  . .  ____
 72
65
 73
6
 40
6.604
 49
5.08
 74
0
 49
-0.508
 74
0
 49
0.0
 74
0
 49
-0.508
 74
0
 49
0.0
 74
0
 49
-0.508
 74
0
  0
LTYPE
  5
40
330
2
100
AcDbSymbolTableRecord
100
AcDbLinetypeTableRecord
  2
DIVIDE2
 70
0
  3
Divide(.5x) _ . _ . _ . _ . _ . _ . _ . _
 72
65
 73
6
 40
2.032
 49
1.27
 74
0
 49
-0.254
 74
0
 49
0.0
 74
0
 49
-0.254
 74
0
 49
0.0
 74
0
 49
-0.254
 74
0
  0
ENDTAB
  0
TABLE
  2
LAYER
  5
1
330
0
100
AcDbSymbolTable
 70
15
  0
LAYER
  5
27
330
1
100
AcDbSymbolTableRecord
100
AcDbLayerTableRecord
  2
0
 70
0
 62
7
  6
Continuous
370
-3
390
13
347
21
  0
LAYER
  5
28
330
1
100
AcDbSymbolTableRecord
100
AcDbLayerTableRecord
  2
Defpoints
 70
0
 62
7
  6
Continuous
290
0
370
-3
390
13
347
21
  0
LAYER
  5
8A
330
1
100
AcDbSymbolTableRecord
100
AcDbLayerTableRecord
  2
KOTE
 70
0
 62
8
  6
Continuous
370
-3
390
13
347
21
  0
LAYER
  5
8B
330
1
100
AcDbSymbolTableRecord
100
AcDbLayerTableRecord
  2
KLUP LICE KONTURA
 70
0
 62
8
  6
Continuous
370
-3
390
13
347
21
  0
LAYER
  5
8C
330
1
100
AcDbSymbolTableRecord
100
AcDbLayerTableRecord
  2
KLUP LICE OFFSET
 70
0
 62
1
  6
Continuous
370
-3
390
13
347
21
  0
LAYER
  5
8D
330
1
100
AcDbSymbolTableRecord
100
AcDbLayerTableRecord
  2
KLUP LICE TRAKA
 70
0
 62
1
  6
Continuous
370
-3
390
13
347
21
  0
LAYER
  5
F3
330
1
100
AcDbSymbolTableRecord
100
AcDbLayerTableRecord
  2
MALA KUPA STOLA KONTURA
 70
0
 62
8
  6
Continuous
370
-3
390
13
347
21
  0
LAYER
  5
F4
330
1
100
AcDbSymbolTableRecord
100
AcDbLayerTableRecord
  2
MALA KUPA STOLA OFFSET
 70
0
 62
3
  6
Continuous
370
-3
390
13
347
21
  0
LAYER
  5
F5
330
1
100
AcDbSymbolTableRecord
100
AcDbLayerTableRecord
  2
MALA KUPA STOLA TRAKA
 70
0
 62
3
  6
Continuous
370
-3
390
13
347
21
  0
LAYER
  5
152
330
1
100
AcDbSymbolTableRecord
100
AcDbLayerTableRecord
  2
1A PROVA LIJEVA KONTURA
 70
0
 62
8
  6
Continuous
370
-3
390
13
347
21
  0
LAYER
  5
153
330
1
100
AcDbSymbolTableRecord
100
AcDbLayerTableRecord
  2
1A PROVA LIJEVA OFFSET
 70
0
 62
5
  6
Continuous
370
-3
390
13
347
21
  0
LAYER
  5
154
330
1
100
AcDbSymbolTableRecord
100
AcDbLayerTableRecord
  2
1A PROVA LIJEVA TRAKA
 70
0
 62
5
  6
Continuous
370
-3
390
13
347
21
  0
LAYER
  5
1B1
330
1
100
AcDbSymbolTableRecord
100
AcDbLayerTableRecord
  2
1F LICE KONTURA
 70
0
 62
8
  6
Continuous
370
-3
390
13
347
21
  0
LAYER
  5
1B2
330
1
100
AcDbSymbolTableRecord
100
AcDbLayerTableRecord
  2
1F LICE OFFSET
 70
0
 62
6
  6
Continuous
370
-3
390
13
347
21
  0
LAYER
  5
1B3
330
1
100
AcDbSymbolTableRecord
100
AcDbLayerTableRecord
  2
1F LICE TRAKA
 70
0
 62
6
  6
Continuous
370
-3
390
13
347
21
  0
ENDTAB
  0
TABLE
  2
STYLE
  5
5
330
0
100
AcDbSymbolTable
 70
26
  0
STYLE
  5
29
330
5
100
AcDbSymbolTableRecord
100
AcDbTextStyleTableRecord
  2
Standard
 70
0
 40
0.0
 41
1.0
 50
0.0
 71
0
 42
2.5
  3
txt
  4

  0
STYLE
  5
41
330
5
100
AcDbSymbolTableRecord
100
AcDbTextStyleTableRecord
  2
OpenSans-Light
 70
0
 40
0.0
 41
1.0
 50
0.0
 71
0
 42
2.5
  3
OpenSans-Light.ttf
  4

  0
STYLE
  5
42
330
5
100
AcDbSymbolTableRecord
100
AcDbTextStyleTableRecord
  2
OpenSans-Light-Italic
 70
0
 40
0.0
 41
1.0
 50
0.0
 71
0
 42
2.5
  3
OpenSans-LightItalic.ttf
  4

  0
STYLE
  5
43
330
5
100
AcDbSymbolTableRecord
100
AcDbTextStyleTableRecord
  2
OpenSans
 70
0
 40
0.0
 41
1.0
 50
0.0
 71
0
 42
2.5
  3
OpenSans-Regular.ttf
  4

  0
STYLE
  5
44
330
5
100
AcDbSymbolTableRecord
100
AcDbTextStyleTableRecord
  2
OpenSans-Italic
 70
0
 40
0.0
 41
1.0
 50
0.0
 71
0
 42
2.5
  3
OpenSans-Italic.ttf
  4

  0
STYLE
  5
45
330
5
100
AcDbSymbolTableRecord
100
AcDbTextStyleTableRecord
  2
OpenSans-SemiBold
 70
0
 40
0.0
 41
1.0
 50
0.0
 71
0
 42
2.5
  3
OpenSans-SemiBold.ttf
  4

  0
STYLE
  5
46
330
5
100
AcDbSymbolTableRecord
100
AcDbTextStyleTableRecord
  2
OpenSans-SemiBoldItalic
 70
0
 40
0.0
 41
1.0
 50
0.0
 71
0
 42
2.5
  3
OpenSans-SemiBoldItalic.ttf
  4

  0
STYLE
  5
47
330
5
100
AcDbSymbolTableRecord
100
AcDbTextStyleTableRecord
  2
OpenSans-Bold
 70
0
 40
0.0
 41
1.0
 50
0.0
 71
0
 42
2.5
  3
OpenSans-Bold.ttf
  4

  0
STYLE
  5
48
330
5
100
AcDbSymbolTableRecord
100
AcDbTextStyleTableRecord
  2
OpenSans-BoldItalic
 70
0
 40
0.0
 41
1.0
 50
0.0
 71
0
 42
2.5
  3
OpenSans-BoldItalic.ttf
  4

  0
STYLE
  5
49
330
5
100
AcDbSymbolTableRecord
100
AcDbTextStyleTableRecord
  2
OpenSans-ExtraBold
 70
0
 40
0.0
 41
1.0
 50
0.0
 71
0
 42
2.5
  3
OpenSans-ExtraBold.ttf
  4

  0
STYLE
  5
4A
330
5
100
AcDbSymbolTableRecord
100
AcDbTextStyleTableRecord
  2
OpenSans-ExtraBoldItalic
 70
0
 40
0.0
 41
1.0
 50
0.0
 71
0
 42
2.5
  3
OpenSans-ExtraBoldItalic.ttf
  4

  0
STYLE
  5
4B
330
5
100
AcDbSymbolTableRecord
100
AcDbTextStyleTableRecord
  2
OpenSansCondensed-Bold
 70
0
 40
0.0
 41
1.0
 50
0.0
 71
0
 42
2.5
  3
OpenSansCondensed-Bold.ttf
  4

  0
STYLE
  5
4C
330
5
100
AcDbSymbolTableRecord
100
AcDbTextStyleTableRecord
  2
OpenSansCondensed-Light
 70
0
 40
0.0
 41
1.0
 50
0.0
 71
0
 42
2.5
  3
OpenSansCondensed-Light.ttf
  4

  0
STYLE
  5
4D
330
5
100
AcDbSymbolTableRecord
100
AcDbTextStyleTableRecord
  2
OpenSansCondensed-Italic
 70
0
 40
0.0
 41
1.0
 50
0.0
 71
0
 42
2.5
  3
OpenSansCondensed-LightItalic.ttf
  4

  0
STYLE
  5
4E
330
5
100
AcDbSymbolTableRecord
100
AcDbTextStyleTableRecord
  2
LiberationSans
 70
0
 40
0.0
 41
1.0
 50
0.0
 71
0
 42
2.5
  3
LiberationSans-Regular.ttf
  4

  0
STYLE
  5
4F
330
5
100
AcDbSymbolTableRecord
100
AcDbTextStyleTableRecord
  2
LiberationSans-Bold
 70
0
 40
0.0
 41
1.0
 50
0.0
 71
0
 42
2.5
  3
LiberationSans-Bold.ttf
  4

  0
STYLE
  5
50
330
5
100
AcDbSymbolTableRecord
100
AcDbTextStyleTableRecord
  2
LiberationSans-BoldItalic
 70
0
 40
0.0
 41
1.0
 50
0.0
 71
0
 42
2.5
  3
LiberationSans-BoldItalic.ttf
  4

  0
STYLE
  5
51
330
5
100
AcDbSymbolTableRecord
100
AcDbTextStyleTableRecord
  2
LiberationSans-Italic
 70
0
 40
0.0
 41
1.0
 50
0.0
 71
0
 42
2.5
  3
LiberationSans-Italic.ttf
  4

  0
STYLE
  5
52
330
5
100
AcDbSymbolTableRecord
100
AcDbTextStyleTableRecord
  2
LiberationSerif
 70
0
 40
0.0
 41
1.0
 50
0.0
 71
0
 42
2.5
  3
LiberationSerif-Regular.ttf
  4

  0
STYLE
  5
53
330
5
100
AcDbSymbolTableRecord
100
AcDbTextStyleTableRecord
  2
LiberationSerif-Bold
 70
0
 40
0.0
 41
1.0
 50
0.0
 71
0
 42
2.5
  3
LiberationSerif-Bold.ttf
  4

  0
STYLE
  5
54
330
5
100
AcDbSymbolTableRecord
100
AcDbTextStyleTableRecord
  2
LiberationSerif-BoldItalic
 70
0
 40
0.0
 41
1.0
 50
0.0
 71
0
 42
2.5
  3
LiberationSerif-BoldItalic.ttf
  4

  0
STYLE
  5
55
330
5
100
AcDbSymbolTableRecord
100
AcDbTextStyleTableRecord
  2
LiberationSerif-Italic
 70
0
 40
0.0
 41
1.0
 50
0.0
 71
0
 42
2.5
  3
LiberationSerif-Italic.ttf
  4

  0
STYLE
  5
56
330
5
100
AcDbSymbolTableRecord
100
AcDbTextStyleTableRecord
  2
LiberationMono
 70
0
 40
0.0
 41
1.0
 50
0.0
 71
0
 42
2.5
  3
LiberationMono-Regular.ttf
  4

  0
STYLE
  5
57
330
5
100
AcDbSymbolTableRecord
100
AcDbTextStyleTableRecord
  2
LiberationMono-Bold
 70
0
 40
0.0
 41
1.0
 50
0.0
 71
0
 42
2.5
  3
LiberationMono-Bold.ttf
  4

  0
STYLE
  5
58
330
5
100
AcDbSymbolTableRecord
100
AcDbTextStyleTableRecord
  2
LiberationMono-BoldItalic
 70
0
 40
0.0
 41
1.0
 50
0.0
 71
0
 42
2.5
  3
LiberationMono-BoldItalic.ttf
  4

  0
STYLE
  5
59
330
5
100
AcDbSymbolTableRecord
100
AcDbTextStyleTableRecord
  2
LiberationMono-Italic
 70
0
 40
0.0
 41
1.0
 50
0.0
 71
0
 42
2.5
  3
LiberationMono-Italic.ttf
  4

  0
ENDTAB
  0
TABLE
  2
VIEW
  5
7
330
0
100
AcDbSymbolTable
 70
0
  0
ENDTAB
  0
TABLE
  2
UCS
  5
6
330
0
100
AcDbSymbolTable
 70
0
  0
ENDTAB
  0
TABLE
  2
APPID
  5
3
330
0
100
AcDbSymbolTable
 70
3
  0
APPID
  5
2A
330
3
100
AcDbSymbolTableRecord
100
AcDbRegAppTableRecord
  2
ACAD
 70
0
  0
APPID
  5
22B
330
3
100
AcDbSymbolTableRecord
100
AcDbRegAppTableRecord
  2
HATCHBACKGROUNDCOLOR
 70
0
  0
APPID
  5
22C
330
3
100
AcDbSymbolTableRecord
100
AcDbRegAppTableRecord
  2
EZDXF
 70
0
  0
ENDTAB
  0
TABLE
  2
DIMSTYLE
  5
4
330
0
100
AcDbSymbolTable
 70
12
100
AcDbDimStyleTable
  0
DIMSTYLE
105
2B
330
4
100
AcDbSymbolTableRecord
100
AcDbDimStyleTableRecord
  2
Standard
 70
0
 40
1.0
 41
2.5
 42
0.625
 43
3.75
 44
1.25
 45
0.0
 46
0.0
 47
0.0
 48
0.0
 49
2.5
140
2.5
141
2.5
142
0.0
143
0.03937007874
144
1.0
145
0.0
146
1.0
147
0.625
148
0.0
 69
0
 70
0
 71
0
 72
0
 73
0
 74
0
 75
0
 76
0
 77
1
 78
8
 79
3
170
0
171
3
172
1
173
0
174
0
175
0
176
0
177
0
178
0
179
2
271
2
272
2
273
2
274
3
275
0
276
0
277
2
278
44
279
0
280
0
281
0
282
0
283
0
284
8
285
0
286
0
288
0
289
3
290
0
371
-2
372
-2
  0
DIMSTYLE
105
73
330
4
100
AcDbSymbolTableRecord
100
AcDbDimStyleTableRecord
  2
EZDXF
 70
0
 40
1.0
 41
0.175
 42
0.125
 43
3.75
 44
0.375
 45
0.0
 46
0.0
 47
0.0
 48
0.0
 49
2.5
140
0.25
141
2.5
142
0.0
143
0.03937007874
144
100.0
145
0.0
146
0.5
147
0.1
148
0.0
 69
0
 70
0
 71
0
 72
0
 73
0
 74
0
 75
0
 76
0
 77
1
 78
12
 79
3
170
0
171
3
172
1
173
0
174
0
175
0
176
0
177
0
178
0
179
2
271
2
272
2
273
2
274
3
275
0
276
0
277
2
278
46
279
2
280
0
281
0
282
0
283
0
284
8
285
0
286
0
288
1
289
3
290
0
340
4C
342
74
371
-2
372
-2
  0
DIMSTYLE
105
7C
330
4
100
AcDbSymbolTableRecord
100
AcDbDimStyleTableRecord
  2
EZ_M_100_H25_CM
 70
0
 40
1.0
 41
0.25
 42
0.125
 43
3.75
 44
0.375
 45
0.0
 46
0.0
 47
0.0
 48
0.0
 49
2.5
140
0.25
141
2.5
142
0.125
143
0.03937007874
144
100.0
145
0.0
146
0.5
147
0.1
148
0.0
 69
0
 70
0
 71
0
 72
0
 73
0
 74
0
 75
0
 76
0
 77
1
 78
12
 79
3
170
0
171
3
172
1
173
0
174
0
175
0
176
0
177
0
178
0
179
2
271
2
272
2
273
2
274
3
275
0
276
0
277
2
278
46
279
2
280
0
281
0
282
0
283
0
284
8
285
0
286
0
288
1
289
3
290
0
340
4C
371
-2
372
-2
  0
DIMSTYLE
105
7D
330
4
100
AcDbSymbolTableRecord
100
AcDbDimStyleTableRecord
  2
EZ_M_50_H25_CM
 70
0
 40
1.0
 41
0.125
 42
0.0625
 43
3.75
 44
0.1875
 45
0.0
 46
0.0
 47
0.0
 48
0.0
 49
2.5
140
0.125
141
2.5
142
0.0625
143
0.03937007874
144
100.0
145
0.0
146
0.5
147
0.05
148
0.0
 69
0
 70
0
 71
0
 72
0
 73
0
 74
0
 75
0
 76
0
 77
1
 78
12
 79
3
170
0
171
3
172
1
173
0
174
0
175
0
176
0
177
0
178
0
179
2
271
2
272
2
273
2
274
3
275
0
276
0
277
2
278
46
279
2
280
0
281
0
282
0
283
0
284
8
285
0
286
0
288
1
289
3
290
0
340
4C
371
-2
372
-2
  0
DIMSTYLE
105
7E
330
4
100
AcDbSymbolTableRecord
100
AcDbDimStyleTableRecord
  2
EZ_M_25_H25_CM
 70
0
 40
1.0
 41
0.0625
 42
0.03125
 43
3.75
 44
0.09375
 45
0.0
 46
0.0
 47
0.0
 48
0.0
 49
2.5
140
0.0625
141
2.5
142
0.03125
143
0.03937007874
144
100.0
145
0.0
146
0.5
147
0.025
148
0.0
 69
0
 70
0
 71
0
 72
0
 73
0
 74
0
 75
0
 76
0
 77
1
 78
12
 79
3
170
0
171
3
172
1
173
0
174
0
175
0
176
0
177
0
178
0
179
2
271
2
272
2
273
2
274
3
275
0
276
0
277
2
278
46
279
2
280
0
281
0
282
0
283
0
284
8
285
0
286
0
288
1
289
3
290
0
340
4C
371
-2
372
-2
  0
DIMSTYLE
105
7F
330
4
100
AcDbSymbolTableRecord
100
AcDbDimStyleTableRecord
  2
EZ_M_20_H25_CM
 70
0
 40
1.0
 41
0.05
 42
0.025
 43
3.75
 44
0.07500000000000001
 45
0.0
 46
0.0
 47
0.0
 48
0.0
 49
2.5
140
0.05
141
2.5
142
0.025
143
0.03937007874
144
100.0
145
0.0
146
0.5
147
0.020000000000000004
148
0.0
 69
0
 70
0
 71
0
 72
0
 73
0
 74
0
 75
0
 76
0
 77
1
 78
12
 79
3
170
0
171
3
172
1
173
0
174
0
175
0
176
0
177
0
178
0
179
2
271
2
272
2
273
2
274
3
275
0
276
0
277
2
278
46
279
2
280
0
281
0
282
0
283
0
284
8
285
0
286
0
288
1
289
3
290
0
340
4C
371
-2
372
-2
  0
DIMSTYLE
105
80
330
4
100
AcDbSymbolTableRecord
100
AcDbDimStyleTableRecord
  2
EZ_M_10_H25_CM
 70
0
 40
1.0
 41
0.025
 42
0.0125
 43
3.75
 44
0.037500000000000006
 45
0.0
 46
0.0
 47
0.0
 48
0.0
 49
2.5
140
0.025
141
2.5
142
0.0125
143
0.03937007874
144
100.0
145
0.0
146
0.5
147
0.010000000000000002
148
0.0
 69
0
 70
0
 71
0
 72
0
 73
0
 74
0
 75
0
 76
0
 77
1
 78
12
 79
3
170
0
171
3
172
1
173
0
174
0
175
0
176
0
177
0
178
0
179
2
271
2
272
2
273
2
274
3
275
0
276
0
277
2
278
46
279
2
280
0
281
0
282
0
283
0
284
8
285
0
286
0
288
1
289
3
290
0
340
4C
371
-2
372
-2
  0
DIMSTYLE
105
81
330
4
100
AcDbSymbolTableRecord
100
AcDbDimStyleTableRecord
  2
EZ_M_5_H25_CM
 70
0
 40
1.0
 41
0.0125
 42
0.00625
 43
3.75
 44
0.018750000000000003
 45
0.0
 46
0.0
 47
0.0
 48
0.0
 49
2.5
140
0.0125
141
2.5
142
0.00625
143
0.03937007874
144
100.0
145
0.0
146
0.5
147
0.005000000000000001
148
0.0
 69
0
 70
0
 71
0
 72
0
 73
0
 74
0
 75
0
 76
0
 77
1
 78
12
 79
3
170
0
171
3
172
1
173
0
174
0
175
0
176
0
177
0
178
0
179
2
271
2
272
2
273
2
274
3
275
0
276
0
277
2
278
46
279
2
280
0
281
0
282
0
283
0
284
8
285
0
286
0
288
1
289
3
290
0
340
4C
371
-2
372
-2
  0
DIMSTYLE
105
82
330
4
100
AcDbSymbolTableRecord
100
AcDbDimStyleTableRecord
  2
EZ_M_1_H25_CM
 70
0
 40
1.0
 41
0.0025
 42
0.00125
 43
3.75
 44
0.00375
 45
0.0
 46
0.0
 47
0.0
 48
0.0
 49
2.5
140
0.0025
141
2.5
142
0.00125
143
0.03937007874
144
100.0
145
0.0
146
0.5
147
0.001
148
0.0
 69
0
 70
0
 71
0
 72
0
 73
0
 74
0
 75
0
 76
0
 77
1
 78
12
 79
3
170
0
171
3
172
1
173
0
174
0
175
0
176
0
177
0
178
0
179
2
271
2
272
2
273
2
274
3
275
0
276
0
277
2
278
46
279
2
280
0
281
0
282
0
283
0
284
8
285
0
286
0
288
1
289
3
290
0
340
4C
371
-2
372
-2
  0
DIMSTYLE
105
83
330
4
100
AcDbSymbolTableRecord
100
AcDbDimStyleTableRecord
  2
EZ_RADIUS
 70
0
 40
1.0
 41
0.25
 42
0.125
 43
3.75
 44
0.375
 45
0.0
 46
0.0
 47
0.0
 48
0.0
 49
2.5
140
0.25
141
0.0
142
0.0
143
0.03937007874
144
100.0
145
0.0
146
0.5
147
0.1
148
0.0
 69
0
 70
0
 71
0
 72
0
 73
0
 74
0
 75
0
 76
0
 77
1
 78
12
 79
3
170
0
171
3
172
0
173
0
174
0
175
0
176
0
177
0
178
0
179
2
271
2
272
2
273
2
274
3
275
0
276
0
277
2
278
46
279
1
280
0
281
0
282
0
283
0
284
8
285
0
286
0
288
1
289
3
290
0
340
4C
342
84
371
-2
372
-2
  0
DIMSTYLE
105
88
330
4
100
AcDbSymbolTableRecord
100
AcDbDimStyleTableRecord
  2
EZ_RADIUS_INSIDE
 70
0
 40
1.0
 41
0.25
 42
0.125
 43
3.75
 44
0.375
 45
0.0
 46
0.0
 47
0.0
 48
0.0
 49
2.5
140
0.25
141
0.0
142
0.0
143
0.03937007874
144
100.0
145
0.0
146
0.5
147
0.1
148
0.0
 69
0
 70
0
 71
0
 72
0
 73
0
 74
0
 75
0
 76
0
 77
0
 78
12
 79
3
170
0
171
3
172
0
173
0
174
1
175
0
176
0
177
0
178
0
179
2
271
2
272
2
273
2
274
3
275
0
276
0
277
2
278
46
279
0
280
0
281
0
282
0
283
0
284
8
285
0
286
0
288
1
289
0
290
0
340
4C
342
84
371
-2
372
-2
  0
DIMSTYLE
105
89
330
4
100
AcDbSymbolTableRecord
100
AcDbDimStyleTableRecord
  2
EZ_CURVED
 70
0
 40
1.0
 41
0.25
 42
0.125
 43
3.75
 44
0.375
 45
0.0
 46
0.0
 47
0.0
 48
0.0
 49
2.5
140
0.25
141
2.5
142
0.0
143
0.03937007874
144
100.0
145
0.0
146
0.5
147
0.1
148
0.0
 69
0
 70
0
 71
0
 72
0
 73
0
 74
0
 75
0
 76
0
 77
1
 78
12
 79
2
 90
2
170
0
171
3
172
1
173
0
174
0
175
0
176
0
177
0
178
0
179
2
271
2
272
2
273
2
274
3
275
0
276
0
277
2
278
46
279
2
280
0
281
0
282
0
283
0
284
8
285
0
286
0
288
1
289
3
290
0
340
4C
371
-2
372
-2
  0
ENDTAB
  0
TABLE
  2
BLOCK_RECORD
  5
9
330
0
100
AcDbSymbolTable
 70
17
  0
BLOCK_RECORD
  5
17
330
9
100
AcDbSymbolTableRecord
100
AcDbBlockTableRecord
  2
*Model_Space
340
1A
 70
0
280
1
281
0
  0
BLOCK_RECORD
  5
1B
330
9
100
AcDbSymbolTableRecord
100
AcDbBlockTableRecord
  2
*Paper_Space
340
1E
 70
0
280
1
281
0
  0
BLOCK_RECORD
  5
74
330
9
100
AcDbSymbolTableRecord
100
AcDbBlockTableRecord
  2
_ARCHTICK
340
0
 70
0
280
1
281
0
  0
BLOCK_RECORD
  5
78
330
9
100
AcDbSymbolTableRecord
100
AcDbBlockTableRecord
  2
_CLOSEDFILLED
340
0
 70
0
280
1
281
0
  0
BLOCK_RECORD
  5
84
330
9
100
AcDbSymbolTableRecord
100
AcDbBlockTableRecord
  2
_CLOSEDBLANK
340
0
 70
0
280
1
281
0
  0
BLOCK_RECORD
  5
92
330
9
100
AcDbSymbolTableRecord
100
AcDbBlockTableRecord
  2
*D1
340
0
 70
0
280
1
281
0
  0
BLOCK_RECORD
  5
A1
330
9
100
AcDbSymbolTableRecord
100
AcDbBlockTableRecord
  2
*D2
340
0
 70
0
280
1
281
0
  0
BLOCK_RECORD
  5
E5
330
9
100
AcDbSymbolTableRecord
100
AcDbBlockTableRecord
  2
*D3
340
0
 70
0
280
1
281
0
  0
BLOCK_RECORD
  5
FA
330
9
100
AcDbSymbolTableRecord
100
AcDbBlockTableRecord
  2
*D4
340
0
 70
0
280
1
281
0
  0
BLOCK_RECORD
  5
109
330
9
100
AcDbSymbolTableRecord
100
AcDbBlockTableRecord
  2
*D5
340
0
 70
0
280
1
281
0
  0
BLOCK_RECORD
  5
144
330
9
100
AcDbSymbolTableRecord
100
AcDbBlockTableRecord
  2
*D6
340
0
 70
0
280
1
281
0
  0
BLOCK_RECORD
  5
159
330
9
100
AcDbSymbolTableRecord
100
AcDbBlockTableRecord
  2
*D7
340
0
 70
0
280
1
281
0
  0
BLOCK_RECORD
  5
168
330
9
100
AcDbSymbolTableRecord
100
AcDbBlockTableRecord
  2
*D8
340
0
 70
0
280
1
281
0
  0
BLOCK_RECORD
  5
1A3
330
9
100
AcDbSymbolTableRecord
100
AcDbBlockTableRecord
  2
*D9
340
0
 70
0
280
1
281
0
  0
BLOCK_RECORD
  5
1B8
330
9
100
AcDbSymbolTableRecord
100
AcDbBlockTableRecord
  2
*D10
340
0
 70
0
280
1
281
0
  0
BLOCK_RECORD
  5
1C7
330
9
100
AcDbSymbolTableRecord
100
AcDbBlockTableRecord
  2
*D11
340
0
 70
0
280
1
281
0
  0
BLOCK_RECORD
  5
21D
330
9
100
AcDbSymbolTableRecord
100
AcDbBlockTableRecord
  2
*D12
340
0
 70
0
280
1
281
0
  0
ENDTAB
  0
ENDSEC
  0
SECTION
  2
BLOCKS
  0
BLOCK
  5
18
330
17
100
AcDbEntity
  8
0
100
AcDbBlockBegin
  2
*Model_Space
 70
0
 10
0.0
 20
0.0
 30
0.0
  3
*Model_Space
  1

  0
ENDBLK
  5
19
330
17
100
AcDbEntity
  8
0
100
AcDbBlockEnd
  0
BLOCK
  5
1C
330
1B
100
AcDbEntity
  8
0
100
AcDbBlockBegin
  2
*Paper_Space
 70
0
 10
0.0
 20
0.0
 30
0.0
  3
*Paper_Space
  1

  0
ENDBLK
  5
1D
330
1B
100
AcDbEntity
  8
0
100
AcDbBlockEnd
  0
BLOCK
  5
75
330
74
100
AcDbEntity
  8
0
100
AcDbBlockBegin
  2
_ARCHTICK
 70
0
 10
0.0
 20
0.0
 30
0.0
  3
_ARCHTICK
  1

  0
LWPOLYLINE
  5
77
330
74
100
AcDbEntity
  8
0
  6
BYBLOCK
 62
0
100
AcDbPolyline
 90
2
 70
0
 43
0.15
 10
-0.5
 20
-0.5
 10
0.5
 20
0.5
  0
ENDBLK
  5
76
330
74
100
AcDbEntity
  8
0
100
AcDbBlockEnd
  0
BLOCK
  5
79
330
78
100
AcDbEntity
  8
0
100
AcDbBlockBegin
  2
_CLOSEDFILLED
 70
0
 10
0.0
 20
0.0
 30
0.0
  3
_CLOSEDFILLED
  1

  0
SOLID
  5
7B
330
78
100
AcDbEntity
  8
0
  6
BYBLOCK
 62
0
100
AcDbTrace
 10
-1.0
 20
0.16439898372402537
 30
0.0
 11
0.0
 21
0.0
 31
0.0
 12
-1.0
 22
-0.16439898372402537
 32
0.0
 13
-1.0
 23
-0.16439898372402537
 33
0.0
  0
ENDBLK
  5
7A
330
78
100
AcDbEntity
  8
0
100
AcDbBlockEnd
  0
BLOCK
  5
85
330
84
100
AcDbEntity
  8
0
100
AcDbBlockBegin
  2
_CLOSEDBLANK
 70
0
 10
0.0
 20
0.0
 30
0.0
  3
_CLOSEDBLANK
  1

  0
LWPOLYLINE
  5
87
330
84
100
AcDbEntity
  8
0
  6
BYBLOCK
 62
0
100
AcDbPolyline
 90
3
 70
1
 10
-1.0
 20
0.16439898372402537
 10
0.0
 20
0.0
 10
-1.0
 20
-0.16439898372402537
  0
ENDBLK
  5
86
330
84
100
AcDbEntity
  8
0
100
AcDbBlockEnd
  0
BLOCK
  5
93
330
92
100
AcDbEntity
  8
0
100
AcDbBlockBegin
  2
*D1
 70
1
 10
0.0
 20
0.0
 30
0.0
  3
*D1
  1

  0
LINE
  5
95
330
92
100
AcDbEntity
  8
0
100
AcDbLine
 10
-9.983190536499023
 20
-14.958820343017578
 30
0.0
 11
-9.983190536499023
 21
-69.95882034301758
 31
0.0
  0
LINE
  5
96
330
92
100
AcDbEntity
  8
0
100
AcDbLine
 10
505.9764242172241
 20
-14.958820343017578
 30
0.0
 11
505.9764242172241
 21
-69.95882034301758
 31
0.0
  0
INSERT
  5
97
330
92
100
AcDbEntity
  8
KOTE
100
AcDbBlockReference
  2
_ARCHTICK
 10
-9.983190536499023
 20
-59.95882034301758
 30
0.0
 41
15.0
 42
15.0
 50
180.0
  0
INSERT
  5
99
330
92
100
AcDbEntity
  8
KOTE
100
AcDbBlockReference
  2
_ARCHTICK
 10
505.9764242172241
 20
-59.95882034301758
 30
0.0
 41
15.0
 42
15.0
  0
LINE
  5
9B
330
92
100
AcDbEntity
  8
0
100
AcDbLine
 10
-9.983190536499023
 20
-59.95882034301758
 30
0.0
 11
505.9764242172241
 21
-59.95882034301758
 31
0.0
  0
MTEXT
  5
9C
330
92
100
AcDbEntity
  8
KOTE
100
AcDbMText
 10
247.99661684036255
 20
-47.35882034301758
 30
0.0
 40
25.0
 71
5
  1
51596
  7
OpenSansCondensed-Light
  0
POINT
  5
9D
330
92
100
AcDbEntity
  8
Defpoints
100
AcDbPoint
 10
-9.983190536499023
 20
-59.95882034301758
 30
0.0
  0
POINT
  5
9E
330
92
100
AcDbEntity
  8
Defpoints
100
AcDbPoint
 10
-9.983190536499023
 20
-9.958820343017578
 30
0.0
  0
POINT
  5
9F
330
92
100
AcDbEntity
  8
Defpoints
100
AcDbPoint
 10
505.9764242172241
 20
-9.958820343017578
 30
0.0
  0
ENDBLK
  5
94
330
92
100
AcDbEntity
  8
0
100
AcDbBlockEnd
  0
BLOCK
  5
A2
330
A1
100
AcDbEntity
  8
0
100
AcDbBlockBegin
  2
*D2
 70
1
 10
0.0
 20
0.0
 30
0.0
  3
*D2
  1

  0
LINE
  5
A4
330
A1
100
AcDbEntity
  8
0
100
AcDbLine
 10
-14.983190536499023
 20
-9.958820343017578
 30
0.0
 11
-69.98319053649902
 21
-9.958820343017578
 31
0.0
  0
LINE
  5
A5
330
A1
100
AcDbEntity
  8
0
100
AcDbLine
 10
-14.983190536499023
 20
1396.9545450210571
 30
0.0
 11
-69.98319053649902
 21
1396.9545450210571
 31
0.0
  0
INSERT
  5
A6
330
A1
100
AcDbEntity
  8
KOTE
100
AcDbBlockReference
  2
_ARCHTICK
 10
-59.98319053649902
 20
-9.958820343017578
 30
0.0
 41
15.0
 42
15.0
 50
270.0
  0
INSERT
  5
A8
330
A1
100
AcDbEntity
  8
KOTE
100
AcDbBlockReference
  2
_ARCHTICK
 10
-59.98319053649902
 20
1396.9545450210571
 30
0.0
 41
15.0
 42
15.0
 50
90.0
  0
LINE
  5
AA
330
A1
100
AcDbEntity
  8
0
100
AcDbLine
 10
-59.98319053649902
 20
-9.958820343017578
 30
0.0
 11
-59.98319053649902
 21
1396.9545450210571
 31
0.0
  0
MTEXT
  5
AB
330
A1
100
AcDbEntity
  8
KOTE
100
AcDbMText
 10
-72.58319053649902
 20
693.4978623390198
 30
0.0
 40
25.0
 71
5
  1
140691
  7
OpenSansCondensed-Light
 50
90.0
  0
POINT
  5
AC
330
A1
100
AcDbEntity
  8
Defpoints
100
AcDbPoint
 10
-59.98319053649902
 20
-9.958820343017578
 30
0.0
  0
POINT
  5
AD
330
A1
100
AcDbEntity
  8
Defpoints
100
AcDbPoint
 10
-9.983190536499023
 20
-9.958820343017578
 30
0.0
  0
POINT
  5
AE
330
A1
100
AcDbEntity
  8
Defpoints
100
AcDbPoint
 10
-9.983190536499023
 20
1396.9545450210571
 30
0.0
  0
ENDBLK
  5
A3
330
A1
100
AcDbEntity
  8
0
100
AcDbBlockEnd
  0
BLOCK
  5
E6
330
E5
100
AcDbEntity
  8
0
100
AcDbBlockBegin
  2
*D3
 70
1
 10
0.0
 20
0.0
 30
0.0
  3
*D3
  1

  0
LINE
  5
E8
330
E5
100
AcDbEntity
  8
0
100
AcDbLine
 10
-9.983190536499023
 20
-304.9588203430176
 30
0.0
 11
-9.983190536499023
 21
-389.9588203430176
 31
0.0
  0
LINE
  5
E9
330
E5
100
AcDbEntity
  8
0
100
AcDbLine
 10
3504.160145053459
 20
-304.9588203430176
 30
0.0
 11
3504.160145053459
 21
-389.9588203430176
 31
0.0
  0
INSERT
  5
EA
330
E5
100
AcDbEntity
  8
KOTE
100
AcDbBlockReference
  2
_ARCHTICK
 10
-9.983190536499023
 20
-379.9588203430176
 30
0.0
 41
15.0
 42
15.0
 50
180.0
  0
INSERT
  5
EC
330
E5
100
AcDbEntity
  8
KOTE
100
AcDbBlockReference
  2
_ARCHTICK
 10
3504.160145053459
 20
-379.9588203430176
 30
0.0
 41
15.0
 42
15.0
  0
LINE
  5
EE
330
E5
100
AcDbEntity
  8
0
100
AcDbLine
 10
-9.983190536499023
 20
-379.9588203430176
 30
0.0
 11
3504.160145053459
 21
-379.9588203430176
 31
0.0
  0
MTEXT
  5
EF
330
E5
100
AcDbEntity
  8
KOTE
100
AcDbMText
 10
1747.08847725848
 20
-367.35882034301756
 30
0.0
 40
25.0
 71
5
  1
351414
  7
OpenSansCondensed-Light
  0
POINT
  5
F0
330
E5
100
AcDbEntity
  8
Defpoints
100
AcDbPoint
 10
-9.983190536499023
 20
-379.9588203430176
 30
0.0
  0
POINT
  5
F1
330
E5
100
AcDbEntity
  8
Defpoints
100
AcDbPoint
 10
-9.983190536499023
 20
-299.9588203430176
 30
0.0
  0
POINT
  5
F2
330
E5
100
AcDbEntity
  8
Defpoints
100
AcDbPoint
 10
3504.160145053459
 20
-299.9588203430176
 30
0.0
  0
ENDBLK
  5
E7
330
E5
100
AcDbEntity
  8
0
100
AcDbBlockEnd
  0
BLOCK
  5
FB
330
FA
100
AcDbEntity
  8
0
100
AcDbBlockBegin
  2
*D4
 70
1
 10
0.0
 20
0.0
 30
0.0
  3
*D4
  1

  0
LINE
  5
FD
330
FA
100
AcDbEntity
  8
0
100
AcDbLine
 10
-9.999704360961914
 20
-1791.9047937393188
 30
0.0
 11
-9.999704360961914
 21
-1846.9047937393188
 31
0.0
  0
LINE
  5
FE
330
FA
100
AcDbEntity
  8
0
100
AcDbLine
 10
502.9068660736084
 20
-1791.9047937393188
 30
0.0
 11
502.9068660736084
 21
-1846.9047937393188
 31
0.0
  0
INSERT
  5
FF
330
FA
100
AcDbEntity
  8
KOTE
100
AcDbBlockReference
  2
_ARCHTICK
 10
-9.999704360961914
 20
-1836.9047937393188
 30
0.0
 41
15.0
 42
15.0
 50
180.0
  0
INSERT
  5
101
330
FA
100
AcDbEntity
  8
KOTE
100
AcDbBlockReference
  2
_ARCHTICK
 10
502.9068660736084
 20
-1836.9047937393188
 30
0.0
 41
15.0
 42
15.0
  0
LINE
  5
103
330
FA
100
AcDbEntity
  8
0
100
AcDbLine
 10
-9.999704360961914
 20
-1836.9047937393188
 30
0.0
 11
502.9068660736084
 21
-1836.9047937393188
 31
0.0
  0
MTEXT
  5
104
330
FA
100
AcDbEntity
  8
KOTE
100
AcDbMText
 10
246.45358085632324
 20
-1824.304793739319
 30
0.0
 40
25.0
 71
5
  1
51291
  7
OpenSansCondensed-Light
  0
POINT
  5
105
330
FA
100
AcDbEntity
  8
Defpoints
100
AcDbPoint
 10
-9.999704360961914
 20
-1836.9047937393188
 30
0.0
  0
POINT
  5
106
330
FA
100
AcDbEntity
  8
Defpoints
100
AcDbPoint
 10
-9.999704360961914
 20
-1786.9047937393188
 30
0.0
  0
POINT
  5
107
330
FA
100
AcDbEntity
  8
Defpoints
100
AcDbPoint
 10
502.9068660736084
 20
-1786.9047937393188
 30
0.0
  0
ENDBLK
  5
FC
330
FA
100
AcDbEntity
  8
0
100
AcDbBlockEnd
  0
BLOCK
  5
10A
330
109
100
AcDbEntity
  8
0
100
AcDbBlockBegin
  2
*D5
 70
1
 10
0.0
 20
0.0
 30
0.0
  3
*D5
  1

  0
LINE
  5
10C
330
109
100
AcDbEntity
  8
0
100
AcDbLine
 10
-14.999704360961914
 20
-1786.9047937393188
 30
0.0
 11
-69.99970436096191
 21
-1786.9047937393188
 31
0.0
  0
LINE
  5
10D
330
109
100
AcDbEntity
  8
0
100
AcDbLine
 10
-14.999704360961914
 20
-733.9952039718628
 30
0.0
 11
-69.99970436096191
 21
-733.9952039718628
 31
0.0
  0
INSERT
  5
10E
330
109
100
AcDbEntity
  8
KOTE
100
AcDbBlockReference
  2
_ARCHTICK
 10
-59.999704360961914
 20
-1786.9047937393188
 30
0.0
 41
15.0
 42
15.0
 50
270.0
  0
INSERT
  5
110
330
109
100
AcDbEntity
  8
KOTE
100
AcDbBlockReference
  2
_ARCHTICK
 10
-59.999704360961914
 20
-733.9952039718628
 30
0.0
 41
15.0
 42
15.0
 50
90.0
  0
LINE
  5
112
330
109
100
AcDbEntity
  8
0
100
AcDbLine
 10
-59.999704360961914
 20
-1786.9047937393188
 30
0.0
 11
-59.999704360961914
 21
-733.9952039718628
 31
0.0
  0
MTEXT
  5
113
330
109
100
AcDbEntity
  8
KOTE
100
AcDbMText
 10
-72.59970436096191
 20
-1260.4499988555908
 30
0.0
 40
25.0
 71
5
  1
105291
  7
OpenSansCondensed-Light
 50
90.0
  0
POINT
  5
114
330
109
100
AcDbEntity
  8
Defpoints
100
AcDbPoint
 10
-59.999704360961914
 20
-1786.9047937393188
 30
0.0
  0
POINT
  5
115
330
109
100
AcDbEntity
  8
Defpoints
100
AcDbPoint
 10
-9.999704360961914
 20
-1786.9047937393188
 30
0.0
  0
POINT
  5
116
330
109
100
AcDbEntity
  8
Defpoints
100
AcDbPoint
 10
-9.999704360961914
 20
-733.9952039718628
 30
0.0
  0
ENDBLK
  5
10B
330
109
100
AcDbEntity
  8
0
100
AcDbBlockEnd
  0
BLOCK
  5
145
330
144
100
AcDbEntity
  8
0
100
AcDbBlockBegin
  2
*D6
 70
1
 10
0.0
 20
0.0
 30
0.0
  3
*D6
  1

  0
LINE
  5
147
330
144
100
AcDbEntity
  8
0
100
AcDbLine
 10
-9.999704360961914
 20
-2081.904793739319
 30
0.0
 11
-9.999704360961914
 21
-2166.904793739319
 31
0.0
  0
LINE
  5
148
330
144
100
AcDbEntity
  8
0
100
AcDbLine
 10
2839.9981216845326
 20
-2081.904793739319
 30
0.0
 11
2839.9981216845326
 21
-2166.904793739319
 31
0.0
  0
INSERT
  5
149
330
144
100
AcDbEntity
  8
KOTE
100
AcDbBlockReference
  2
_ARCHTICK
 10
-9.999704360961914
 20
-2156.904793739319
 30
0.0
 41
15.0
 42
15.0
 50
180.0
  0
INSERT
  5
14B
330
144
100
AcDbEntity
  8
KOTE
100
AcDbBlockReference
  2
_ARCHTICK
 10
2839.9981216845326
 20
-2156.904793739319
 30
0.0
 41
15.0
 42
15.0
  0
LINE
  5
14D
330
144
100
AcDbEntity
  8
0
100
AcDbLine
 10
-9.999704360961914
 20
-2156.904793739319
 30
0.0
 11
2839.9981216845326
 21
-2156.904793739319
 31
0.0
  0
MTEXT
  5
14E
330
144
100
AcDbEntity
  8
KOTE
100
AcDbMText
 10
1414.9992086617854
 20
-2144.304793739319
 30
0.0
 40
25.0
 71
5
  1
285000
  7
OpenSansCondensed-Light
  0
POINT
  5
14F
330
144
100
AcDbEntity
  8
Defpoints
100
AcDbPoint
 10
-9.999704360961914
 20
-2156.904793739319
 30
0.0
  0
POINT
  5
150
330
144
100
AcDbEntity
  8
Defpoints
100
AcDbPoint
 10
-9.999704360961914
 20
-2076.904793739319
 30
0.0
  0
POINT
  5
151
330
144
100
AcDbEntity
  8
Defpoints
100
AcDbPoint
 10
2839.9981216845326
 20
-2076.904793739319
 30
0.0
  0
ENDBLK
  5
146
330
144
100
AcDbEntity
  8
0
100
AcDbBlockEnd
  0
BLOCK
  5
15A
330
159
100
AcDbEntity
  8
0
100
AcDbBlockBegin
  2
*D7
 70
1
 10
0.0
 20
0.0
 30
0.0
  3
*D7
  1

  0
LINE
  5
15C
330
159
100
AcDbEntity
  8
0
100
AcDbLine
 10
-10.0
 20
-3214.9321916103363
 30
0.0
 11
-10.0
 21
-3269.9321916103363
 31
0.0
  0
LINE
  5
15D
330
159
100
AcDbEntity
  8
0
100
AcDbLine
 10
893.7963190078735
 20
-3214.9321916103363
 30
0.0
 11
893.7963190078735
 21
-3269.9321916103363
 31
0.0
  0
INSERT
  5
15E
330
159
100
AcDbEntity
  8
KOTE
100
AcDbBlockReference
  2
_ARCHTICK
 10
-10.0
 20
-3259.9321916103363
 30
0.0
 41
15.0
 42
15.0
 50
180.0
  0
INSERT
  5
160
330
159
100
AcDbEntity
  8
KOTE
100
AcDbBlockReference
  2
_ARCHTICK
 10
893.7963190078735
 20
-3259.9321916103363
 30
0.0
 41
15.0
 42
15.0
  0
LINE
  5
162
330
159
100
AcDbEntity
  8
0
100
AcDbLine
 10
-10.0
 20
-3259.9321916103363
 30
0.0
 11
893.7963190078735
 21
-3259.9321916103363
 31
0.0
  0
MTEXT
  5
163
330
159
100
AcDbEntity
  8
KOTE
100
AcDbMText
 10
441.89815950393677
 20
-3247.3321916103364
 30
0.0
 40
25.0
 71
5
  1
90380
  7
OpenSansCondensed-Light
  0
POINT
  5
164
330
159
100
AcDbEntity
  8
Defpoints
100
AcDbPoint
 10
-10.0
 20
-3259.9321916103363
 30
0.0
  0
POINT
  5
165
330
159
100
AcDbEntity
  8
Defpoints
100
AcDbPoint
 10
-10.0
 20
-3209.9321916103363
 30
0.0
  0
POINT
  5
166
330
159
100
AcDbEntity
  8
Defpoints
100
AcDbPoint
 10
893.7963190078735
 20
-3209.9321916103363
 30
0.0
  0
ENDBLK
  5
15B
330
159
100
AcDbEntity
  8
0
100
AcDbBlockEnd
  0
BLOCK
  5
169
330
168
100
AcDbEntity
  8
0
100
AcDbBlockBegin
  2
*D8
 70
1
 10
0.0
 20
0.0
 30
0.0
  3
*D8
  1

  0
LINE
  5
16B
330
168
100
AcDbEntity
  8
0
100
AcDbLine
 10
-15.0
 20
-3209.9321916103363
 30
0.0
 11
-70.0
 21
-3209.9321916103363
 31
0.0
  0
LINE
  5
16C
330
168
100
AcDbEntity
  8
0
100
AcDbLine
 10
-15.0
 20
-2745.247569799423
 30
0.0
 11
-70.0
 21
-2745.247569799423
 31
0.0
  0
INSERT
  5
16D
330
168
100
AcDbEntity
  8
KOTE
100
AcDbBlockReference
  2
_ARCHTICK
 10
-60.0
 20
-3209.9321916103363
 30
0.0
 41
15.0
 42
15.0
 50
270.0
  0
INSERT
  5
16F
330
168
100
AcDbEntity
  8
KOTE
100
AcDbBlockReference
  2
_ARCHTICK
 10
-60.0
 20
-2745.247569799423
 30
0.0
 41
15.0
 42
15.0
 50
90.0
  0
LINE
  5
171
330
168
100
AcDbEntity
  8
0
100
AcDbLine
 10
-60.0
 20
-3209.9321916103363
 30
0.0
 11
-60.0
 21
-2745.247569799423
 31
0.0
  0
MTEXT
  5
172
330
168
100
AcDbEntity
  8
KOTE
100
AcDbMText
 10
-72.6
 20
-2977.5898807048798
 30
0.0
 40
25.0
 71
5
  1
46468
  7
OpenSansCondensed-Light
 50
90.0
  0
POINT
  5
173
330
168
100
AcDbEntity
  8
Defpoints
100
AcDbPoint
 10
-60.0
 20
-3209.9321916103363
 30
0.0
  0
POINT
  5
174
330
168
100
AcDbEntity
  8
Defpoints
100
AcDbPoint
 10
-10.0
 20
-3209.9321916103363
 30
0.0
  0
POINT
  5
175
330
168
100
AcDbEntity
  8
Defpoints
100
AcDbPoint
 10
-10.0
 20
-2745.247569799423
 30
0.0
  0
ENDBLK
  5
16A
330
168
100
AcDbEntity
  8
0
100
AcDbBlockEnd
  0
BLOCK
  5
1A4
330
1A3
100
AcDbEntity
  8
0
100
AcDbBlockBegin
  2
*D9
 70
1
 10
0.0
 20
0.0
 30
0.0
  3
*D9
  1

  0
LINE
  5
1A6
330
1A3
100
AcDbEntity
  8
0
100
AcDbLine
 10
-10.0
 20
-3504.9321916103363
 30
0.0
 11
-10.0
 21
-3589.9321916103363
 31
0.0
  0
LINE
  5
1A7
330
1A3
100
AcDbEntity
  8
0
100
AcDbLine
 10
2473.7406940885567
 20
-3504.9321916103363
 30
0.0
 11
2473.7406940885567
 21
-3589.9321916103363
 31
0.0
  0
INSERT
  5
1A8
330
1A3
100
AcDbEntity
  8
KOTE
100
AcDbBlockReference
  2
_ARCHTICK
 10
-10.0
 20
-3579.9321916103363
 30
0.0
 41
15.0
 42
15.0
 50
180.0
  0
INSERT
  5
1AA
330
1A3
100
AcDbEntity
  8
KOTE
100
AcDbBlockReference
  2
_ARCHTICK
 10
2473.7406940885567
 20
-3579.9321916103363
 30
0.0
 41
15.0
 42
15.0
  0
LINE
  5
1AC
330
1A3
100
AcDbEntity
  8
0
100
AcDbLine
 10
-10.0
 20
-3579.9321916103363
 30
0.0
 11
2473.7406940885567
 21
-3579.9321916103363
 31
0.0
  0
MTEXT
  5
1AD
330
1A3
100
AcDbEntity
  8
KOTE
100
AcDbMText
 10
1231.8703470442783
 20
-3567.3321916103364
 30
0.0
 40
25.0
 71
5
  1
248374
  7
OpenSansCondensed-Light
  0
POINT
  5
1AE
330
1A3
100
AcDbEntity
  8
Defpoints
100
AcDbPoint
 10
-10.0
 20
-3579.9321916103363
 30
0.0
  0
POINT
  5
1AF
330
1A3
100
AcDbEntity
  8
Defpoints
100
AcDbPoint
 10
-10.0
 20
-3499.9321916103363
 30
0.0
  0
POINT
  5
1B0
330
1A3
100
AcDbEntity
  8
Defpoints
100
AcDbPoint
 10
2473.7406940885567
 20
-3499.9321916103363
 30
0.0
  0
ENDBLK
  5
1A5
330
1A3
100
AcDbEntity
  8
0
100
AcDbBlockEnd
  0
BLOCK
  5
1B9
330
1B8
100
AcDbEntity
  8
0
100
AcDbBlockBegin
  2
*D10
 70
1
 10
0.0
 20
0.0
 30
0.0
  3
*D10
  1

  0
LINE
  5
1BB
330
1B8
100
AcDbEntity
  8
0
100
AcDbLine
 10
-9.999996185302734
 20
-4049.634677171707
 30
0.0
 11
-9.999996185302734
 21
-4104.634677171707
 31
0.0
  0
LINE
  5
1BC
330
1B8
100
AcDbEntity
  8
0
100
AcDbLine
 10
869.9170508384705
 20
-4049.634677171707
 30
0.0
 11
869.9170508384705
 21
-4104.634677171707
 31
0.0
  0
INSERT
  5
1BD
330
1B8
100
AcDbEntity
  8
KOTE
100
AcDbBlockReference
  2
_ARCHTICK
 10
-9.999996185302734
 20
-4094.634677171707
 30
0.0
 41
15.0
 42
15.0
 50
180.0
  0
INSERT
  5
1BF
330
1B8
100
AcDbEntity
  8
KOTE
100
AcDbBlockReference
  2
_ARCHTICK
 10
869.9170508384705
 20
-4094.634677171707
 30
0.0
 41
15.0
 42
15.0
  0
LINE
  5
1C1
330
1B8
100
AcDbEntity
  8
0
100
AcDbLine
 10
-9.999996185302734
 20
-4094.634677171707
 30
0.0
 11
869.9170508384705
 21
-4094.634677171707
 31
0.0
  0
MTEXT
  5
1C2
330
1B8
100
AcDbEntity
  8
KOTE
100
AcDbMText
 10
429.95852732658386
 20
-4082.0346771717072
 30
0.0
 40
25.0
 71
5
  1
87992
  7
OpenSansCondensed-Light
  0
POINT
  5
1C3
330
1B8
100
AcDbEntity
  8
Defpoints
100
AcDbPoint
 10
-9.999996185302734
 20
-4094.634677171707
 30
0.0
  0
POINT
  5
1C4
330
1B8
100
AcDbEntity
  8
Defpoints
100
AcDbPoint
 10
-9.999996185302734
 20
-4044.634677171707
 30
0.0
  0
POINT
  5
1C5
330
1B8
100
AcDbEntity
  8
Defpoints
100
AcDbPoint
 10
869.9170508384705
 20
-4044.634677171707
 30
0.0
  0
ENDBLK
  5
1BA
330
1B8
100
AcDbEntity
  8
0
100
AcDbBlockEnd
  0
BLOCK
  5
1C8
330
1C7
100
AcDbEntity
  8
0
100
AcDbBlockBegin
  2
*D11
 70
1
 10
0.0
 20
0.0
 30
0.0
  3
*D11
  1

  0
LINE
  5
1CA
330
1C7
100
AcDbEntity
  8
0
100
AcDbLine
 10
-14.999996185302734
 20
-4044.634677171707
 30
0.0
 11
-69.99999618530273
 21
-4044.634677171707
 31
0.0
  0
LINE
  5
1CB
330
1C7
100
AcDbEntity
  8
0
100
AcDbLine
 10
-14.999996185302734
 20
-3448.738723039627
 30
0.0
 11
-69.99999618530273
 21
-3448.738723039627
 31
0.0
  0
INSERT
  5
1CC
330
1C7
100
AcDbEntity
  8
KOTE
100
AcDbBlockReference
  2
_ARCHTICK
 10
-59.999996185302734
 20
-4044.634677171707
 30
0.0
 41
15.0
 42
15.0
 50
270.0
  0
INSERT
  5
1CE
330
1C7
100
AcDbEntity
  8
KOTE
100
AcDbBlockReference
  2
_ARCHTICK
 10
-59.999996185302734
 20
-3448.738723039627
 30
0.0
 41
15.0
 42
15.0
 50
90.0
  0
LINE
  5
1D0
330
1C7
100
AcDbEntity
  8
0
100
AcDbLine
 10
-59.999996185302734
 20
-4044.634677171707
 30
0.0
 11
-59.999996185302734
 21
-3448.738723039627
 31
0.0
  0
MTEXT
  5
1D1
330
1C7
100
AcDbEntity
  8
KOTE
100
AcDbMText
 10
-72.59999618530273
 20
-3746.686700105667
 30
0.0
 40
25.0
 71
5
  1
59590
  7
OpenSansCondensed-Light
 50
90.0
  0
POINT
  5
1D2
330
1C7
100
AcDbEntity
  8
Defpoints
100
AcDbPoint
 10
-59.999996185302734
 20
-4044.634677171707
 30
0.0
  0
POINT
  5
1D3
330
1C7
100
AcDbEntity
  8
Defpoints
100
AcDbPoint
 10
-9.999996185302734
 20
-4044.634677171707
 30
0.0
  0
POINT
  5
1D4
330
1C7
100
AcDbEntity
  8
Defpoints
100
AcDbPoint
 10
-9.999996185302734
 20
-3448.738723039627
 30
0.0
  0
ENDBLK
  5
1C9
330
1C7
100
AcDbEntity
  8
0
100
AcDbBlockEnd
  0
BLOCK
  5
21E
330
21D
100
AcDbEntity
  8
0
100
AcDbBlockBegin
  2
*D12
 70
1
 10
0.0
 20
0.0
 30
0.0
  3
*D12
  1

  0
LINE
  5
220
330
21D
100
AcDbEntity
  8
0
100
AcDbLine
 10
-9.999996185302734
 20
-4339.634677171707
 30
0.0
 11
-9.999996185302734
 21
-4424.634677171707
 31
0.0
  0
LINE
  5
221
330
21D
100
AcDbEntity
  8
0
100
AcDbLine
 10
2577.6735623223954
 20
-4339.634677171707
 30
0.0
 11
2577.6735623223954
 21
-4424.634677171707
 31
0.0
  0
INSERT
  5
222
330
21D
100
AcDbEntity
  8
KOTE
100
AcDbBlockReference
  2
_ARCHTICK
 10
-9.999996185302734
 20
-4414.634677171707
 30
0.0
 41
15.0
 42
15.0
 50
180.0
  0
INSERT
  5
224
330
21D
100
AcDbEntity
  8
KOTE
100
AcDbBlockReference
  2
_ARCHTICK
 10
2577.6735623223954
 20
-4414.634677171707
 30
0.0
 41
15.0
 42
15.0
  0
LINE
  5
226
330
21D
100
AcDbEntity
  8
0
100
AcDbLine
 10
-9.999996185302734
 20
-4414.634677171707
 30
0.0
 11
2577.6735623223954
 21
-4414.634677171707
 31
0.0
  0
MTEXT
  5
227
330
21D
100
AcDbEntity
  8
KOTE
100
AcDbMText
 10
1283.8367830685463
 20
-4402.034677171707
 30
0.0
 40
25.0
 71
5
  1
258767
  7
OpenSansCondensed-Light
  0
POINT
  5
228
330
21D
100
AcDbEntity
  8
Defpoints
100
AcDbPoint
 10
-9.999996185302734
 20
-4414.634677171707
 30
0.0
  0
POINT
  5
229
330
21D
100
AcDbEntity
  8
Defpoints
100
AcDbPoint
 10
-9.999996185302734
 20
-4334.634677171707
 30
0.0
  0
POINT
  5
22A
330
21D
100
AcDbEntity
  8
Defpoints
100
AcDbPoint
 10
2577.6735623223954
 20
-4334.634677171707
 30
0.0
  0
ENDBLK
  5
21F
330
21D
100
AcDbEntity
  8
0
100
AcDbBlockEnd
  0
ENDSEC
  0
SECTION
  2
ENTITIES
  0
LWPOLYLINE
  5
8E
330
17
100
AcDbEntity
  8
KLUP LICE KONTURA
100
AcDbPolyline
 90
246
 70
1
 10
1.3907078639177826
 20
8.075942879179099
 10
142.37020778656006
 20
6.088505387306213
 10
149.97677516937256
 20
7.037309050559998
 10
161.96180629730225
 20
7.06788182258606
 10
170.57237148284912
 20
6.128825306892395
 10
189.11044216156006
 20
5.786783933639526
 10
202.31913661956787
 20
6.782714009284973
 10
222.47180080413818
 20
5.075818003620952
 10
230.09310817718506
 20
5.988606810569763
 10
240.044508934021
 20
6.1046059131622314
 10
245.63255214691162
 20
6.78082811832428
 10
262.82060146331787
 20
5.083352946676314
 10
281.80277919769287
 20
5.097023284062743
 10
290.39982509613037
 20
6.058284282684326
 10
307.62159633636475
 20
4.499431610107422
 10
314.1586751937866
 20
5.06200319994241
 10
364.4897298812866
 20
5.043578801676631
 10
387.28251552581787
 20
2.6294033527374268
 10
406.39848232269287
 20
4.011593461036682
 10
412.042555809021
 20
3.153555154800415
 10
418.92762660980225
 20
2.8769636154174805
 10
431.69081020355225
 20
0.0
 10
437.8671407699585
 20
0.248046875
 10
448.1303243637085
 20
4.42617791891098
 10
460.8598165512085
 20
7.491701126098633
 10
463.4135274887085
 20
8.56871771812439
 10
479.7272481918335
 20
19.87974262237549
 10
487.84425258636475
 20
24.410984992980957
 10
489.94901943206787
 20
26.280455589294434
 10
491.89250087738037
 20
29.45152759552002
 10
492.8935079574585
 20
33.03664684295654
 10
493.0753927230835
 20
44.960686683654785
 10
494.91468715667725
 20
56.19819736480713
 10
495.03126430511475
 20
68.14927005767822
 10
495.97730922698975
 20
75.75676822662354
 10
495.8332052230835
 20
80.68272495269775
 10
493.12687587738037
 20
94.56095218658447
 10
492.0033712387085
 20
103.09510135650635
 10
492.081618309021
 20
112.05494785308838
 10
493.8222188949585
 20
122.33338260650635
 10
494.10401821136475
 20
130.21624088287354
 10
495.92692470550537
 20
141.4605417251587
 10
495.9765157699585
 20
152.42445468902588
 10
494.05445766448975
 20
165.62757968902588
 10
493.84522914886475
 20
182.54002475738525
 10
491.0196371078491
 20
198.3687448501587
 10
491.0438070297241
 20
209.33738803863525
 10
492.96827602386475
 20
226.5225534439087
 10
491.127516746521
 20
238.7543649673462
 10
490.927321434021
 20
247.67096042633057
 10
490.021071434021
 20
254.2952127456665
 10
490.0390157699585
 20
262.2654275894165
 10
490.951003074646
 20
268.88731479644775
 10
490.9195394515991
 20
284.837327003479
 10
490.01783657073975
 20
291.46345615386963
 10
490.01319789886475
 20
303.44551181793213
 10
490.9921407699585
 20
314.037766456604
 10
490.05348110198975
 20
322.648118019104
 10
490.00074672698975
 20
327.62092685699463
 10
490.91667079925537
 20
335.2411050796509
 10
491.0970296859741
 20
343.16597080230713
 10
491.946120262146
 20
348.8139810562134
 10
491.987380027771
 20
354.79060459136963
 10
491.0192403793335
 20
363.38911533355713
 10
490.94401454925537
 20
377.3572244644165
 10
490.006178855896
 20
384.96833896636963
 10
490.02308559417725
 20
407.95051670074463
 10
490.9319906234741
 20
414.5735025405884
 10
490.93400478363037
 20
418.522629737854
 10
490.07594203948975
 20
424.16670322418213
 10
489.90211391448975
 20
435.0941324234009
 10
488.06816005706787
 20
449.33369541168213
 10
487.9489583969116
 20
474.2830057144165
 10
487.10279750823975
 20
479.93220615386963
 10
486.9186849594116
 20
488.8554849624634
 10
486.01747035980225
 20
495.48179721832275
 10
486.0136556625366
 20
514.4634256362915
 10
486.9853353500366
 20
523.0605020523071
 10
486.9643087387085
 20
568.0417642593384
 10
485.0222005844116
 20
586.2362833023071
 10
484.981764793396
 20
605.2185831069946
 10
484.042067527771
 20
612.8289346694946
 10
483.9223165512085
 20
633.7782144546509
 10
482.00578212738037
 20
646.9835977554321
 10
482.0233907699585
 20
667.9659585952759
 10
482.9887228012085
 20
676.5656290054321
 10
482.9943685531616
 20
733.5601358413696
 10
482.0030355453491
 20
745.1488809585571
 10
481.959303855896
 20
797.1280069351196
 10
479.21925258636475
 20
812.9922037124634
 10
478.9181661605835
 20
821.8669595718384
 10
478.059889793396
 20
827.5111856460571
 10
478.0519552230835
 20
849.4591836929321
 10
479.9666585922241
 20
864.6465005874634
 10
478.04106044769287
 20
877.8437662124634
 10
477.921462059021
 20
914.7923135757446
 10
475.13981533050537
 20
929.6392984390259
 10
474.97340297698975
 20
949.5692911148071
 10
474.02336025238037
 20
957.1753702163696
 10
474.03117275238037
 20
966.1477823257446
 10
474.98844814300537
 20
974.7495279312134
 10
474.0667562484741
 20
983.3634805679321
 10
474.0422201156616
 20
992.3133707046509
 10
475.8427267074585
 20
1003.5667886734009
 10
475.93485927581787
 20
1007.4803018569946
 10
474.1307210922241
 20
1018.7312173843384
 10
473.83891201019287
 20
1026.6098794937134
 10
470.08586025238037
 20
1046.0542764663696
 10
470.0241231918335
 20
1061.0033731460571
 10
470.934645652771
 20
1067.6259317398071
 10
471.0573568344116
 20
1074.5746622085571
 10
471.91554164886475
 20
1080.2188272476196
 10
471.9561605453491
 20
1084.1703653335571
 10
471.044508934021
 20
1090.7920694351196
 10
470.9240255355835
 20
1103.7415323257446
 10
470.065749168396
 20
1109.3856973648071
 10
469.9455099105835
 20
1124.3350381851196
 10
468.0579671859741
 20
1138.5524454116821
 10
467.9352560043335
 20
1153.5008096694946
 10
465.1652364730835
 20
1169.3524942398071
 10
464.7344808578491
 20
1177.1736612319946
 10
462.3456869125366
 20
1184.1837930679321
 10
460.4131917953491
 20
1193.3827676773071
 10
457.04872035980225
 20
1201.9887247085571
 10
455.5473165512085
 20
1207.3665323257446
 10
454.12443447113037
 20
1215.7765665054321
 10
453.6428060531616
 20
1224.5766153335571
 10
451.24882411956787
 20
1231.5846719741821
 10
447.82182216644287
 20
1245.1642618179321
 10
444.802809715271
 20
1252.9132852554321
 10
439.41139125823975
 20
1263.6795206069946
 10
429.023512840271
 20
1282.3754434585571
 10
420.207350730896
 20
1296.7227334976196
 10
411.61137294769287
 20
1308.1613321304321
 10
401.060133934021
 20
1324.7897500991821
 10
396.22474575042725
 20
1329.7113809585571
 10
391.66432094573975
 20
1333.1859903335571
 10
375.67985439300537
 20
1342.8778848648071
 10
363.1160726547241
 20
1348.7575235366821
 10
322.65919399261475
 20
1369.3762979507446
 10
316.25086879730225
 20
1370.8037881851196
 10
309.48853969573975
 20
1371.3766641616821
 10
301.3146810531616
 20
1373.3700723648071
 10
291.06434535980225
 20
1377.5926065444946
 10
276.3861837387085
 20
1380.7816934585571
 10
263.0049886703491
 20
1382.2738809585571
 10
253.67991542816162
 20
1383.9020547866821
 10
243.76917934417725
 20
1384.1162881851196
 10
226.55229091644287
 20
1386.0045938491821
 10
215.60369777679443
 20
1386.1273965835571
 10
209.01672267913818
 20
1386.9550333023071
 10
203.3852071762085
 20
1386.1273965835571
 10
194.43650722503662
 20
1386.0045938491821
 10
178.19061183929443
 20
1384.1862344741821
 10
162.26988124847412
 20
1383.9969034194946
 10
147.02995204925537
 20
1382.1638956069946
 10
141.10270595550537
 20
1381.9890909194946
 10
115.901686668396
 20
1377.6493692398071
 10
111.41467189788818
 20
1376.4114542007446
 10
96.97267818450928
 20
1370.2381143569946
 10
90.13486385345459
 20
1365.0207071304321
 10
87.3505163192749
 20
1362.2834024429321
 10
85.31062984466553
 20
1359.1297159194946
 10
81.53349208831787
 20
1350.6949014663696
 10
74.97283840179443
 20
1339.4130411148071
 10
69.34011745452881
 20
1320.7473917007446
 10
68.76820278167725
 20
1313.9845743179321
 10
64.16266536712646
 20
1287.8937540054321
 10
61.752936363220215
 20
1270.8927774429321
 10
60.2905797958374
 20
1264.4988565444946
 10
59.71456050872803
 20
1257.7378702163696
 10
57.166937828063965
 20
1244.7939004898071
 10
56.76286602020264
 20
1237.9616250991821
 10
53.27548885345459
 20
1218.4071817398071
 10
51.784667015075684
 20
1207.0253458023071
 10
45.31556224822998
 20
1180.7064981460571
 10
41.27219295501709
 20
1158.3825235366821
 10
39.04183101654053
 20
1138.3074502944946
 10
38.827853202819824
 20
1123.3969278335571
 10
34.12255001068115
 20
1099.3472452163696
 10
33.067179679870605
 20
1088.7849893569946
 10
32.876906394958496
 20
1081.8642129898071
 10
30.078368186950684
 20
1057.0247354507446
 10
29.909085273742676
 20
1038.0959024429321
 10
27.10989475250244
 20
1023.2561807632446
 10
26.921076774597168
 20
1005.3353433609009
 10
25.86435604095459
 20
994.7735757827759
 10
24.054980278015137
 20
983.5236978530884
 10
23.846821784973145
 20
969.6106729507446
 10
20.212313652038574
 20
946.1174478530884
 10
19.916646003723145
 20
939.2402505874634
 10
18.077351570129395
 20
924.0029458999634
 10
17.906153678894043
 20
907.0747842788696
 10
16.16602611541748
 20
896.7960977554321
 10
15.883772850036621
 20
890.9133462905884
 10
15.106684684753418
 20
886.2354898452759
 10
14.920042991638184
 20
879.3131875991821
 10
13.084308624267578
 20
864.0744180679321
 10
12.91226863861084
 20
846.1466226577759
 10
9.845518112182617
 20
825.4180459976196
 10
8.209160804748535
 20
818.0962686538696
 10
7.815704345703125
 20
803.2600259780884
 10
5.126407146453857
 20
789.3747720718384
 10
4.926830291748047
 20
767.4585733413696
 10
3.037452220916748
 20
755.2418375015259
 10
2.9676568508148193
 20
733.2719278335571
 10
2.017620086669922
 20
725.6658487319946
 10
1.9384891986846924
 20
706.6996011734009
 10
0.0
 20
692.5033731460571
 10
0.0168076753616333
 20
666.5161905288696
 10
0.9942525625228882
 20
655.9215860366821
 10
0.9544460773468018
 20
644.9389810562134
 10
0.020926713943481445
 20
635.3472452163696
 10
0.9248912334442139
 20
628.7227945327759
 10
1.1205215454101562
 20
611.8047037124634
 10
2.9886927604675293
 20
598.5792398452759
 10
2.9888575077056885
 20
541.5870523452759
 10
2.023804187774658
 20
532.9872598648071
 10
2.0052554607391357
 20
517.0046243667603
 10
3.921332359313965
 20
503.79902744293213
 10
3.993757724761963
 20
489.83043003082275
 10
3.007917881011963
 20
479.23936557769775
 10
2.967381000518799
 20
452.25755405426025
 10
2.0173439979553223
 20
444.6515054702759
 10
1.9754014015197754
 20
390.67170810699463
 10
0.9967169761657715
 20
381.07762241363525
 10
1.0784385204315186
 20
375.1135416030884
 10
1.8551304340362549
 20
370.43553256988525
 10
2.0594396591186523
 20
362.52058506011963
 10
2.9177207946777344
 20
356.876389503479
 10
2.9935789108276367
 20
352.9085855484009
 10
1.9947195053100586
 20
339.32334995269775
 10
2.0202889442443848
 20
316.3352518081665
 10
2.925462245941162
 20
309.71055698394775
 10
2.977323055267334
 20
298.74690341949463
 10
2.0899271965026855
 20
292.11485385894775
 10
1.965639352798462
 20
278.16706943511963
 10
1.0003974437713623
 20
269.56733798980713
 10
1.000382423400879
 20
217.574875831604
 10
1.9141089916229248
 20
209.95376682281494
 10
1.8995347023010254
 20
198.02710056304932
 10
1.0467076301574707
 20
192.38067722320557
 10
1.0014350414276123
 20
185.40547275543213
 10
2.889063596725464
 20
172.1880807876587
 10
2.986672878265381
 20
165.23542881011963
 10
1.7218644618988037
 20
155.7598581314087
  0
LWPOLYLINE
  5
8F
330
17
100
AcDbEntity
  8
KLUP LICE OFFSET
100
AcDbPolyline
 90
253
 70
1
 10
-0.6837595403194427
 20
-1.7065200805664062
 10
-3.696892023086548
 20
-0.5331411361694336
 10
-6.178076267242432
 20
1.5403854846954346
 10
-7.867884159088135
 20
4.297255992889404
 10
-8.609266757965088
 20
8.098366260528564
 10
-8.27811050415039
 20
155.78228855133057
 10
-7.0226593017578125
 20
165.82997226715088
 10
-7.1009674072265625
 20
171.4078073501587
 10
-8.998354434967041
 20
185.470383644104
 10
-8.922733306884766
 20
193.16186618804932
 10
-8.099547863006592
 20
198.784104347229
 10
-8.086620807647705
 20
209.3625192642212
 10
-8.999617576599121
 20
217.574875831604
 10
-8.999602317810059
 20
269.56733798980713
 10
-8.029376983642578
 20
278.770920753479
 10
-7.884904861450195
 20
292.8238687515259
 10
-7.025827884674072
 20
299.3894205093384
 10
-7.071321487426758
 20
309.007004737854
 10
-7.979704856872559
 20
316.324143409729
 10
-8.005274295806885
 20
339.31224155426025
 10
-7.013442039489746
 20
353.1802225112915
 10
-7.067837715148926
 20
356.0254373550415
 10
-7.90155029296875
 20
361.63816928863525
 10
-8.123612403869629
 20
369.48298740386963
 10
-8.881879806518555
 20
374.223557472229
 10
-9.002344608306885
 20
380.940598487854
 10
-8.024203300476074
 20
391.18431186676025
 10
-7.9826531410217285
 20
444.65928745269775
 10
-7.031684398651123
 20
452.887131690979
 10
-6.99207067489624
 20
479.25438022613525
 10
-6.008650302886963
 20
490.268967628479
 10
-6.074926376342773
 20
503.0515298843384
 10
-7.99473762512207
 20
517.0162210464478
 10
-7.960263729095459
 20
533.5515298843384
 10
-7.011144161224365
 20
542.1463785171509
 10
-7.011305332183838
 20
597.8764200210571
 10
-8.850654125213623
 20
611.0459756851196
 10
-9.067258834838867
 20
627.9861001968384
 10
-9.977210998535156
 20
635.1542520523071
 10
-9.043794631958008
 20
645.4425210952759
 10
-9.007415771484375
 20
655.4793252944946
 10
-9.983190536499023
 20
666.5097208023071
 10
-9.977206230163574
 20
693.1781778335571
 10
-8.058675765991211
 20
707.3999795913696
 10
-7.96176815032959
 20
726.3075723648071
 10
-7.030366897583008
 20
733.9098672866821
 10
-6.962497234344482
 20
755.2735757827759
 10
-5.066172122955322
 20
768.2725381851196
 10
-4.8492138385772705
 20
790.0725870132446
 10
-2.1588869094848633
 20
804.3507242202759
 10
-1.6702997088432312
 20
819.6442422866821
 10
0.006636977195739746
 20
827.2428140640259
 10
2.9193263053894043
 20
846.9300699234009
 10
3.1052584648132324
 20
864.7213907241821
 10
4.936208724975586
 20
880.0475625991821
 10
5.152524948120117
 20
887.1919107437134
 10
5.923253059387207
 20
891.9759683609009
 10
6.224099636077881
 20
897.8722696304321
 10
7.914649963378906
 20
907.9654703140259
 10
8.09854793548584
 20
924.6537027359009
 10
9.942455291748047
 20
940.0554361343384
 10
10.260517120361328
 20
947.0981607437134
 10
13.858319282531738
 20
970.4539346694946
 10
14.092988014221191
 20
984.3947305679321
 10
15.943785667419434
 20
996.0664834976196
 10
16.9263334274292
 20
1005.8869180679321
 10
17.13380718231201
 20
1023.9473428726196
 10
19.91744327545166
 20
1039.0751504898071
 10
20.096705436706543
 20
1057.6300821304321
 10
22.89233112335205
 20
1082.5626993179321
 10
23.11672878265381
 20
1089.7792520523071
 10
24.172099113464355
 20
1100.3415079116821
 10
28.841750144958496
 20
1124.4369668960571
 10
29.10298252105713
 20
1139.4116983413696
 10
31.432291984558105
 20
1160.1647500991821
 10
35.60460948944092
 20
1183.0934610366821
 10
41.94137096405029
 20
1208.8738565444946
 10
43.43082332611084
 20
1220.1629190444946
 10
46.815009117126465
 20
1239.1387491226196
 10
47.24709987640381
 20
1246.0575723648071
 10
49.79711437225342
 20
1259.1320352554321
 10
50.410338401794434
 20
1266.0418252944946
 10
51.910902976989746
 20
1272.7124795913696
 10
54.314913749694824
 20
1289.6320352554321
 10
58.841864585876465
 20
1315.2776651382446
 10
59.58885860443115
 20
1322.9639444351196
 10
65.80123805999756
 20
1343.3982706069946
 10
72.6229772567749
 20
1355.2646036148071
 10
76.5232458114624
 20
1363.9027872085571
 10
79.37396907806396
 20
1368.3145303726196
 10
83.58373928070068
 20
1372.5760049819946
 10
91.93575954437256
 20
1378.8769083023071
 10
108.75514888763428
 20
1386.0513467788696
 10
114.20462703704834
 20
1387.5043497085571
 10
140.10429286956787
 20
1391.9391641616821
 10
146.2839651107788
 20
1392.1461954116821
 10
161.61239528656006
 20
1393.9752969741821
 10
177.57347011566162
 20
1394.1796426773071
 10
193.32418727874756
 20
1395.9425821304321
 10
202.5860891342163
 20
1396.1173868179321
 10
208.91207790374756
 20
1396.9545450210571
 10
216.2853078842163
 20
1396.1204385757446
 10
227.6425313949585
 20
1395.9450235366821
 10
244.4236135482788
 20
1394.1044473648071
 10
254.65074062347412
 20
1393.8548135757446
 10
264.420485496521
 20
1392.1780557632446
 10
278.50932216644287
 20
1390.5536661148071
 10
293.75941371917725
 20
1387.2226114273071
 10
304.4215841293335
 20
1382.9054727554321
 10
311.10490322113037
 20
1381.2755899429321
 10
318.425124168396
 20
1380.5645303726196
 10
326.62965297698975
 20
1378.5542764663696
 10
367.5070333480835
 20
1357.7434854507446
 10
380.864577293396
 20
1351.4287881851196
 10
397.29481410980225
 20
1341.4502725601196
 10
402.83854579925537
 20
1337.2118692398071
 10
408.193434715271
 20
1331.7980508804321
 10
409.503737449646
 20
1330.1475381851196
 10
419.84318447113037
 20
1313.8528604507446
 10
428.727370262146
 20
1301.9580850601196
 10
437.543532371521
 20
1287.6107950210571
 10
448.15272426605225
 20
1268.5364542007446
 10
454.12061977386475
 20
1256.5435342788696
 10
457.3471212387085
 20
1248.2086954116821
 10
460.84449672698975
 20
1234.4292764663696
 10
463.3052816390991
 20
1227.1527872085571
 10
464.0785970687866
 20
1216.8874063491821
 10
465.31983852386475
 20
1209.5511026382446
 10
466.5452718734741
 20
1205.1618204116821
 10
469.91346645355225
 20
1196.5044717788696
 10
472.007155418396
 20
1186.8341836929321
 10
474.5512533187866
 20
1179.0791788101196
 10
475.1176290512085
 20
1170.4921426773071
 10
477.91532802581787
 20
1154.1317911148071
 10
478.05253505706787
 20
1139.2542276382446
 10
479.9210042953491
 20
1125.0346231460571
 10
480.0596761703491
 20
1110.1815958023071
 10
480.8919515609741
 20
1104.5417032241821
 10
481.03813076019287
 20
1091.5235147476196
 10
481.9361410140991
 20
1084.8026895523071
 10
481.88310146331787
 20
1079.4138956069946
 10
481.044020652771
 20
1073.7310342788696
 10
480.9048910140991
 20
1066.8553018569946
 10
480.0269613265991
 20
1060.3396768569946
 10
480.08192348480225
 20
1047.0309610366821
 10
483.77418422698975
 20
1027.7458658218384
 10
484.1012716293335
 20
1019.7115640640259
 10
485.92790126800537
 20
1007.8532876968384
 10
485.8012533187866
 20
1002.6571207046509
 10
484.0443868637085
 20
991.5320596694946
 10
484.0652914047241
 20
983.9105997085571
 10
484.9826192855835
 20
975.0906534194946
 10
484.03068447113037
 20
965.5887002944946
 10
484.0239095687866
 20
957.7931680679321
 10
484.95143032073975
 20
950.2318887710571
 10
485.1320638656616
 20
930.6093912124634
 10
487.90104579925537
 20
915.4308023452759
 10
488.03871059417725
 20
878.5855875015259
 10
489.9661703109741
 20
864.7438516616821
 10
488.05216884613037
 20
848.8330850601196
 10
488.05961513519287
 20
828.2689371109009
 10
488.87550258636475
 20
822.7897500991821
 10
489.19023036956787
 20
814.0175333023071
 10
491.959303855896
 20
797.1364297866821
 10
492.0026693344116
 20
745.5800333023071
 10
492.9943685531616
 20
733.5591592788696
 10
492.9887228012085
 20
676.5646524429321
 10
492.0229330062866
 20
667.4022989273071
 10
492.00639247894287
 20
647.7013101577759
 10
493.8942708969116
 20
634.5267496109009
 10
494.0385580062866
 20
613.4724283218384
 10
494.98173427581787
 20
605.2398843765259
 10
495.021071434021
 20
586.7790689468384
 10
496.9500570297241
 20
568.5755167007446
 10
496.9853353500366
 20
523.0652017593384
 10
496.0137777328491
 20
513.9011087417603
 10
496.01734828948975
 20
496.1597146987915
 10
496.88835048675537
 20
489.633713722229
 10
497.08744716644287
 20
480.779465675354
 10
497.9195394515991
 20
475.04954624176025
 10
498.06510829925537
 20
449.9987955093384
 10
499.8762044906616
 20
435.8134927749634
 10
500.0639181137085
 20
425.00154209136963
 10
500.9057455062866
 20
419.2737283706665
 10
500.90858364105225
 20
413.889573097229
 10
500.02259731292725
 20
407.26387119293213
 10
500.00663661956787
 20
385.57844638824463
 10
500.9235372543335
 20
377.9967203140259
 10
501.0162191390991
 20
363.97715854644775
 10
501.987135887146
 20
354.7215738296509
 10
501.91566371917725
 20
348.03416538238525
 10
501.0800313949585
 20
342.3054666519165
 10
500.91407680511475
 20
335.0135660171509
 10
500.00709438323975
 20
327.07493686676025
 10
500.0477132797241
 20
323.2444314956665
 10
500.9889669418335
 20
313.78535556793213
 10
500.0133810043335
 20
302.98631381988525
 10
500.0175619125366
 20
292.14268589019775
 10
500.919508934021
 20
284.85704135894775
 10
500.95097255706787
 20
268.9070291519165
 10
500.0374593734741
 20
261.56883335113525
 10
500.02259731292725
 20
254.96487522125244
 10
500.8959798812866
 20
248.46218967437744
 10
501.11073207855225
 20
239.61412143707275
 10
502.96647548675537
 20
226.71179294586182
 10
501.0425863265991
 20
208.768235206604
 10
501.0215902328491
 20
199.24336338043213
 10
503.77104091644287
 20
183.7559061050415
 10
504.0455160140991
 20
166.41314792633057
 10
505.9764242172241
 20
152.37922763824463
 10
505.8928060531616
 20
140.63527011871338
 10
504.075270652771
 20
129.23363590240479
 10
503.7704916000366
 20
121.31770420074463
 10
502.074294090271
 20
111.17086887359619
 10
502.009108543396
 20
103.70702457427979
 10
503.001051902771
 20
96.17209720611572
 10
505.77174282073975
 20
81.7896203994751
 10
505.97303676605225
 20
76.04918003082275
 10
505.025221824646
 20
67.48130130767822
 10
504.87773036956787
 20
55.33930683135986
 10
503.06300258636475
 20
44.07201099395752
 10
502.6779317855835
 20
30.97140407562256
 10
500.76039028167725
 20
24.82978343963623
 10
498.15251064300537
 20
20.5618257522583
 10
496.5898275375366
 20
18.803834915161133
 10
493.33720302581787
 20
16.054694175720215
 10
485.0258321762085
 20
11.384969234466553
 10
468.5308675765991
 20
-0.02272939682006836
 10
463.98377895355225
 20
-2.0078134536743164
 10
451.20353603363037
 20
-5.119614601135254
 10
440.98731899261475
 20
-9.252714157104492
 10
438.2684164047241
 20
-9.743898391723633
 10
430.78422451019287
 20
-9.958820343017578
 10
417.6166830062866
 20
-7.078437805175781
 10
411.08891201019287
 20
-6.800868034362793
 10
406.0026693344116
 20
-6.0431318283081055
 10
386.8197774887085
 20
-7.359885215759277
 10
363.959792137146
 20
-4.956228256225586
 10
314.58634853363037
 20
-4.938154220581055
 10
307.3060140609741
 20
-5.495587348937988
 10
290.50575160980225
 20
-3.9921875
 10
282.36283779144287
 20
-4.88728141784668
 10
262.82780361175537
 20
-4.916644096374512
 10
245.74314785003662
 20
-3.278742790222168
 10
240.70443630218506
 20
-3.873594284057617
 10
230.74786281585693
 20
-4.0044403076171875
 10
222.30583095550537
 20
-4.922804832458496
 10
202.27279567718506
 20
-3.2491655349731445
 10
188.92596340179443
 20
-4.211514472961426
 10
170.3878927230835
 20
-3.8694725036621094
 10
161.43084621429443
 20
-2.933505058288574
 10
150.6107473373413
 20
-2.961106300354004
 10
142.22924709320068
 20
-3.910501480102539
  0
TEXT
  5
90
330
17
100
AcDbEntity
  8
KLUP LICE OFFSET
100
AcDbText
 10
247.99661684036255
 20
693.4978623390198
 30
0.0
 40
25.0
  1
KLUP LICE - OFFSET +10 mm
 72
1
 11
247.99661684036255
 21
693.4978623390198
 31
0.0
100
AcDbText
 73
2
  0
DIMENSION
  5
91
330
17
100
AcDbEntity
  8
KOTE
100
AcDbDimension
280
0
  2
*D1
  3
EZDXF
 10
-9.983190536499023
 20
-59.95882034301758
 30
0.0
 11
247.99661684036255
 21
-47.35882034301758
 31
0.0
 70
32
 71
5
  1
<>
100
AcDbAlignedDimension
 13
-9.983190536499023
 23
-9.958820343017578
 33
0.0
 14
505.9764242172241
 24
-9.958820343017578
 34
0.0
 50
0.0
100
AcDbRotatedDimension
1001
ACAD
1000
DSTYLE
1002
{
1070
140
1040
25.0
1070
41
1040
15.0
1070
271
1070
0
1070
44
1040
10.0
1070
42
1040
5.0
1002
}
  0
DIMENSION
  5
A0
330
17
100
AcDbEntity
  8
KOTE
100
AcDbDimension
280
0
  2
*D2
  3
EZDXF
 10
-59.98319053649902
 20
-9.958820343017578
 30
0.0
 11
-72.58319053649902
 21
693.4978623390198
 31
0.0
 70
32
 71
5
  1
<>
100
AcDbAlignedDimension
 13
-9.983190536499023
 23
-9.958820343017578
 33
0.0
 14
-9.983190536499023
 24
1396.9545450210571
 34
0.0
 50
90.0
100
AcDbRotatedDimension
1001
ACAD
1000
DSTYLE
1002
{
1070
140
1040
25.0
1070
41
1040
15.0
1070
271
1070
0
1070
44
1040
10.0
1070
42
1040
5.0
1002
}
  0
CIRCLE
  5
AF
330
17
100
AcDbEntity
  8
KLUP LICE TRAKA
100
AcDbCircle
 10
1.3907078639177826
 20
8.075942879179099
 30
0.0
 40
6.0
  0
TEXT
  5
B0
330
17
100
AcDbEntity
  8
KLUP LICE TRAKA
100
AcDbText
 10
11.390707863917783
 20
-11.924057120820901
 30
0.0
 40
10.0
  1
POČETAK TRAKE
 11
11.390707863917783
 21
-11.924057120820901
 31
0.0
100
AcDbText
  0
CIRCLE
  5
B1
330
17
100
AcDbEntity
  8
KLUP LICE TRAKA
100
AcDbCircle
 10
424.4569361858995
 20
1.630595704781061
 30
0.0
 40
4.0
  0
CIRCLE
  5
B2
330
17
100
AcDbEntity
  8
KLUP LICE TRAKA
100
AcDbCircle
 10
447.5035174225178
 20
4.171005484782192
 30
0.0
 40
4.0
  0
TEXT
  5
B3
330
17
100
AcDbEntity
  8
KLUP LICE TRAKA
100
AcDbText
 10
437.27146749803603
 20
0.22412411179411595
 30
0.0
 40
12.0
  1
U1
 72
1
 11
437.27146749803603
 21
0.22412411179411595
 31
0.0
100
AcDbText
 73
2
  0
CIRCLE
  5
B4
330
17
100
AcDbEntity
  8
KLUP LICE TRAKA
100
AcDbCircle
 10
478.58360649751194
 20
19.086805197405788
 30
0.0
 40
4.0
  0
CIRCLE
  5
B5
330
17
100
AcDbEntity
  8
KLUP LICE TRAKA
100
AcDbCircle
 10
493.04689385828397
 20
43.09235209215185
 30
0.0
 40
4.0
  0
TEXT
  5
B6
330
17
100
AcDbEntity
  8
KLUP LICE TRAKA
100
AcDbText
 10
490.2090775909267
 20
26.704778213797407
 30
0.0
 40
12.0
  1
U2
 72
1
 11
490.2090775909267
 21
26.704778213797407
 31
0.0
100
AcDbText
 73
2
  0
CIRCLE
  5
B7
330
17
100
AcDbEntity
  8
KLUP LICE TRAKA
100
AcDbCircle
 10
404.8590662905124
 20
1318.802753218826
 30
0.0
 40
4.0
  0
CIRCLE
  5
B8
330
17
100
AcDbEntity
  8
KLUP LICE TRAKA
100
AcDbCircle
 10
382.87576519530853
 20
1338.5147734452225
 30
0.0
 40
4.0
  0
TEXT
  5
B9
330
17
100
AcDbEntity
  8
KLUP LICE TRAKA
100
AcDbText
 10
396.21640262600675
 20
1329.7177376247823
 30
0.0
 40
12.0
  1
U3
 72
1
 11
396.21640262600675
 21
1329.7177376247823
 31
0.0
100
AcDbText
 73
2
  0
CIRCLE
  5
BA
330
17
100
AcDbEntity
  8
KLUP LICE TRAKA
100
AcDbCircle
 10
120.89773574400574
 20
1378.509709936316
 30
0.0
 40
4.0
  0
CIRCLE
  5
BB
330
17
100
AcDbEntity
  8
KLUP LICE TRAKA
100
AcDbCircle
 10
80.99638080128737
 20
1349.771271775936
 30
0.0
 40
4.0
  0
TEXT
  5
BC
330
17
100
AcDbEntity
  8
KLUP LICE TRAKA
100
AcDbText
 10
90.15865593429274
 20
1365.038861027056
 30
0.0
 40
12.0
  1
U4
 72
1
 11
90.15865593429274
 21
1365.038861027056
 31
0.0
100
AcDbText
 73
2
  0
CIRCLE
  5
BD
330
17
100
AcDbEntity
  8
KLUP LICE TRAKA
100
AcDbCircle
 10
1.4288289933282936
 20
25.076593566814864
 30
0.0
 40
4.0
  0
CIRCLE
  5
BE
330
17
100
AcDbEntity
  8
KLUP LICE TRAKA
100
AcDbCircle
 10
18.389712224402977
 20
7.83630194834109
 30
0.0
 40
4.0
  0
TEXT
  5
BF
330
17
100
AcDbEntity
  8
KLUP LICE TRAKA
100
AcDbText
 10
1.4131320576886712
 20
18.07632563661187
 30
0.0
 40
12.0
  1
U5
 72
1
 11
1.4131320576886712
 21
18.07632563661187
 31
0.0
100
AcDbText
 73
2
  0
LWPOLYLINE
  5
C0
330
17
100
AcDbEntity
  8
KLUP LICE TRAKA
100
AcDbPolyline
 90
4
 70
1
 10
-9.983190536499023
 20
-209.95882034301758
 10
3504.160145053459
 20
-209.95882034301758
 10
3504.160145053459
 20
-299.9588203430176
 10
-9.983190536499023
 20
-299.9588203430176
  0
TEXT
  5
C1
330
17
100
AcDbEntity
  8
KLUP LICE TRAKA
100
AcDbText
 10
-9.983190536499023
 20
-194.95882034301758
 30
0.0
 40
12.0
  1
KLUP LICE - TRAKA 90 x 3514 mm  (opseg konture; početak = točka konture najbliža ishodištu, smjer CCW)
 11
-9.983190536499023
 21
-194.95882034301758
 31
0.0
100
AcDbText
  0
LINE
  5
C2
330
17
100
AcDbEntity
  8
KLUP LICE TRAKA
100
AcDbLine
 10
-9.983190536499023
 20
-209.95882034301758
 30
0.0
 11
-9.983190536499023
 21
-299.9588203430176
 31
0.0
  0
TEXT
  5
C3
330
17
100
AcDbEntity
  8
KLUP LICE TRAKA
100
AcDbText
 10
-6.983190536499023
 20
-304.9588203430176
 30
0.0
 40
8.0
  1
POČETAK 0
 50
90.0
 11
-6.983190536499023
 21
-304.9588203430176
 31
0.0
100
AcDbText
 73
3
  0
LINE
  5
C4
330
17
100
AcDbEntity
  8
KLUP LICE TRAKA
100
AcDbLine
 10
414.016809463501
 20
-209.95882034301758
 30
0.0
 11
414.016809463501
 21
-299.9588203430176
 31
0.0
  0
TEXT
  5
C5
330
17
100
AcDbEntity
  8
KLUP LICE TRAKA
100
AcDbText
 10
417.016809463501
 20
-304.9588203430176
 30
0.0
 40
8.0
  1
U1 poč 424
 50
90.0
 11
417.016809463501
 21
-304.9588203430176
 31
0.0
100
AcDbText
 73
3
  0
LINE
  5
C6
330
17
100
AcDbEntity
  8
KLUP LICE TRAKA
100
AcDbLine
 10
427.016809463501
 20
-209.95882034301758
 30
0.0
 11
427.016809463501
 21
-239.95882034301758
 31
0.0
  0
TEXT
  5
C7
330
17
100
AcDbEntity
  8
KLUP LICE TRAKA
100
AcDbText
 10
430.016809463501
 20
-304.9588203430176
 30
0.0
 40
8.0
  1
U1 vrh 437
 50
90.0
 11
430.016809463501
 21
-304.9588203430176
 31
0.0
100
AcDbText
 73
3
  0
LINE
  5
C8
330
17
100
AcDbEntity
  8
KLUP LICE TRAKA
100
AcDbLine
 10
438.016809463501
 20
-209.95882034301758
 30
0.0
 11
438.016809463501
 21
-299.9588203430176
 31
0.0
  0
TEXT
  5
C9
330
17
100
AcDbEntity
  8
KLUP LICE TRAKA
100
AcDbText
 10
441.016809463501
 20
-304.9588203430176
 30
0.0
 40
8.0
  1
U1 kraj 448
 50
90.0
 11
441.016809463501
 21
-304.9588203430176
 31
0.0
100
AcDbText
 73
3
  0
LINE
  5
CA
330
17
100
AcDbEntity
  8
KLUP LICE TRAKA
100
AcDbLine
 10
473.016809463501
 20
-209.95882034301758
 30
0.0
 11
473.016809463501
 21
-299.9588203430176
 31
0.0
  0
TEXT
  5
CB
330
17
100
AcDbEntity
  8
KLUP LICE TRAKA
100
AcDbText
 10
476.016809463501
 20
-304.9588203430176
 30
0.0
 40
8.0
  1
U2 poč 483
 50
90.0
 11
476.016809463501
 21
-304.9588203430176
 31
0.0
100
AcDbText
 73
3
  0
LINE
  5
CC
330
17
100
AcDbEntity
  8
KLUP LICE TRAKA
100
AcDbLine
 10
487.016809463501
 20
-209.95882034301758
 30
0.0
 11
487.016809463501
 21
-239.95882034301758
 31
0.0
  0
TEXT
  5
CD
330
17
100
AcDbEntity
  8
KLUP LICE TRAKA
100
AcDbText
 10
490.016809463501
 20
-304.9588203430176
 30
0.0
 40
8.0
  1
U2 vrh 497
 50
90.0
 11
490.016809463501
 21
-304.9588203430176
 31
0.0
100
AcDbText
 73
3
  0
LINE
  5
CE
330
17
100
AcDbEntity
  8
KLUP LICE TRAKA
100
AcDbLine
 10
504.016809463501
 20
-209.95882034301758
 30
0.0
 11
504.016809463501
 21
-299.9588203430176
 31
0.0
  0
TEXT
  5
CF
330
17
100
AcDbEntity
  8
KLUP LICE TRAKA
100
AcDbText
 10
507.016809463501
 20
-304.9588203430176
 30
0.0
 40
8.0
  1
U2 kraj 514
 50
90.0
 11
507.016809463501
 21
-304.9588203430176
 31
0.0
100
AcDbText
 73
3
  0
LINE
  5
D0
330
17
100
AcDbEntity
  8
KLUP LICE TRAKA
100
AcDbLine
 10
1799.016809463501
 20
-209.95882034301758
 30
0.0
 11
1799.016809463501
 21
-299.9588203430176
 31
0.0
  0
TEXT
  5
D1
330
17
100
AcDbEntity
  8
KLUP LICE TRAKA
100
AcDbText
 10
1802.016809463501
 20
-304.9588203430176
 30
0.0
 40
8.0
  1
U3 poč 1809
 50
90.0
 11
1802.016809463501
 21
-304.9588203430176
 31
0.0
100
AcDbText
 73
3
  0
LINE
  5
D2
330
17
100
AcDbEntity
  8
KLUP LICE TRAKA
100
AcDbLine
 10
1813.016809463501
 20
-209.95882034301758
 30
0.0
 11
1813.016809463501
 21
-239.95882034301758
 31
0.0
  0
TEXT
  5
D3
330
17
100
AcDbEntity
  8
KLUP LICE TRAKA
100
AcDbText
 10
1816.016809463501
 20
-304.9588203430176
 30
0.0
 40
8.0
  1
U3 vrh 1823
 50
90.0
 11
1816.016809463501
 21
-304.9588203430176
 31
0.0
100
AcDbText
 73
3
  0
LINE
  5
D4
330
17
100
AcDbEntity
  8
KLUP LICE TRAKA
100
AcDbLine
 10
1829.016809463501
 20
-209.95882034301758
 30
0.0
 11
1829.016809463501
 21
-299.9588203430176
 31
0.0
  0
TEXT
  5
D5
330
17
100
AcDbEntity
  8
KLUP LICE TRAKA
100
AcDbText
 10
1832.016809463501
 20
-304.9588203430176
 30
0.0
 40
8.0
  1
U3 kraj 1839
 50
90.0
 11
1832.016809463501
 21
-304.9588203430176
 31
0.0
100
AcDbText
 73
3
  0
LINE
  5
D6
330
17
100
AcDbEntity
  8
KLUP LICE TRAKA
100
AcDbLine
 10
2101.016809463501
 20
-209.95882034301758
 30
0.0
 11
2101.016809463501
 21
-299.9588203430176
 31
0.0
  0
TEXT
  5
D7
330
17
100
AcDbEntity
  8
KLUP LICE TRAKA
100
AcDbText
 10
2104.016809463501
 20
-304.9588203430176
 30
0.0
 40
8.0
  1
U4 poč 2111
 50
90.0
 11
2104.016809463501
 21
-304.9588203430176
 31
0.0
100
AcDbText
 73
3
  0
LINE
  5
D8
330
17
100
AcDbEntity
  8
KLUP LICE TRAKA
100
AcDbLine
 10
2135.016809463501
 20
-209.95882034301758
 30
0.0
 11
2135.016809463501
 21
-239.95882034301758
 31
0.0
  0
TEXT
  5
D9
330
17
100
AcDbEntity
  8
KLUP LICE TRAKA
100
AcDbText
 10
2138.016809463501
 20
-304.9588203430176
 30
0.0
 40
8.0
  1
U4 vrh 2145
 50
90.0
 11
2138.016809463501
 21
-304.9588203430176
 31
0.0
100
AcDbText
 73
3
  0
LINE
  5
DA
330
17
100
AcDbEntity
  8
KLUP LICE TRAKA
100
AcDbLine
 10
2153.016809463501
 20
-209.95882034301758
 30
0.0
 11
2153.016809463501
 21
-299.9588203430176
 31
0.0
  0
TEXT
  5
DB
330
17
100
AcDbEntity
  8
KLUP LICE TRAKA
100
AcDbText
 10
2156.016809463501
 20
-304.9588203430176
 30
0.0
 40
8.0
  1
U4 kraj 2163
 50
90.0
 11
2156.016809463501
 21
-304.9588203430176
 31
0.0
100
AcDbText
 73
3
  0
LINE
  5
DC
330
17
100
AcDbEntity
  8
KLUP LICE TRAKA
100
AcDbLine
 10
3487.016809463501
 20
-209.95882034301758
 30
0.0
 11
3487.016809463501
 21
-299.9588203430176
 31
0.0
  0
TEXT
  5
DD
330
17
100
AcDbEntity
  8
KLUP LICE TRAKA
100
AcDbText
 10
3490.016809463501
 20
-304.9588203430176
 30
0.0
 40
8.0
  1
U5 poč 3497
 50
90.0
 11
3490.016809463501
 21
-304.9588203430176
 31
0.0
100
AcDbText
 73
3
  0
LINE
  5
DE
330
17
100
AcDbEntity
  8
KLUP LICE TRAKA
100
AcDbLine
 10
3494.016809463501
 20
-209.95882034301758
 30
0.0
 11
3494.016809463501
 21
-239.95882034301758
 31
0.0
  0
TEXT
  5
DF
330
17
100
AcDbEntity
  8
KLUP LICE TRAKA
100
AcDbText
 10
3497.016809463501
 20
-304.9588203430176
 30
0.0
 40
8.0
  1
U5 vrh 3504
 50
90.0
 11
3497.016809463501
 21
-304.9588203430176
 31
0.0
100
AcDbText
 73
3
  0
LINE
  5
E0
330
17
100
AcDbEntity
  8
KLUP LICE TRAKA
100
AcDbLine
 10
7.016809463500977
 20
-209.95882034301758
 30
0.0
 11
7.016809463500977
 21
-299.9588203430176
 31
0.0
  0
TEXT
  5
E1
330
17
100
AcDbEntity
  8
KLUP LICE TRAKA
100
AcDbText
 10
10.016809463500977
 20
-304.9588203430176
 30
0.0
 40
8.0
  1
U5 kraj 17
 50
90.0
 11
10.016809463500977
 21
-304.9588203430176
 31
0.0
100
AcDbText
 73
3
  0
LINE
  5
E2
330
17
100
AcDbEntity
  8
KLUP LICE TRAKA
100
AcDbLine
 10
3504.160145053459
 20
-209.95882034301758
 30
0.0
 11
3504.160145053459
 21
-299.9588203430176
 31
0.0
  0
TEXT
  5
E3
330
17
100
AcDbEntity
  8
KLUP LICE TRAKA
100
AcDbText
 10
3507.160145053459
 20
-304.9588203430176
 30
0.0
 40
8.0
  1
KRAJ 3514
 50
90.0
 11
3507.160145053459
 21
-304.9588203430176
 31
0.0
100
AcDbText
 73
3
  0
DIMENSION
  5
E4
330
17
100
AcDbEntity
  8
KOTE
100
AcDbDimension
280
0
  2
*D3
  3
EZDXF
 10
-9.983190536499023
 20
-379.9588203430176
 30
0.0
 11
1747.08847725848
 21
-367.35882034301756
 31
0.0
 70
32
 71
5
  1
<>
100
AcDbAlignedDimension
 13
-9.983190536499023
 23
-299.9588203430176
 33
0.0
 14
3504.160145053459
 24
-299.9588203430176
 34
0.0
 50
0.0
100
AcDbRotatedDimension
1001
ACAD
1000
DSTYLE
1002
{
1070
140
1040
25.0
1070
41
1040
15.0
1070
271
1070
0
1070
44
1040
10.0
1070
42
1040
5.0
1002
}
  0
LWPOLYLINE
  5
F6
330
17
100
AcDbEntity
  8
MALA KUPA STOLA KONTURA
100
AcDbPolyline
 90
174
 70
1
 10
2.9866366386413574
 20
-1704.6557340621948
 10
3.095432758331299
 20
-1718.5668668746948
 10
4.201830863952637
 20
-1723.1083974838257
 10
5.616632461547852
 20
-1725.5222539901733
 10
10.504793167114258
 20
-1730.438738822937
 10
25.706504821777344
 20
-1742.0210371017456
 10
54.20974159240723
 20
-1755.2883462905884
 10
60.33669090270996
 20
-1757.395380973816
 10
65.78825950622559
 20
-1758.3840494155884
 10
73.2639217376709
 20
-1757.9871683120728
 10
79.89518547058105
 20
-1758.8736715316772
 10
88.51704216003418
 20
-1759.2110948562622
 10
103.01155662536621
 20
-1759.0047807693481
 10
109.63354301452637
 20
-1759.9167585372925
 10
118.58310508728027
 20
-1760.0377254486084
 10
124.22736930847168
 20
-1760.8960065841675
 10
132.1479549407959
 20
-1761.0869989395142
 10
155.06101036071777
 20
-1763.5353889465332
 10
159.5322780609131
 20
-1763.2573261260986
 10
165.13596153259277
 20
-1763.941309928894
 10
184.1063289642334
 20
-1764.0110988616943
 10
199.36635398864746
 20
-1765.5328359603882
 10
204.81854820251465
 20
-1765.1862001419067
 10
229.68810081481934
 20
-1767.8449087142944
 10
239.60739707946777
 20
-1768.0388588905334
 10
245.25165367126465
 20
-1768.897153377533
 10
253.8923397064209
 20
-1769.4079360961914
 10
259.4025020599365
 20
-1768.9894242286682
 10
277.3679256439209
 20
-1769.027681350708
 10
283.0122127532959
 20
-1769.885962486267
 10
293.9291744232178
 20
-1770.0384240150452
 10
300.7935543060303
 20
-1770.8792705535889
 10
307.703405380249
 20
-1771.0433402061462
 10
313.3399410247803
 20
-1771.8829560279846
 10
319.94208335876465
 20
-1771.0562677383423
 10
326.8710079193115
 20
-1771.0511627197266
 10
332.5152645111084
 20
-1771.9094438552856
 10
343.4640254974365
 20
-1772.0321662425995
 10
349.1082820892334
 20
-1772.8904540538788
 10
355.033239364624
 20
-1773.0710649490356
 10
359.7111873626709
 20
-1773.848116159439
 10
383.9991207122803
 20
-1775.795005634427
 10
389.611120223999
 20
-1775.0211884975433
 10
395.57904624938965
 20
-1774.9922022223473
 10
411.779088973999
 20
-1776.5742052197456
 10
418.8887691497803
 20
-1776.6964607834816
 10
424.4978084564209
 20
-1776.0528210029006
 10
430.1340389251709
 20
-1776.8916490077972
 10
435.0966854095459
 20
-1776.9550333023071
 10
446.6160945892334
 20
-1775.7959591895342
 10
451.0837154388428
 20
-1774.5111179351807
 10
458.33209800720215
 20
-1770.2831211090088
 10
464.823278427124
 20
-1764.2271375656128
 10
474.7947750091553
 20
-1756.9169187545776
 10
478.88214683532715
 20
-1752.7219552993774
 10
488.6694393157959
 20
-1730.7769765853882
 10
491.5372676849365
 20
-1719.9653158187866
 10
492.9281063079834
 20
-1709.5418348312378
 10
492.8765621185303
 20
-1686.569254875183
 10
490.95355796813965
 20
-1673.3662977218628
 10
490.9571895599365
 20
-1657.384280204773
 10
491.9333553314209
 20
-1646.7896223068237
 10
490.980260848999
 20
-1637.1850385665894
 10
490.8609371185303
 20
-1623.234980583191
 10
489.958288192749
 20
-1616.6091413497925
 10
489.987585067749
 20
-1601.6416273117065
 10
490.8702449798584
 20
-1595.0317792892456
 10
488.96295738220215
 20
-1581.851191520691
 10
488.9228572845459
 20
-1528.86976146698
 10
487.985143661499
 20
-1521.258463859558
 10
487.8644161224365
 20
-1499.3092908859253
 10
486.959753036499
 20
-1492.6842908859253
 10
486.91864585876465
 20
-1397.7048292160034
 10
484.9565486907959
 20
-1383.5181226730347
 10
484.9930477142334
 20
-1374.5519361495972
 10
486.84918785095215
 20
-1357.3764905929565
 10
484.97907066345215
 20
-1345.167140007019
 10
484.907995223999
 20
-1306.1980237960815
 10
484.0018672943115
 20
-1299.573603630066
 10
483.88007164001465
 20
-1280.6247510910034
 10
482.94452476501465
 20
-1273.012568473816
 10
482.9257869720459
 20
-1191.0234022140503
 10
481.94000816345215
 20
-1181.4320936203003
 10
481.9283809661865
 20
-1093.4401502609253
 10
480.9362850189209
 20
-1082.8515272140503
 10
480.9724178314209
 20
-1059.8689222335815
 10
481.8930416107178
 20
-1052.271143913269
 10
481.00555992126465
 20
-1045.6526746749878
 10
480.8125972747803
 20
-1035.7329359054565
 10
479.9733028411865
 20
-1030.0808362960815
 10
479.906286239624
 20
-1014.1091566085815
 10
478.94049644470215
 20
-1005.5095472335815
 10
478.9937496185303
 20
-997.5369520187378
 10
479.90460777282715
 20
-990.9145154953003
 10
479.967565536499
 20
-958.941798210144
 10
480.8451900482178
 20
-951.3642835617065
 10
477.289342880249
 20
-938.852931022644
 10
473.663854598999
 20
-920.355372428894
 10
463.9074459075928
 20
-883.3981580734253
 10
459.10577964782715
 20
-871.387598991394
 10
455.981725692749
 20
-861.682032585144
 10
446.68842124938965
 20
-840.532374382019
 10
443.4388484954834
 20
-834.8786268234253
 10
430.23322105407715
 20
-819.3493299484253
 10
418.8908748626709
 20
-807.1469373703003
 10
409.70868492126465
 20
-800.4209852218628
 10
395.5180416107178
 20
-788.8118543624878
 10
386.0031795501709
 20
-782.8133192062378
 10
370.0676021575928
 20
-775.4168348312378
 10
339.03668785095215
 20
-763.4236097335815
 10
330.43964195251465
 20
-762.4516248703003
 10
322.2916316986084
 20
-760.3955335617065
 10
310.0592098236084
 20
-756.1294813156128
 10
289.7107906341553
 20
-752.144190788269
 10
279.17853355407715
 20
-751.0159559249878
 10
263.2094783782959
 20
-750.9427137374878
 10
255.6032772064209
 20
-749.9926404953003
 10
238.6353054046631
 20
-749.9168348312378
 10
232.0133113861084
 20
-749.0048475265503
 10
200.04160118103027
 20
-748.9394178390503
 10
191.44180870056152
 20
-747.9740858078003
 10
139.4547939300537
 20
-747.9474744796753
 10
132.82713890075684
 20
-747.0491590499878
 10
119.90002250671387
 20
-746.8743543624878
 10
100.93305778503418
 20
-744.7306776046753
 10
86.5273265838623
 20
-744.9488172531128
 10
78.92114067077637
 20
-743.9987440109253
 10
66.93794059753418
 20
-743.9771375656128
 10
59.324960708618164
 20
-744.9107313156128
 10
50.47243309020996
 20
-745.2659559249878
 10
39.315473556518555
 20
-747.3002576828003
 10
28.634876251220703
 20
-750.4844617843628
 10
20.40338706970215
 20
-754.7531385421753
 10
15.838838577270508
 20
-758.2156629562378
 10
13.095917701721191
 20
-760.9921522140503
 10
3.444607734680176
 20
-777.9928846359253
 10
2.2487952709198
 20
-781.4974012374878
 10
1.9574625492095947
 20
-784.3766736984253
 10
3.0179224014282227
 20
-803.9175062179565
 10
3.8762035369873047
 20
-809.5617933273315
 10
3.9281511306762695
 20
-833.5342054367065
 10
2.942354202270508
 20
-843.1255140304565
 10
2.9311587810516357
 20
-948.1169691085815
 10
1.9385154247283936
 20
-958.7054090499878
 10
1.92714262008667
 20
-1070.6965589523315
 10
0.0
 20
-1084.873927116394
 10
0.9131350517272949
 20
-1092.4648694992065
 10
0.955150842666626
 20
-1141.4456434249878
 10
1.8534014225006104
 20
-1148.0732679367065
 10
1.9695591926574707
 20
-1164.024561882019
 10
2.9296562671661377
 20
-1172.6265516281128
 10
2.8658735752105713
 20
-1179.5959730148315
 10
1.9418110847473145
 20
-1187.2129163742065
 10
1.9194555282592773
 20
-1277.200312614441
 10
1.041797161102295
 20
-1283.8365125656128
 10
0.9361863136291504
 20
-1290.7910108566284
 10
1.8688545227050781
 20
-1299.4043531417847
 10
1.9914638996124268
 20
-1311.3531141281128
 10
2.9253292083740234
 20
-1318.9659986495972
 10
2.90394926071167
 20
-1335.9490003585815
 10
1.9539122581481934
 20
-1343.5552015304565
 10
1.940692663192749
 20
-1368.543574333191
 10
2.926490068435669
 20
-1378.134882926941
 10
2.9473519325256348
 20
-1468.1228895187378
 10
3.8167128562927246
 20
-1474.7625379562378
 10
3.927067279815674
 20
-1529.7087049484253
 10
3.003593921661377
 20
-1537.3258924484253
 10
2.986276626586914
 20
-1548.2753248214722
 10
3.931656837463379
 20
-1556.8834028244019
 10
3.9054789543151855
 20
-1577.869517326355
 10
2.955441951751709
 20
-1585.475703239441
 10
2.9956517219543457
 20
-1617.4404096603394
 10
3.925992012023926
 20
-1625.0547590255737
 10
3.931699752807617
 20
-1696.047526359558
  0
LWPOLYLINE
  5
F7
330
17
100
AcDbEntity
  8
MALA KUPA STOLA OFFSET
100
AcDbPolyline
 90
177
 70
1
 10
57.08465766906738
 20
-1766.851821899414
 10
49.98982048034668
 20
-1764.3543424606323
 10
21.48658561706543
 20
-1751.0870332717896
 10
19.646059036254883
 20
-1749.975344657898
 10
3.913331985473633
 20
-1737.958888053894
 10
-1.9052535891532898
 20
-1732.1117315292358
 10
-5.0678205490112305
 20
-1726.8598737716675
 10
-6.883054256439209
 20
-1719.2224569320679
 10
-7.000481128692627
 20
-1704.148310661316
 10
-6.0683441162109375
 20
-1695.5006437301636
 10
-6.073958873748779
 20
-1625.6638135910034
 10
-7.004340171813965
 20
-1617.4529829025269
 10
-7.044549942016602
 20
-1585.4882764816284
 10
-6.093745231628418
 20
-1577.2412061691284
 10
-6.069025993347168
 20
-1557.4246625900269
 10
-7.013710975646973
 20
-1548.2595167160034
 10
-6.9777374267578125
 20
-1536.7151288986206
 10
-6.074145793914795
 20
-1529.1147413253784
 10
-6.18197774887085
 20
-1475.424433708191
 10
-7.052647590637207
 20
-1468.1252088546753
 10
-7.073390960693359
 20
-1378.648585319519
 10
-8.059306144714355
 20
-1368.5382947921753
 10
-8.046086311340332
 20
-1343.549921989441
 10
-7.0952677726745605
 20
-1335.3206434249878
 10
-7.075439929962158
 20
-1319.5707960128784
 10
-7.986658096313477
 20
-1312.0142469406128
 10
-8.125607967376709
 20
-1299.9953260421753
 10
-9.062660694122314
 20
-1290.6391553878784
 10
-8.931323051452637
 20
-1283.1037855148315
 10
-8.080380916595459
 20
-1276.540675163269
 10
-8.058188438415527
 20
-1187.2104139328003
 10
-7.128596782684326
 20
-1178.9460096359253
 10
-7.075436592102051
 20
-1173.1372327804565
 10
-8.012912273406982
 20
-1164.6164197921753
 10
-8.141687393188477
 20
-1148.784083366394
 10
-9.044845581054688
 20
-1141.454249382019
 10
-9.086350440979004
 20
-1093.0684461593628
 10
-9.999704360961914
 20
-1084.797022819519
 10
-8.072788715362549
 20
-1070.0194959640503
 10
-8.061484336853027
 20
-958.7043714523315
 10
-7.068791389465332
 20
-947.6487073898315
 10
-7.057645797729492
 20
-843.1244764328003
 10
-6.0729594230651855
 20
-833.0324354171753
 10
-6.122158527374268
 20
-810.328516960144
 10
-6.967384338378906
 20
-804.459376335144
 10
-8.027844429016113
 20
-784.9185438156128
 10
-7.433277130126953
 20
-778.9959363937378
 10
-5.54313325881958
 20
-773.608790397644
 10
4.742691993713379
 20
-755.494532585144
 10
9.243328094482422
 20
-750.6990613937378
 10
15.302789688110352
 20
-746.1516981124878
 10
25.18123435974121
 20
-741.0998182296753
 10
36.986589431762695
 20
-737.5752820968628
 10
49.37236976623535
 20
-735.3266248703003
 10
58.51452827453613
 20
-734.9351453781128
 10
66.33720207214355
 20
-733.9952039718628
 10
79.55106163024902
 20
-734.0186414718628
 10
87.07399559020996
 20
-734.9394178390503
 10
101.41988182067871
 20
-734.7425184249878
 10
120.53070640563965
 20
-736.8819227218628
 10
133.56766319274902
 20
-737.0766248703003
 10
140.1319637298584
 20
-737.9478406906128
 10
191.44692039489746
 20
-737.9740858078003
 10
200.61130332946777
 20
-738.9405164718628
 10
232.0337734222412
 20
-739.0048475265503
 10
239.3429012298584
 20
-739.9198865890503
 10
255.6479549407959
 20
-739.9927625656128
 10
263.85443687438965
 20
-740.9455213546753
 10
279.7347469329834
 20
-741.0314588546753
 10
291.6327877044678
 20
-742.3306531906128
 10
311.9812068939209
 20
-746.3158826828003
 10
325.1670894622803
 20
-750.8077039718628
 10
332.2328243255615
 20
-752.5906629562378
 10
342.0372371673584
 20
-753.884425163269
 10
374.2776851654053
 20
-766.3462781906128
 10
390.7845211029053
 20
-774.030421257019
 10
401.361608505249
 20
-780.6968641281128
 10
415.8336544036865
 20
-792.5117444992065
 10
425.7704830169678
 20
-799.8894300460815
 10
437.8512325286865
 20
-812.871241569519
 10
451.4377193450928
 20
-828.877100944519
 10
455.6138973236084
 20
-836.022852897644
 10
465.1368770599365
 20
-857.6592054367065
 10
468.5192012786865
 20
-867.9954481124878
 10
473.4022579193115
 20
-880.2599744796753
 10
483.3326168060303
 20
-917.802882194519
 10
487.02240562438965
 20
-936.5202894210815
 10
490.738561630249
 20
-949.9078016281128
 10
490.8327388763428
 20
-951.863429069519
 10
489.9664363861084
 20
-959.5287733078003
 10
489.904577255249
 20
-990.934229850769
 10
488.9891719818115
 20
-998.2546644210815
 10
488.9442501068115
 20
-1004.983057975769
 10
489.88947105407715
 20
-1013.5293226242065
 10
489.9701900482178
 20
-1029.3215589523315
 10
490.7778072357178
 20
-1034.899561882019
 10
490.9925899505615
 20
-1044.8884534835815
 10
491.8928279876709
 20
-1052.2075452804565
 10
490.971471786499
 20
-1060.480372428894
 10
490.9370174407959
 20
-1082.3919324874878
 10
491.9283809661865
 20
-1093.4388074874878
 10
491.9399471282959
 20
-1180.9189100265503
 10
492.9257869720459
 20
-1191.021143913269
 10
492.944372177124
 20
-1272.3992261886597
 10
493.8593807220459
 20
-1279.9816236495972
 10
493.99750328063965
 20
-1298.8608655929565
 10
494.9079647064209
 20
-1306.1797742843628
 10
494.9776668548584
 20
-1344.3966627120972
 10
496.846715927124
 20
-1357.1548109054565
 10
494.9908504486084
 20
-1375.1110181808472
 10
494.9593563079834
 20
-1382.8501234054565
 10
496.91864585876465
 20
-1397.7004957199097
 10
496.9594478607178
 20
-1492.0025281906128
 10
497.8395137786865
 20
-1498.6038160324097
 10
497.98175621032715
 20
-1520.6173963546753
 10
498.9228572845459
 20
-1528.862193107605
 10
498.9624080657959
 20
-1581.1276502609253
 10
500.8700923919678
 20
-1594.9770002365112
 10
499.98627281188965
 20
-1602.3161115646362
 10
499.9596004486084
 20
-1615.9408521652222
 10
500.8350582122803
 20
-1622.5158491134644
 10
500.97601890563965
 20
-1636.6474409103394
 10
501.9293575286865
 20
-1647.072413444519
 10
500.95709800720215
 20
-1657.8451261520386
 10
500.9537105560303
 20
-1672.6430006027222
 10
502.87653160095215
 20
-1686.5468168258667
 10
502.9068660736084
 20
-1710.1934003829956
 10
501.3458614349365
 20
-1721.9124555587769
 10
498.3351802825928
 20
-1733.3408460617065
 10
487.70502281188965
 20
-1757.4290494918823
 10
486.044469833374
 20
-1759.7005777359009
 10
481.1436824798584
 20
-1764.6429471969604
 10
471.2126216888428
 20
-1771.9424357414246
 10
463.9972896575928
 20
-1778.523601770401
 10
455.5773067474365
 20
-1783.4446358680725
 10
448.21124839782715
 20
-1785.6679153442383
 10
436.0978145599365
 20
-1786.9047937393188
 10
429.332311630249
 20
-1786.8594598770142
 10
424.328893661499
 20
-1786.1378259658813
 10
419.3738765716553
 20
-1786.684687614441
 10
411.6071529388428
 20
-1786.5727272033691
 10
395.11615562438965
 20
-1784.994568824768
 10
390.32147789001465
 20
-1785.0178565979004
 10
383.2001094818115
 20
-1785.763032913208
 10
358.91217613220215
 20
-1783.8161430358887
 10
354.05719566345215
 20
-1783.0459570884705
 10
348.2026119232178
 20
-1782.8493580818176
 10
342.6523494720459
 20
-1782.023696422577
 10
331.7055721282959
 20
-1781.8766102790833
 10
326.118688583374
 20
-1781.0517196655273
 10
320.56940269470215
 20
-1781.0558080673218
 10
313.223424911499
 20
-1781.8822770118713
 10
306.8447322845459
 20
-1781.025770664215
 10
299.57770347595215
 20
-1780.8050804138184
 10
293.24945640563965
 20
-1780.0299062728882
 10
282.18878746032715
 20
-1779.85200381279
 10
276.60138511657715
 20
-1779.026071548462
 10
259.7710933685303
 20
-1778.9902317523956
 10
253.30223655700684
 20
-1779.3905096054077
 10
244.6615505218506
 20
-1778.8797268867493
 10
238.75429344177246
 20
-1778.0240895748138
 10
228.62509727478027
 20
-1777.7882492542267
 10
204.6027431488037
 20
-1775.2201108336449
 10
199.18686485290527
 20
-1775.5312249958515
 10
183.59061241149902
 20
-1774.0092692375183
 10
165.0991725921631
 20
-1773.9412422180176
 10
159.23431968688965
 20
-1773.2951745986938
 10
154.55856895446777
 20
-1773.5227587223053
 10
131.49506187438965
 20
-1771.0741624832153
 10
123.35340690612793
 20
-1770.8577432632446
 10
117.75997734069824
 20
-1770.0275130271912
 10
108.88237571716309
 20
-1769.888506412506
 10
102.39706230163574
 20
-1769.0145406723022
 10
88.65936851501465
 20
-1769.2100820541382
 10
79.50412559509277
 20
-1768.8660221099854
 10
72.86301231384277
 20
-1768.0225353240967
 10
65.15685844421387
 20
-1768.3640956878662
  0
TEXT
  5
F8
330
17
100
AcDbEntity
  8
MALA KUPA STOLA OFFSET
100
AcDbText
 10
246.45358085632324
 20
-1260.4499988555908
 30
0.0
 40
25.0
  1
MALA KUPA STOLA - OFFSET +10 mm
 72
1
 11
246.45358085632324
 21
-1260.4499988555908
 31
0.0
100
AcDbText
 73
2
  0
DIMENSION
  5
F9
330
17
100
AcDbEntity
  8
KOTE
100
AcDbDimension
280
0
  2
*D4
  3
EZDXF
 10
-9.999704360961914
 20
-1836.9047937393188
 30
0.0
 11
246.45358085632324
 21
-1824.304793739319
 31
0.0
 70
32
 71
5
  1
<>
100
AcDbAlignedDimension
 13
-9.999704360961914
 23
-1786.9047937393188
 33
0.0
 14
502.9068660736084
 24
-1786.9047937393188
 34
0.0
 50
0.0
100
AcDbRotatedDimension
1001
ACAD
1000
DSTYLE
1002
{
1070
140
1040
25.0
1070
41
1040
15.0
1070
271
1070
0
1070
44
1040
10.0
1070
42
1040
5.0
1002
}
  0
DIMENSION
  5
108
330
17
100
AcDbEntity
  8
KOTE
100
AcDbDimension
280
0
  2
*D5
  3
EZDXF
 10
-59.999704360961914
 20
-1786.9047937393188
 30
0.0
 11
-72.59970436096191
 21
-1260.4499988555908
 31
0.0
 70
32
 71
5
  1
<>
100
AcDbAlignedDimension
 13
-9.999704360961914
 23
-1786.9047937393188
 33
0.0
 14
-9.999704360961914
 24
-733.9952039718628
 34
0.0
 50
90.0
100
AcDbRotatedDimension
1001
ACAD
1000
DSTYLE
1002
{
1070
140
1040
25.0
1070
41
1040
15.0
1070
271
1070
0
1070
44
1040
10.0
1070
42
1040
5.0
1002
}
  0
CIRCLE
  5
117
330
17
100
AcDbEntity
  8
MALA KUPA STOLA TRAKA
100
AcDbCircle
 10
2.9866366386413574
 20
-1704.6557340621948
 30
0.0
 40
6.0
  0
TEXT
  5
118
330
17
100
AcDbEntity
  8
MALA KUPA STOLA TRAKA
100
AcDbText
 10
12.986636638641357
 20
-1724.6557340621948
 30
0.0
 40
10.0
  1
POČETAK TRAKE
 11
12.986636638641357
 21
-1724.6557340621948
 31
0.0
100
AcDbText
  0
CIRCLE
  5
119
330
17
100
AcDbEntity
  8
MALA KUPA STOLA TRAKA
100
AcDbCircle
 10
431.44695930805915
 20
-1776.908417990331
 30
0.0
 40
4.0
  0
CIRCLE
  5
11A
330
17
100
AcDbEntity
  8
MALA KUPA STOLA TRAKA
100
AcDbCircle
 10
463.2547123944803
 20
-1765.6905401312335
 30
0.0
 40
4.0
  0
TEXT
  5
11B
330
17
100
AcDbEntity
  8
MALA KUPA STOLA TRAKA
100
AcDbText
 10
448.319442094717
 20
-1775.3060941765405
 30
0.0
 40
12.0
  1
U1
 72
1
 11
448.319442094717
 21
-1775.3060941765405
 31
0.0
100
AcDbText
 73
2
  0
CIRCLE
  5
11C
330
17
100
AcDbEntity
  8
MALA KUPA STOLA TRAKA
100
AcDbCircle
 10
465.5126525708706
 20
-1763.7217494534073
 30
0.0
 40
4.0
  0
CIRCLE
  5
11D
330
17
100
AcDbEntity
  8
MALA KUPA STOLA TRAKA
100
AcDbCircle
 10
492.91710382296446
 20
-1704.6381692678724
 30
0.0
 40
4.0
  0
TEXT
  5
11E
330
17
100
AcDbEntity
  8
MALA KUPA STOLA TRAKA
100
AcDbText
 10
478.6265323369559
 20
-1752.9842983219576
 30
0.0
 40
12.0
  1
U2
 72
1
 11
478.6265323369559
 21
-1752.9842983219576
 31
0.0
100
AcDbText
 73
2
  0
CIRCLE
  5
11F
330
17
100
AcDbEntity
  8
MALA KUPA STOLA TRAKA
100
AcDbCircle
 10
52.499752086975754
 20
-745.1846058711108
 30
0.0
 40
4.0
  0
CIRCLE
  5
120
330
17
100
AcDbEntity
  8
MALA KUPA STOLA TRAKA
100
AcDbCircle
 10
2.577072202383722
 20
-795.7940681757641
 30
0.0
 40
4.0
  0
TEXT
  5
121
330
17
100
AcDbEntity
  8
MALA KUPA STOLA TRAKA
100
AcDbText
 10
16.250546143286694
 20
-757.9033544111212
 30
0.0
 40
12.0
  1
U3
 72
1
 11
16.250546143286694
 21
-757.9033544111212
 31
0.0
100
AcDbText
 73
2
  0
CIRCLE
  5
122
330
17
100
AcDbEntity
  8
MALA KUPA STOLA TRAKA
100
AcDbCircle
 10
3.9315920132440283
 20
-1694.7074637918322
 30
0.0
 40
4.0
  0
CIRCLE
  5
123
330
17
100
AcDbEntity
  8
MALA KUPA STOLA TRAKA
100
AcDbCircle
 10
31.664553989990694
 20
-1744.7943109272105
 30
0.0
 40
4.0
  0
TEXT
  5
124
330
17
100
AcDbEntity
  8
MALA KUPA STOLA TRAKA
100
AcDbText
 10
3.9315920132440283
 20
-1694.7074637918322
 30
0.0
 40
12.0
  1
U4
 72
1
 11
3.9315920132440283
 21
-1694.7074637918322
 31
0.0
100
AcDbText
 73
2
  0
LWPOLYLINE
  5
125
330
17
100
AcDbEntity
  8
MALA KUPA STOLA TRAKA
100
AcDbPolyline
 90
4
 70
1
 10
-9.999704360961914
 20
-1986.9047937393188
 10
2839.9981216845326
 20
-1986.9047937393188
 10
2839.9981216845326
 20
-2076.904793739319
 10
-9.999704360961914
 20
-2076.904793739319
  0
TEXT
  5
126
330
17
100
AcDbEntity
  8
MALA KUPA STOLA TRAKA
100
AcDbText
 10
-9.999704360961914
 20
-1971.9047937393188
 30
0.0
 40
12.0
  1
MALA KUPA STOLA - TRAKA 90 x 2850 mm  (opseg konture; početak = točka konture najbliža ishodištu, smjer CCW)
 11
-9.999704360961914
 21
-1971.9047937393188
 31
0.0
100
AcDbText
  0
LINE
  5
127
330
17
100
AcDbEntity
  8
MALA KUPA STOLA TRAKA
100
AcDbLine
 10
-9.999704360961914
 20
-1986.9047937393188
 30
0.0
 11
-9.999704360961914
 21
-2076.904793739319
 31
0.0
  0
TEXT
  5
128
330
17
100
AcDbEntity
  8
MALA KUPA STOLA TRAKA
100
AcDbText
 10
-6.999704360961914
 20
-2081.904793739319
 30
0.0
 40
8.0
  1
POČETAK 0
 50
90.0
 11
-6.999704360961914
 21
-2081.904793739319
 31
0.0
100
AcDbText
 73
3
  0
LINE
  5
129
330
17
100
AcDbEntity
  8
MALA KUPA STOLA TRAKA
100
AcDbLine
 10
448.0002956390381
 20
-1986.9047937393188
 30
0.0
 11
448.0002956390381
 21
-2076.904793739319
 31
0.0
  0
TEXT
  5
12A
330
17
100
AcDbEntity
  8
MALA KUPA STOLA TRAKA
100
AcDbText
 10
451.0002956390381
 20
-2081.904793739319
 30
0.0
 40
8.0
  1
U1 poč 458
 50
90.0
 11
451.0002956390381
 21
-2081.904793739319
 31
0.0
100
AcDbText
 73
3
  0
LINE
  5
12B
330
17
100
AcDbEntity
  8
MALA KUPA STOLA TRAKA
100
AcDbLine
 10
465.0002956390381
 20
-1986.9047937393188
 30
0.0
 11
465.0002956390381
 21
-2016.9047937393188
 31
0.0
  0
TEXT
  5
12C
330
17
100
AcDbEntity
  8
MALA KUPA STOLA TRAKA
100
AcDbText
 10
468.0002956390381
 20
-2081.904793739319
 30
0.0
 40
8.0
  1
U1 vrh 475
 50
90.0
 11
468.0002956390381
 21
-2081.904793739319
 31
0.0
100
AcDbText
 73
3
  0
LINE
  5
12D
330
17
100
AcDbEntity
  8
MALA KUPA STOLA TRAKA
100
AcDbLine
 10
483.0002956390381
 20
-1986.9047937393188
 30
0.0
 11
483.0002956390381
 21
-2076.904793739319
 31
0.0
  0
TEXT
  5
12E
330
17
100
AcDbEntity
  8
MALA KUPA STOLA TRAKA
100
AcDbText
 10
486.0002956390381
 20
-2081.904793739319
 30
0.0
 40
8.0
  1
U1 kraj 493
 50
90.0
 11
486.0002956390381
 21
-2081.904793739319
 31
0.0
100
AcDbText
 73
3
  0
LINE
  5
12F
330
17
100
AcDbEntity
  8
MALA KUPA STOLA TRAKA
100
AcDbLine
 10
486.0002956390381
 20
-1986.9047937393188
 30
0.0
 11
486.0002956390381
 21
-2076.904793739319
 31
0.0
  0
TEXT
  5
130
330
17
100
AcDbEntity
  8
MALA KUPA STOLA TRAKA
100
AcDbText
 10
489.0002956390381
 20
-2081.904793739319
 30
0.0
 40
8.0
  1
U2 poč 496
 50
90.0
 11
489.0002956390381
 21
-2081.904793739319
 31
0.0
100
AcDbText
 73
3
  0
LINE
  5
131
330
17
100
AcDbEntity
  8
MALA KUPA STOLA TRAKA
100
AcDbLine
 10
503.0002956390381
 20
-1986.9047937393188
 30
0.0
 11
503.0002956390381
 21
-2016.9047937393188
 31
0.0
  0
TEXT
  5
132
330
17
100
AcDbEntity
  8
MALA KUPA STOLA TRAKA
100
AcDbText
 10
506.0002956390381
 20
-2081.904793739319
 30
0.0
 40
8.0
  1
U2 vrh 513
 50
90.0
 11
506.0002956390381
 21
-2081.904793739319
 31
0.0
100
AcDbText
 73
3
  0
LINE
  5
133
330
17
100
AcDbEntity
  8
MALA KUPA STOLA TRAKA
100
AcDbLine
 10
554.0002956390381
 20
-1986.9047937393188
 30
0.0
 11
554.0002956390381
 21
-2076.904793739319
 31
0.0
  0
TEXT
  5
134
330
17
100
AcDbEntity
  8
MALA KUPA STOLA TRAKA
100
AcDbText
 10
557.0002956390381
 20
-2081.904793739319
 30
0.0
 40
8.0
  1
U2 kraj 564
 50
90.0
 11
557.0002956390381
 21
-2081.904793739319
 31
0.0
100
AcDbText
 73
3
  0
LINE
  5
135
330
17
100
AcDbEntity
  8
MALA KUPA STOLA TRAKA
100
AcDbLine
 10
1849.000295639038
 20
-1986.9047937393188
 30
0.0
 11
1849.000295639038
 21
-2076.904793739319
 31
0.0
  0
TEXT
  5
136
330
17
100
AcDbEntity
  8
MALA KUPA STOLA TRAKA
100
AcDbText
 10
1852.000295639038
 20
-2081.904793739319
 30
0.0
 40
8.0
  1
U3 poč 1859
 50
90.0
 11
1852.000295639038
 21
-2081.904793739319
 31
0.0
100
AcDbText
 73
3
  0
LINE
  5
137
330
17
100
AcDbEntity
  8
MALA KUPA STOLA TRAKA
100
AcDbLine
 10
1888.000295639038
 20
-1986.9047937393188
 30
0.0
 11
1888.000295639038
 21
-2016.9047937393188
 31
0.0
  0
TEXT
  5
138
330
17
100
AcDbEntity
  8
MALA KUPA STOLA TRAKA
100
AcDbText
 10
1891.000295639038
 20
-2081.904793739319
 30
0.0
 40
8.0
  1
U3 vrh 1898
 50
90.0
 11
1891.000295639038
 21
-2081.904793739319
 31
0.0
100
AcDbText
 73
3
  0
LINE
  5
139
330
17
100
AcDbEntity
  8
MALA KUPA STOLA TRAKA
100
AcDbLine
 10
1930.000295639038
 20
-1986.9047937393188
 30
0.0
 11
1930.000295639038
 21
-2076.904793739319
 31
0.0
  0
TEXT
  5
13A
330
17
100
AcDbEntity
  8
MALA KUPA STOLA TRAKA
100
AcDbText
 10
1933.000295639038
 20
-2081.904793739319
 30
0.0
 40
8.0
  1
U3 kraj 1940
 50
90.0
 11
1933.000295639038
 21
-2081.904793739319
 31
0.0
100
AcDbText
 73
3
  0
LINE
  5
13B
330
17
100
AcDbEntity
  8
MALA KUPA STOLA TRAKA
100
AcDbLine
 10
2830.000295639038
 20
-1986.9047937393188
 30
0.0
 11
2830.000295639038
 21
-2076.904793739319
 31
0.0
  0
TEXT
  5
13C
330
17
100
AcDbEntity
  8
MALA KUPA STOLA TRAKA
100
AcDbText
 10
2833.000295639038
 20
-2081.904793739319
 30
0.0
 40
8.0
  1
U4 poč 2840
 50
90.0
 11
2833.000295639038
 21
-2081.904793739319
 31
0.0
100
AcDbText
 73
3
  0
LINE
  5
13D
330
17
100
AcDbEntity
  8
MALA KUPA STOLA TRAKA
100
AcDbLine
 10
2830.000295639038
 20
-1986.9047937393188
 30
0.0
 11
2830.000295639038
 21
-2016.9047937393188
 31
0.0
  0
TEXT
  5
13E
330
17
100
AcDbEntity
  8
MALA KUPA STOLA TRAKA
100
AcDbText
 10
2833.000295639038
 20
-2081.904793739319
 30
0.0
 40
8.0
  1
U4 vrh 2840
 50
90.0
 11
2833.000295639038
 21
-2081.904793739319
 31
0.0
100
AcDbText
 73
3
  0
LINE
  5
13F
330
17
100
AcDbEntity
  8
MALA KUPA STOLA TRAKA
100
AcDbLine
 10
44.000295639038086
 20
-1986.9047937393188
 30
0.0
 11
44.000295639038086
 21
-2076.904793739319
 31
0.0
  0
TEXT
  5
140
330
17
100
AcDbEntity
  8
MALA KUPA STOLA TRAKA
100
AcDbText
 10
47.000295639038086
 20
-2081.904793739319
 30
0.0
 40
8.0
  1
U4 kraj 54
 50
90.0
 11
47.000295639038086
 21
-2081.904793739319
 31
0.0
100
AcDbText
 73
3
  0
LINE
  5
141
330
17
100
AcDbEntity
  8
MALA KUPA STOLA TRAKA
100
AcDbLine
 10
2839.9981216845326
 20
-1986.9047937393188
 30
0.0
 11
2839.9981216845326
 21
-2076.904793739319
 31
0.0
  0
TEXT
  5
142
330
17
100
AcDbEntity
  8
MALA KUPA STOLA TRAKA
100
AcDbText
 10
2842.9981216845326
 20
-2081.904793739319
 30
0.0
 40
8.0
  1
KRAJ 2850
 50
90.0
 11
2842.9981216845326
 21
-2081.904793739319
 31
0.0
100
AcDbText
 73
3
  0
DIMENSION
  5
143
330
17
100
AcDbEntity
  8
KOTE
100
AcDbDimension
280
0
  2
*D6
  3
EZDXF
 10
-9.999704360961914
 20
-2156.904793739319
 30
0.0
 11
1414.9992086617854
 21
-2144.304793739319
 31
0.0
 70
32
 71
5
  1
<>
100
AcDbAlignedDimension
 13
-9.999704360961914
 23
-2076.904793739319
 33
0.0
 14
2839.9981216845326
 24
-2076.904793739319
 34
0.0
 50
0.0
100
AcDbRotatedDimension
1001
ACAD
1000
DSTYLE
1002
{
1070
140
1040
25.0
1070
41
1040
15.0
1070
271
1070
0
1070
44
1040
10.0
1070
42
1040
5.0
1002
}
  0
LWPOLYLINE
  5
155
330
17
100
AcDbEntity
  8
1A PROVA LIJEVA KONTURA
100
AcDbPolyline
 90
177
 70
1
 10
12.14891529083252
 20
-3159.9109075069427
 10
14.075413703918457
 20
-3169.1118352413177
 10
15.514939308166504
 20
-3173.515018224716
 10
19.645895957946777
 20
-3179.8030335903168
 10
25.420701026916504
 20
-3185.050981283188
 10
48.279892921447754
 20
-3192.6267173290253
 10
58.67164707183838
 20
-3194.092255115509
 10
77.15368747711182
 20
-3195.3377133607864
 10
85.43592929840088
 20
-3197.068174749613
 10
93.34726810455322
 20
-3197.280109528452
 10
99.96875095367432
 20
-3198.192086815834
 10
114.941330909729
 20
-3198.1942369937897
 10
121.4839563369751
 20
-3197.3943619579077
 10
136.28743839263916
 20
-3198.207450568676
 10
145.87687015533447
 20
-3197.235423198901
 10
154.47275638580322
 20
-3198.2029423713684
 10
180.45871829986572
 20
-3198.218592762947
 10
188.0796594619751
 20
-3197.3055574446917
 10
199.0064172744751
 20
-3197.316924586892
 10
205.63718509674072
 20
-3198.20650434494
 10
231.62419986724854
 20
-3198.2175646424294
 10
241.20867252349854
 20
-3197.2465095594525
 10
260.39009952545166
 20
-3199.200236082077
 10
268.92391300201416
 20
-3198.4979795217514
 10
273.5752191543579
 20
-3199.166195511818
 10
281.54097843170166
 20
-3199.201940059662
 10
288.1672296524048
 20
-3198.301469564438
 10
293.13445377349854
 20
-3198.224987745285
 10
302.73909854888916
 20
-3199.1767749786377
 10
308.71807193756104
 20
-3199.2226263284683
 10
318.31356143951416
 20
-3198.2486904859543
 10
328.28106021881104
 20
-3198.2756960392
 10
334.86943912506104
 20
-3199.1076953411102
 10
349.11296939849854
 20
-3197.7682771086693
 10
361.63887882232666
 20
-3198.217473447323
 10
368.2479181289673
 20
-3197.508554637432
 10
373.82906436920166
 20
-3198.1828078627586
 10
383.3294610977173
 20
-3198.468442797661
 10
391.9464349746704
 20
-3198.139978170395
 10
397.5632257461548
 20
-3197.347000271082
 10
417.74202823638916
 20
-3199.2091833353043
 10
431.7235345840454
 20
-3199.198427796364
 10
438.34774112701416
 20
-3198.2930439710617
 10
444.3185968399048
 20
-3198.2243008613586
 10
464.0771417617798
 20
-3199.2159703969955
 10
491.06609439849854
 20
-3199.2131386995316
 10
496.69564151763916
 20
-3198.642265319824
 10
503.2439203262329
 20
-3199.2169988155365
 10
530.237603187561
 20
-3199.2234284877777
 10
548.471978187561
 20
-3197.6595891416073
 10
554.0052423477173
 20
-3198.1941886544228
 10
568.987114906311
 20
-3198.2151525616646
 10
575.4637994766235
 20
-3197.5535232126713
 10
593.4239435195923
 20
-3196.9818865805864
 10
617.2814264297485
 20
-3198.6700364351273
 10
625.0204401016235
 20
-3198.373631477356
 10
629.627007484436
 20
-3199.0231668949127
 10
635.215142250061
 20
-3198.2992154359818
 10
646.137017250061
 20
-3198.1135066747665
 10
651.7863702774048
 20
-3197.268640898168
 10
676.7543268203735
 20
-3197.197852343321
 10
682.348198890686
 20
-3196.484507083893
 10
700.4937677383423
 20
-3196.1611335277557
 10
706.1376276016235
 20
-3195.302852511406
 10
717.0621881484985
 20
-3195.1236011981964
 10
725.3426446914673
 20
-3193.3888585567474
 10
738.8602838516235
 20
-3192.2444336414337
 10
746.4674615859985
 20
-3193.155637025833
 10
755.003228187561
 20
-3192.3444311618805
 10
759.6685724258423
 20
-3193.0918238162994
 10
766.547417640686
 20
-3193.3823640346527
 10
781.0373468399048
 20
-3197.023080304265
 10
796.5118341445923
 20
-3196.288279771805
 10
802.1556940078735
 20
-3197.146567553282
 10
809.0314874649048
 20
-3197.444487452507
 10
819.9335260391235
 20
-3199.9329290390015
 10
849.8961114883423
 20
-3197.7935319542885
 10
855.3990411758423
 20
-3198.2022255659103
 10
870.3639459609985
 20
-3198.1669635772705
 10
876.6780939102173
 20
-3196.5129838585854
 10
879.0466241836548
 20
-3194.9894740581512
 10
881.8795709609985
 20
-3192.261425256729
 10
883.726128578186
 20
-3189.0275723934174
 10
883.8848810195923
 20
-3168.175107717514
 10
882.363823890686
 20
-3160.806030035019
 10
878.1284112930298
 20
-3150.561702489853
 10
876.396050453186
 20
-3144.280025243759
 10
874.718316078186
 20
-3132.976283788681
 10
870.1293878555298
 20
-3108.879916906357
 10
868.802788734436
 20
-3098.4305913448334
 10
866.114556312561
 20
-3084.5457417964935
 10
865.9139337539673
 20
-3062.6312367916107
 10
862.8616876602173
 20
-3042.8978078365326
 10
861.7697687149048
 20
-3039.350551366806
 10
856.0160455703735
 20
-3027.735332250595
 10
853.2398614883423
 20
-3020.886150121689
 10
850.3373956680298
 20
-3010.0897023677826
 10
846.1415948867798
 20
-2984.830577611923
 10
845.6933526992798
 20
-2978.017024755478
 10
840.9213800430298
 20
-2965.9951741695404
 10
838.3324518203735
 20
-2956.0687520504
 10
836.1534967422485
 20
-2942.972804784775
 10
834.6605157852173
 20
-2926.5930898189545
 10
823.7499933242798
 20
-2869.119121313095
 10
820.256402015686
 20
-2854.5679738521576
 10
818.102837562561
 20
-2841.4615285396576
 10
817.663628578186
 20
-2834.644206762314
 10
814.311089515686
 20
-2824.034190893173
 10
812.187310218811
 20
-2814.914989233017
 10
809.9908380508423
 20
-2808.8255422115326
 10
807.8853693008423
 20
-2804.698222875595
 10
804.6563653945923
 20
-2800.03635764122
 10
789.188042640686
 20
-2784.4663808345795
 10
770.6017999649048
 20
-2771.402812719345
 10
762.3444757461548
 20
-2767.198253393173
 10
751.9240655899048
 20
-2763.38792014122
 10
741.913628578186
 20
-2758.587871313095
 10
738.3561334609985
 20
-2757.520488500595
 10
729.8607721328735
 20
-2756.3045766353607
 10
715.9105157852173
 20
-2756.18821310997
 10
709.2890558242798
 20
-2755.2762258052826
 10
701.314263343811
 20
-2755.231151342392
 10
693.6964654922485
 20
-2756.1516835689545
 10
680.7766046524048
 20
-2756.341747045517
 10
674.137505531311
 20
-2757.2112843990326
 10
604.1538019180298
 20
-2757.2164113521576
 10
596.538628578186
 20
-2756.289500951767
 10
587.9808282852173
 20
-2755.9216725826263
 10
567.4243097305298
 20
-2756.289470434189
 10
552.197319984436
 20
-2757.8160512447357
 10
544.6419610977173
 20
-2757.22581076622
 10
433.6566095352173
 20
-2757.2288930416107
 10
427.05880069732666
 20
-2757.835704565048
 10
421.47576236724854
 20
-2757.245311498642
 10
410.48626041412354
 20
-2757.225566625595
 10
394.72844791412354
 20
-2758.2139089107513
 10
384.14424991607666
 20
-2757.2276418209076
 10
344.15328311920166
 20
-2757.23215842247
 10
335.57964420318604
 20
-2758.1441457271576
 10
327.97661685943604
 20
-2757.2331960201263
 10
114.00447940826416
 20
-2757.2222402095795
 10
104.41072177886963
 20
-2756.244121313095
 10
81.42401218414307
 20
-2756.230479955673
 10
73.8046350479126
 20
-2757.145976781845
 10
66.28035068511963
 20
-2756.784923315048
 10
59.774903297424316
 20
-2757.485790014267
 10
48.35982608795166
 20
-2761.3086965084076
 10
40.10870838165283
 20
-2765.5282094478607
 10
32.35007572174072
 20
-2770.936687231064
 10
21.89375591278076
 20
-2782.5559804439545
 10
18.530001640319824
 20
-2788.1619069576263
 10
10.564602851867676
 20
-2804.860332250595
 10
6.160987854003906
 20
-2820.0344655513763
 10
5.142051696777344
 20
-2824.6118581295013
 10
2.0616416931152344
 20
-2850.332957983017
 10
2.016185760498047
 20
-2860.2837636470795
 10
2.963301658630371
 20
-2867.890575170517
 10
2.9740476608276367
 20
-2895.877452611923
 10
2.006795883178711
 20
-2904.47581076622
 10
1.8652095794677734
 20
-2921.4153249263763
 10
0.0035877227783203125
 20
-2935.642558813095
 10
0.0
 20
-2961.6223714351654
 10
0.9804363250732422
 20
-2972.215053319931
 10
0.9504618644714355
 20
-2981.201335668564
 10
0.05095815658569336
 20
-2989.774104833603
 10
3.774200439453125
 20
-3011.2249410152435
 10
5.126710891723633
 20
-3030.662532567978
 10
5.90041446685791
 20
-3035.341502904892
 10
6.0167083740234375
 20
-3051.2915914058685
 10
6.9761457443237305
 20
-3059.8931691646576
 10
6.911846160888672
 20
-3064.8621480464935
 10
6.0534563064575195
 20
-3071.4669988155365
 10
7.9158782958984375
 20
-3083.6727941036224
 10
8.120016098022461
 20
-3094.587039709091
 10
9.923722267150879
 20
-3105.8386113643646
 10
10.046185493469238
 20
-3136.784503698349
 10
11.864747047424316
 20
-3148.029922246933
  0
LWPOLYLINE
  5
156
330
17
100
AcDbEntity
  8
1A PROVA LIJEVA OFFSET
100
AcDbPolyline
 90
181
 70
1
 10
1.5388879776000977
 20
-2800.554942846298
 10
9.504286766052246
 20
-2783.8565175533295
 10
13.66618824005127
 20
-2776.872051000595
 10
25.730698585510254
 20
-2763.441112279892
 10
34.96097278594971
 20
-2756.9549367427826
 10
44.484646797180176
 20
-2752.09006857872
 10
57.289109230041504
 20
-2747.7996633052826
 10
65.98352909088135
 20
-2746.789317846298
 10
73.44529056549072
 20
-2747.1172292232513
 10
81.42994785308838
 20
-2746.230479955673
 10
104.41665744781494
 20
-2746.244121313095
 10
114.51318454742432
 20
-2747.2222707271576
 10
327.97713565826416
 20
-2747.2331960201263
 10
335.64641666412354
 20
-2748.0806386470795
 10
344.15215396881104
 20
-2747.23215842247
 10
384.14312076568604
 20
-2747.2276418209076
 10
394.8802728652954
 20
-2748.184734106064
 10
410.50423526763916
 20
-2747.225597143173
 10
422.01128482818604
 20
-2747.2596547603607
 10
427.1273431777954
 20
-2747.7871816158295
 10
433.65633487701416
 20
-2747.2288930416107
 10
544.641655921936
 20
-2747.22581076622
 10
552.0870904922485
 20
-2747.7769582271576
 10
567.245415687561
 20
-2746.2910573482513
 10
587.8019342422485
 20
-2745.923259496689
 10
596.968071937561
 20
-2746.2987172603607
 10
604.759819984436
 20
-2747.2163808345795
 10
673.4850397109985
 20
-2747.211345434189
 10
680.052544593811
 20
-2746.3679921627045
 10
693.0212335586548
 20
-2746.1605336666107
 10
700.7415704727173
 20
-2745.247569799423
 10
709.3455743789673
 20
-2745.276378393173
 10
716.6374444961548
 20
-2746.1939198970795
 10
730.612603187561
 20
-2746.3328664302826
 10
740.5074396133423
 20
-2747.754649877548
 10
745.5233087539673
 20
-2749.2620961666107
 10
755.812066078186
 20
-2754.162029027939
 10
766.3375787734985
 20
-2758.0301015377045
 10
775.7586603164673
 20
-2762.8350331783295
 10
796.2822198867798
 20
-2777.4184987545013
 10
812.877007484436
 20
-2794.3423879146576
 10
816.4689264297485
 20
-2799.567638158798
 10
818.898736000061
 20
-2804.2813527584076
 10
821.776909828186
 20
-2812.0794789791107
 10
823.9628229141235
 20
-2821.389659643173
 10
827.4926080703735
 20
-2832.8028371334076
 10
828.0504693984985
 20
-2840.326610326767
 10
830.0650568008423
 20
-2852.587383031845
 10
833.574517250061
 20
-2867.254100561142
 10
844.4850397109985
 20
-2924.7280690670013
 10
846.0786066055298
 20
-2941.6965596675873
 10
848.1227350234985
 20
-2953.9820210933685
 10
850.4426202774048
 20
-2962.876903295517
 10
855.5123224258423
 20
-2976.1229207515717
 10
856.0875177383423
 20
-2983.6802175045013
 10
860.121880531311
 20
-3007.9671895504
 10
862.7377862930298
 20
-3017.697902441025
 10
865.1430597305298
 20
-3023.6319386959076
 10
871.059136390686
 20
-3035.648097753525
 10
872.744194984436
 20
-3041.3692433834076
 10
875.880913734436
 20
-3061.81907248497
 10
876.105767250061
 20
-3083.541270971298
 10
878.6204767227173
 20
-3096.529796361923
 10
880.0107355117798
 20
-3107.3133046627045
 10
884.5417413711548
 20
-3131.105502843857
 10
886.1982355117798
 20
-3142.2090108394623
 10
887.6049127578735
 20
-3147.3097875118256
 10
891.8267755508423
 20
-3157.573077917099
 10
893.7963190078735
 20
-3166.8474023342133
 10
893.7258234024048
 20
-3189.103701353073
 10
892.9713068008423
 20
-3192.838937520981
 10
889.7700128555298
 20
-3198.404785990715
 10
884.9910821914673
 20
-3203.0308091640472
 10
880.4091730117798
 20
-3205.790866613388
 10
872.8979425430298
 20
-3207.8405826091766
 10
870.387505531311
 20
-3208.1669356822968
 10
855.4226007461548
 20
-3208.202197790146
 10
849.8818292617798
 20
-3207.8200118541718
 10
820.0549249649048
 20
-3209.9321916103363
 10
817.7081842422485
 20
-3209.6821839809418
 10
807.691460609436
 20
-3207.3958070278168
 10
801.186089515686
 20
-3207.0994527339935
 10
795.9921808242798
 20
-3206.324223279953
 10
780.0454034805298
 20
-3206.9737622737885
 10
765.1030206680298
 20
-3203.3302738666534
 10
758.6649713516235
 20
-3203.041333436966
 10
754.6801691055298
 20
-3202.420189142227
 10
745.9887018203735
 20
-3203.144170999527
 10
738.685601234436
 20
-3202.294995069504
 10
726.7950983047485
 20
-3203.3016669750214
 10
717.8590631484985
 20
-3205.0917975902557
 10
706.975152015686
 20
-3205.290456533432
 10
701.3364191055298
 20
-3206.1255643367767
 10
683.0719537734985
 20
-3206.473197698593
 10
676.7827081680298
 20
-3207.1978118419647
 10
652.5440607070923
 20
-3207.2665326595306
 10
646.9633111953735
 20
-3208.079308271408
 10
635.9448175430298
 20
-3208.288253545761
 10
629.5707941055298
 20
-3209.0230090618134
 10
624.5096368789673
 20
-3208.4005267620087
 10
616.5756158828735
 20
-3208.6450955867767
 10
593.2296075820923
 20
-3206.9931371212006
 10
576.1318292617798
 20
-3207.5373256206512
 10
568.9731378555298
 20
-3208.2151429653168
 10
553.991265296936
 20
-3208.1941792964935
 10
548.4179620742798
 20
-3207.7009332180023
 10
530.2352228164673
 20
-3209.2234284877777
 10
503.24153995513916
 20
-3209.2169988155365
 10
496.76351261138916
 20
-3208.686666250229
 10
491.0671319961548
 20
-3209.2131383419037
 10
464.07817935943604
 20
-3209.2159707546234
 10
444.12532901763916
 20
-3208.2271888256073
 10
439.08525943756104
 20
-3208.2852160930634
 10
432.4060297012329
 20
-3209.175110578537
 10
417.74971866607666
 20
-3209.2091805934906
 10
397.80599308013916
 20
-3207.4118945598602
 10
392.8370294570923
 20
-3208.1002423763275
 10
383.71038150787354
 20
-3208.4611852169037
 10
373.5285577774048
 20
-3208.178291082382
 10
368.18062686920166
 20
-3207.5731360912323
 10
361.99385929107666
 20
-3208.211170911789
 10
349.4031000137329
 20
-3207.7851102352142
 10
335.07576847076416
 20
-3209.105566740036
 10
327.6386651992798
 20
-3208.2739923000336
 10
318.80623722076416
 20
-3208.250061750412
 10
308.6413812637329
 20
-3209.222332715988
 10
301.7529535293579
 20
-3209.128033399582
 10
292.71700382232666
 20
-3208.232600927353
 10
288.9201898574829
 20
-3208.2910611629486
 10
281.4961175918579
 20
-3209.201839208603
 10
272.84002017974854
 20
-3209.1391332149506
 10
268.6191339492798
 20
-3208.556861639023
 10
259.9872064590454
 20
-3209.192116498947
 10
241.20598697662354
 20
-3207.2979743480682
 10
231.6199426651001
 20
-3208.217563390732
 10
205.63292789459229
 20
-3208.2065036296844
 10
198.33342838287354
 20
-3207.316229581833
 10
188.67138004302979
 20
-3207.3061788082123
 10
180.45269107818604
 20
-3208.2185904979706
 10
154.46672916412354
 20
-3208.2029407024384
 10
145.8212366104126
 20
-3207.2923057079315
 10
136.51816654205322
 20
-3208.2047889232635
 10
121.81911563873291
 20
-3207.4278428554535
 10
115.54850101470947
 20
-3208.1757876873016
 10
99.96731662750244
 20
-3208.1920869350433
 10
92.52868747711182
 20
-3207.261768102646
 10
84.57188510894775
 20
-3207.030775785446
 10
75.78836154937744
 20
-3205.2683866024017
 10
57.99929904937744
 20
-3204.069626569748
 10
46.29245853424072
 20
-3202.427232503891
 10
21.62232494354248
 20
-3194.301513195038
 10
19.226263999938965
 20
-3192.9013917446136
 10
12.468056678771973
 20
-3186.7656915187836
 10
6.811675071716309
 20
-3178.439771413803
 10
4.414572715759277
 20
-3171.6941106319427
 10
2.2546825408935547
 20
-3161.361476659775
 10
1.8839406967163086
 20
-3148.95196890831
 10
0.046263694763183594
 20
-3136.8240773677826
 10
-0.07312631607055664
 20
-3106.654720067978
 10
-1.84055757522583
 20
-3095.474155187607
 10
-2.0699453353881836
 20
-3084.52423453331
 10
-3.9135515689849854
 20
-3072.2786366939545
 10
-3.0797841548919678
 20
-3064.150645971298
 10
-3.0310511589050293
 20
-3060.3846395015717
 10
-3.9657812118530273
 20
-3051.8831136226654
 10
-4.093599796295166
 20
-3036.198909521103
 10
-4.849168300628662
 20
-3031.35667014122
 10
-6.166111469268799
 20
-3012.4302327632904
 10
-9.943378210067749
 20
-2990.1106221675873
 10
-9.04779314994812
 20
-2980.6615102291107
 10
-9.021104097366333
 20
-2972.6602132320404
 10
-10.0
 20
-2961.6209828853607
 10
-9.99641227722168
 20
-2935.6411855220795
 10
-8.12934684753418
 20
-2920.7222402095795
 10
-7.975095450878143
 20
-2903.874278783798
 10
-7.026167629286647
 20
-2895.3186757564545
 10
-7.036460228264332
 20
-2868.512645483017
 10
-7.966027855873108
 20
-2860.8799245357513
 10
-7.919218003749847
 20
-2849.714549779892
 10
-4.715293645858765
 20
-2822.9287831783295
 10
-3.4427757263183594
 20
-2817.2473866939545
  0
TEXT
  5
157
330
17
100
AcDbEntity
  8
1A PROVA LIJEVA OFFSET
100
AcDbText
 10
441.89815950393677
 20
-2977.5898807048798
 30
0.0
 40
25.0
  1
1A PROVA LIJEVA - OFFSET +10 mm
 72
1
 11
441.89815950393677
 21
-2977.5898807048798
 31
0.0
100
AcDbText
 73
2
  0
DIMENSION
  5
158
330
17
100
AcDbEntity
  8
KOTE
100
AcDbDimension
280
0
  2
*D7
  3
EZDXF
 10
-10.0
 20
-3259.9321916103363
 30
0.0
 11
441.89815950393677
 21
-3247.3321916103364
 31
0.0
 70
32
 71
5
  1
<>
100
AcDbAlignedDimension
 13
-10.0
 23
-3209.9321916103363
 33
0.0
 14
893.7963190078735
 24
-3209.9321916103363
 34
0.0
 50
0.0
100
AcDbRotatedDimension
1001
ACAD
1000
DSTYLE
1002
{
1070
140
1040
25.0
1070
41
1040
15.0
1070
271
1070
0
1070
44
1040
10.0
1070
42
1040
5.0
1002
}
  0
DIMENSION
  5
167
330
17
100
AcDbEntity
  8
KOTE
100
AcDbDimension
280
0
  2
*D8
  3
EZDXF
 10
-60.0
 20
-3209.9321916103363
 30
0.0
 11
-72.6
 21
-2977.5898807048798
 31
0.0
 70
32
 71
5
  1
<>
100
AcDbAlignedDimension
 13
-10.0
 23
-3209.9321916103363
 33
0.0
 14
-10.0
 24
-2745.247569799423
 34
0.0
 50
90.0
100
AcDbRotatedDimension
1001
ACAD
1000
DSTYLE
1002
{
1070
140
1040
25.0
1070
41
1040
15.0
1070
271
1070
0
1070
44
1040
10.0
1070
42
1040
5.0
1002
}
  0
CIRCLE
  5
176
330
17
100
AcDbEntity
  8
1A PROVA LIJEVA TRAKA
100
AcDbCircle
 10
12.14891529083252
 20
-3159.9109075069427
 30
0.0
 40
6.0
  0
TEXT
  5
177
330
17
100
AcDbEntity
  8
1A PROVA LIJEVA TRAKA
100
AcDbText
 10
22.14891529083252
 20
-3179.9109075069427
 30
0.0
 40
10.0
  1
POČETAK TRAKE
 11
22.14891529083252
 21
-3179.9109075069427
 31
0.0
100
AcDbText
  0
CIRCLE
  5
178
330
17
100
AcDbEntity
  8
1A PROVA LIJEVA TRAKA
100
AcDbCircle
 10
860.4229727997272
 20
-3198.1903876142233
 30
0.0
 40
4.0
  0
CIRCLE
  5
179
330
17
100
AcDbEntity
  8
1A PROVA LIJEVA TRAKA
100
AcDbCircle
 10
881.3416915086669
 20
-3158.333765840093
 30
0.0
 40
4.0
  0
TEXT
  5
17A
330
17
100
AcDbEntity
  8
1A PROVA LIJEVA TRAKA
100
AcDbText
 10
881.0010699594291
 20
-3193.107397240229
 30
0.0
 40
12.0
  1
U1
 72
1
 11
881.0010699594291
 21
-3193.107397240229
 31
0.0
100
AcDbText
 73
2
  0
CIRCLE
  5
17B
330
17
100
AcDbEntity
  8
1A PROVA LIJEVA TRAKA
100
AcDbCircle
 10
813.5803747708203
 20
-2820.8966072825383
 30
0.0
 40
4.0
  0
CIRCLE
  5
17C
330
17
100
AcDbEntity
  8
1A PROVA LIJEVA TRAKA
100
AcDbCircle
 10
781.7206194795192
 20
-2779.217811082593
 30
0.0
 40
4.0
  0
TEXT
  5
17D
330
17
100
AcDbEntity
  8
1A PROVA LIJEVA TRAKA
100
AcDbText
 10
807.9990972952934
 20
-2804.9211621856825
 30
0.0
 40
12.0
  1
U2
 72
1
 11
807.9990972952934
 21
-2804.9211621856825
 31
0.0
100
AcDbText
 73
2
  0
CIRCLE
  5
17E
330
17
100
AcDbEntity
  8
1A PROVA LIJEVA TRAKA
100
AcDbCircle
 10
69.97637950287941
 20
-2756.9622775927032
 30
0.0
 40
4.0
  0
CIRCLE
  5
17F
330
17
100
AcDbEntity
  8
1A PROVA LIJEVA TRAKA
100
AcDbCircle
 10
5.0442079112092895
 20
-2825.428843457964
 30
0.0
 40
4.0
  0
TEXT
  5
180
330
17
100
AcDbEntity
  8
1A PROVA LIJEVA TRAKA
100
AcDbText
 10
32.3590937329107
 20
-2770.930400851079
 30
0.0
 40
12.0
  1
U3
 72
1
 11
32.3590937329107
 21
-2770.930400851079
 31
0.0
100
AcDbText
 73
2
  0
CIRCLE
  5
181
330
17
100
AcDbEntity
  8
1A PROVA LIJEVA TRAKA
100
AcDbCircle
 10
11.90982961353049
 20
-3149.9148102167032
 30
0.0
 40
4.0
  0
CIRCLE
  5
182
330
17
100
AcDbEntity
  8
1A PROVA LIJEVA TRAKA
100
AcDbCircle
 10
58.728729646223826
 20
-3194.0961017667105
 30
0.0
 40
4.0
  0
TEXT
  5
183
330
17
100
AcDbEntity
  8
1A PROVA LIJEVA TRAKA
100
AcDbText
 10
11.90982961353049
 20
-3149.9148102167032
 30
0.0
 40
12.0
  1
U4
 72
1
 11
11.90982961353049
 21
-3149.9148102167032
 31
0.0
100
AcDbText
 73
2
  0
LWPOLYLINE
  5
184
330
17
100
AcDbEntity
  8
1A PROVA LIJEVA TRAKA
100
AcDbPolyline
 90
4
 70
1
 10
-10.0
 20
-3409.9321916103363
 10
2473.7406940885567
 20
-3409.9321916103363
 10
2473.7406940885567
 20
-3499.9321916103363
 10
-10.0
 20
-3499.9321916103363
  0
TEXT
  5
185
330
17
100
AcDbEntity
  8
1A PROVA LIJEVA TRAKA
100
AcDbText
 10
-10.0
 20
-3394.9321916103363
 30
0.0
 40
12.0
  1
1A PROVA LIJEVA - TRAKA 90 x 2484 mm  (opseg konture; početak = točka konture najbliža ishodištu, smjer CCW)
 11
-10.0
 21
-3394.9321916103363
 31
0.0
100
AcDbText
  0
LINE
  5
186
330
17
100
AcDbEntity
  8
1A PROVA LIJEVA TRAKA
100
AcDbLine
 10
-10.0
 20
-3409.9321916103363
 30
0.0
 11
-10.0
 21
-3499.9321916103363
 31
0.0
  0
TEXT
  5
187
330
17
100
AcDbEntity
  8
1A PROVA LIJEVA TRAKA
100
AcDbText
 10
-7.0
 20
-3504.9321916103363
 30
0.0
 40
8.0
  1
POČETAK 0
 50
90.0
 11
-7.0
 21
-3504.9321916103363
 31
0.0
100
AcDbText
 73
3
  0
LINE
  5
188
330
17
100
AcDbEntity
  8
1A PROVA LIJEVA TRAKA
100
AcDbLine
 10
859.0
 20
-3409.9321916103363
 30
0.0
 11
859.0
 21
-3499.9321916103363
 31
0.0
  0
TEXT
  5
189
330
17
100
AcDbEntity
  8
1A PROVA LIJEVA TRAKA
100
AcDbText
 10
862.0
 20
-3504.9321916103363
 30
0.0
 40
8.0
  1
U1 poč 869
 50
90.0
 11
862.0
 21
-3504.9321916103363
 31
0.0
100
AcDbText
 73
3
  0
LINE
  5
18A
330
17
100
AcDbEntity
  8
1A PROVA LIJEVA TRAKA
100
AcDbLine
 10
881.0
 20
-3409.9321916103363
 30
0.0
 11
881.0
 21
-3439.9321916103363
 31
0.0
  0
TEXT
  5
18B
330
17
100
AcDbEntity
  8
1A PROVA LIJEVA TRAKA
100
AcDbText
 10
884.0
 20
-3504.9321916103363
 30
0.0
 40
8.0
  1
U1 vrh 891
 50
90.0
 11
884.0
 21
-3504.9321916103363
 31
0.0
100
AcDbText
 73
3
  0
LINE
  5
18C
330
17
100
AcDbEntity
  8
1A PROVA LIJEVA TRAKA
100
AcDbLine
 10
917.0
 20
-3409.9321916103363
 30
0.0
 11
917.0
 21
-3499.9321916103363
 31
0.0
  0
TEXT
  5
18D
330
17
100
AcDbEntity
  8
1A PROVA LIJEVA TRAKA
100
AcDbText
 10
920.0
 20
-3504.9321916103363
 30
0.0
 40
8.0
  1
U1 kraj 927
 50
90.0
 11
920.0
 21
-3504.9321916103363
 31
0.0
100
AcDbText
 73
3
  0
LINE
  5
18E
330
17
100
AcDbEntity
  8
1A PROVA LIJEVA TRAKA
100
AcDbLine
 10
1263.0
 20
-3409.9321916103363
 30
0.0
 11
1263.0
 21
-3499.9321916103363
 31
0.0
  0
TEXT
  5
18F
330
17
100
AcDbEntity
  8
1A PROVA LIJEVA TRAKA
100
AcDbText
 10
1266.0
 20
-3504.9321916103363
 30
0.0
 40
8.0
  1
U2 poč 1273
 50
90.0
 11
1266.0
 21
-3504.9321916103363
 31
0.0
100
AcDbText
 73
3
  0
LINE
  5
190
330
17
100
AcDbEntity
  8
1A PROVA LIJEVA TRAKA
100
AcDbLine
 10
1280.0
 20
-3409.9321916103363
 30
0.0
 11
1280.0
 21
-3439.9321916103363
 31
0.0
  0
TEXT
  5
191
330
17
100
AcDbEntity
  8
1A PROVA LIJEVA TRAKA
100
AcDbText
 10
1283.0
 20
-3504.9321916103363
 30
0.0
 40
8.0
  1
U2 vrh 1290
 50
90.0
 11
1283.0
 21
-3504.9321916103363
 31
0.0
100
AcDbText
 73
3
  0
LINE
  5
192
330
17
100
AcDbEntity
  8
1A PROVA LIJEVA TRAKA
100
AcDbLine
 10
1317.0
 20
-3409.9321916103363
 30
0.0
 11
1317.0
 21
-3499.9321916103363
 31
0.0
  0
TEXT
  5
193
330
17
100
AcDbEntity
  8
1A PROVA LIJEVA TRAKA
100
AcDbText
 10
1320.0
 20
-3504.9321916103363
 30
0.0
 40
8.0
  1
U2 kraj 1327
 50
90.0
 11
1320.0
 21
-3504.9321916103363
 31
0.0
100
AcDbText
 73
3
  0
LINE
  5
194
330
17
100
AcDbEntity
  8
1A PROVA LIJEVA TRAKA
100
AcDbLine
 10
2035.0
 20
-3409.9321916103363
 30
0.0
 11
2035.0
 21
-3499.9321916103363
 31
0.0
  0
TEXT
  5
195
330
17
100
AcDbEntity
  8
1A PROVA LIJEVA TRAKA
100
AcDbText
 10
2038.0
 20
-3504.9321916103363
 30
0.0
 40
8.0
  1
U3 poč 2045
 50
90.0
 11
2038.0
 21
-3504.9321916103363
 31
0.0
100
AcDbText
 73
3
  0
LINE
  5
196
330
17
100
AcDbEntity
  8
1A PROVA LIJEVA TRAKA
100
AcDbLine
 10
2076.0
 20
-3409.9321916103363
 30
0.0
 11
2076.0
 21
-3439.9321916103363
 31
0.0
  0
TEXT
  5
197
330
17
100
AcDbEntity
  8
1A PROVA LIJEVA TRAKA
100
AcDbText
 10
2079.0
 20
-3504.9321916103363
 30
0.0
 40
8.0
  1
U3 vrh 2086
 50
90.0
 11
2079.0
 21
-3504.9321916103363
 31
0.0
100
AcDbText
 73
3
  0
LINE
  5
198
330
17
100
AcDbEntity
  8
1A PROVA LIJEVA TRAKA
100
AcDbLine
 10
2138.0
 20
-3409.9321916103363
 30
0.0
 11
2138.0
 21
-3499.9321916103363
 31
0.0
  0
TEXT
  5
199
330
17
100
AcDbEntity
  8
1A PROVA LIJEVA TRAKA
100
AcDbText
 10
2141.0
 20
-3504.9321916103363
 30
0.0
 40
8.0
  1
U3 kraj 2148
 50
90.0
 11
2141.0
 21
-3504.9321916103363
 31
0.0
100
AcDbText
 73
3
  0
LINE
  5
19A
330
17
100
AcDbEntity
  8
1A PROVA LIJEVA TRAKA
100
AcDbLine
 10
2464.0
 20
-3409.9321916103363
 30
0.0
 11
2464.0
 21
-3499.9321916103363
 31
0.0
  0
TEXT
  5
19B
330
17
100
AcDbEntity
  8
1A PROVA LIJEVA TRAKA
100
AcDbText
 10
2467.0
 20
-3504.9321916103363
 30
0.0
 40
8.0
  1
U4 poč 2474
 50
90.0
 11
2467.0
 21
-3504.9321916103363
 31
0.0
100
AcDbText
 73
3
  0
LINE
  5
19C
330
17
100
AcDbEntity
  8
1A PROVA LIJEVA TRAKA
100
AcDbLine
 10
2464.0
 20
-3409.9321916103363
 30
0.0
 11
2464.0
 21
-3439.9321916103363
 31
0.0
  0
TEXT
  5
19D
330
17
100
AcDbEntity
  8
1A PROVA LIJEVA TRAKA
100
AcDbText
 10
2467.0
 20
-3504.9321916103363
 30
0.0
 40
8.0
  1
U4 vrh 2474
 50
90.0
 11
2467.0
 21
-3504.9321916103363
 31
0.0
100
AcDbText
 73
3
  0
LINE
  5
19E
330
17
100
AcDbEntity
  8
1A PROVA LIJEVA TRAKA
100
AcDbLine
 10
54.0
 20
-3409.9321916103363
 30
0.0
 11
54.0
 21
-3499.9321916103363
 31
0.0
  0
TEXT
  5
19F
330
17
100
AcDbEntity
  8
1A PROVA LIJEVA TRAKA
100
AcDbText
 10
57.0
 20
-3504.9321916103363
 30
0.0
 40
8.0
  1
U4 kraj 64
 50
90.0
 11
57.0
 21
-3504.9321916103363
 31
0.0
100
AcDbText
 73
3
  0
LINE
  5
1A0
330
17
100
AcDbEntity
  8
1A PROVA LIJEVA TRAKA
100
AcDbLine
 10
2473.7406940885567
 20
-3409.9321916103363
 30
0.0
 11
2473.7406940885567
 21
-3499.9321916103363
 31
0.0
  0
TEXT
  5
1A1
330
17
100
AcDbEntity
  8
1A PROVA LIJEVA TRAKA
100
AcDbText
 10
2476.7406940885567
 20
-3504.9321916103363
 30
0.0
 40
8.0
  1
KRAJ 2484
 50
90.0
 11
2476.7406940885567
 21
-3504.9321916103363
 31
0.0
100
AcDbText
 73
3
  0
DIMENSION
  5
1A2
330
17
100
AcDbEntity
  8
KOTE
100
AcDbDimension
280
0
  2
*D9
  3
EZDXF
 10
-10.0
 20
-3579.9321916103363
 30
0.0
 11
1231.8703470442783
 21
-3567.3321916103364
 31
0.0
 70
32
 71
5
  1
<>
100
AcDbAlignedDimension
 13
-10.0
 23
-3499.9321916103363
 33
0.0
 14
2473.7406940885567
 24
-3499.9321916103363
 34
0.0
 50
0.0
100
AcDbRotatedDimension
1001
ACAD
1000
DSTYLE
1002
{
1070
140
1040
25.0
1070
41
1040
15.0
1070
271
1070
0
1070
44
1040
10.0
1070
42
1040
5.0
1002
}
  0
LWPOLYLINE
  5
1B4
330
17
100
AcDbEntity
  8
1F LICE KONTURA
100
AcDbPolyline
 90
195
 70
1
 10
1.148630142211914
 20
-3981.5132553577423
 10
1.040910243988037
 20
-3993.41966176033
 10
1.888479232788086
 20
-3997.068682909012
 10
6.275285243988037
 20
-4005.251849412918
 10
10.994361400604248
 20
-4017.2972843647003
 10
12.659299373626709
 20
-4019.590964078903
 10
15.607905864715576
 20
-4021.999102830887
 10
18.953359127044678
 20
-4023.569131195545
 10
22.448956966400146
 20
-4024.2643400132656
 10
36.924344539642334
 20
-4024.004927461967
 10
42.51967763900757
 20
-4023.326659619808
 10
60.69640874862671
 20
-4025.0303233861923
 10
70.68440008163452
 20
-4025.0096714496613
 10
76.24414587020874
 20
-4024.4494759738445
 10
82.8562216758728
 20
-4025.0032747983932
 10
98.09701299667358
 20
-4023.5770241618156
 10
120.54988622665405
 20
-4024.744505226612
 10
126.15138006210327
 20
-4024.0621497463435
 10
139.1233344078064
 20
-4023.993738863617
 10
146.7219672203064
 20
-4023.0756964683533
 10
153.34083318710327
 20
-4023.9654927551746
 10
178.30564641952515
 20
-4024.051919501275
 10
185.9016547203064
 20
-4024.969684243202
 10
194.48708868026733
 20
-4024.040641654283
 10
199.42429876327515
 20
-4024.1809368282557
 10
205.08279180526733
 20
-4025.005753517151
 10
235.03175115585327
 20
-4024.938506424427
 10
240.67886114120483
 20
-4024.086217738688
 10
248.65755987167358
 20
-4024.03489709532
 10
259.25433111190796
 20
-4025.0090538859367
 10
283.24261236190796
 20
-4025.030509352684
 10
290.8734107017517
 20
-4024.1387539058924
 10
302.79852056503296
 20
-4024.1119878962636
 10
310.41912603378296
 20
-4025.028400719166
 10
341.40908575057983
 20
-4025.014871120453
 10
347.00054693222046
 20
-4024.4149256050587
 10
352.59698247909546
 20
-4025.0158292651176
 10
389.5873694419861
 20
-4025.0281298160553
 10
396.20181035995483
 20
-4024.316604554653
 10
404.7623267173767
 20
-4025.033834218979
 10
437.75967168807983
 20
-4025.027076601982
 10
448.58926153182983
 20
-4024.4322394430637
 10
463.7277808189392
 20
-4025.621050953865
 10
469.28872442245483
 20
-4025.0593782663345
 10
492.2720923423767
 20
-4025.0510618686676
 10
507.6391577720642
 20
-4026.579966545105
 10
517.5317969322205
 20
-4029.254015684128
 10
526.771909236908
 20
-4033.5031855106354
 10
532.1184668540955
 20
-4034.634706735611
 10
536.590024471283
 20
-4033.711170434952
 10
544.308286190033
 20
-4030.616926431656
 10
553.3716406822205
 20
-4028.3550431728363
 10
565.474057674408
 20
-4026.1873552799225
 10
582.1802344322205
 20
-4025.0605092048645
 10
588.1235938072205
 20
-4025.1434972286224
 10
595.756284236908
 20
-4026.030789732933
 10
618.744321346283
 20
-4026.0085402727127
 10
624.2971167564392
 20
-4025.456991791725
 10
628.941342830658
 20
-4026.0007812976837
 10
640.9238257408142
 20
-4026.0260393619537
 10
647.5466284751892
 20
-4025.240751862526
 10
655.102719783783
 20
-4026.026434659958
 10
694.0952734947205
 20
-4026.022698402405
 10
712.3016333580017
 20
-4024.1055788323283
 10
723.2217993736267
 20
-4023.912109442055
 10
746.092954158783
 20
-4021.2529804706573
 10
751.6431860923767
 20
-4021.834882736206
 10
758.2132544517517
 20
-4021.0609788894653
 10
776.2012305259705
 20
-4021.038411140442
 10
801.0300269126892
 20
-4023.4934007525444
 10
816.5202612876892
 20
-4023.098999798298
 10
822.1649146080017
 20
-4023.9572880491614
 10
829.040952205658
 20
-4024.256918042898
 10
838.122983455658
 20
-4026.415924310684
 10
840.788510799408
 20
-4026.594945907593
 10
849.6860938072205
 20
-4024.1258512735367
 10
855.4876685142517
 20
-4021.2382979393005
 10
857.593930721283
 20
-4019.268553495407
 10
859.1380591392517
 20
-4016.917499780655
 10
859.857358455658
 20
-4014.2157270908356
 10
859.9512305259705
 20
-4011.2760689258575
 10
859.4190039634705
 20
-4007.499673128128
 10
853.0071387290955
 20
-3987.154998064041
 10
847.1895728111267
 20
-3972.564303636551
 10
842.7357153892517
 20
-3959.408789873123
 10
835.7629981040955
 20
-3943.2965157032013
 10
814.5534644126892
 20
-3872.0798790454865
 10
810.441831111908
 20
-3859.782637834549
 10
801.2056860923767
 20
-3836.6077110767365
 10
796.3758521080017
 20
-3821.607894182205
 10
789.531919002533
 20
-3805.442275285721
 10
783.5465064048767
 20
-3788.921065568924
 10
773.4057593345642
 20
-3764.120803117752
 10
770.676450252533
 20
-3755.2510826587677
 10
766.3679785728455
 20
-3746.0354454517365
 10
759.5246558189392
 20
-3726.869521379471
 10
752.1258521080017
 20
-3708.9336998462677
 10
747.6694922447205
 20
-3699.7793419361115
 10
740.2886939048767
 20
-3680.8360130786896
 10
728.8373999595642
 20
-3646.57835316658
 10
721.4309058189392
 20
-3622.6455833911896
 10
714.5573706626892
 20
-3608.4922935962677
 10
699.4680762290955
 20
-3568.741378068924
 10
686.773618221283
 20
-3540.9987938404083
 10
673.3911108970642
 20
-3508.5410912036896
 10
668.0762915611267
 20
-3496.7422020435333
 10
660.6296362876892
 20
-3482.826308488846
 10
655.7200903892517
 20
-3477.9820091724396
 10
645.066342830658
 20
-3469.902724504471
 10
620.3288550376892
 20
-3459.614455461502
 10
615.9788794517517
 20
-3458.738723039627
 10
599.1755347251892
 20
-3460.9185326099396
 10
591.3574194908142
 20
-3461.3579857349396
 10
585.9815649986267
 20
-3462.865126848221
 10
576.8187232017517
 20
-3467.301162004471
 10
572.434262752533
 20
-3468.7874290943146
 10
564.2524390220642
 20
-3470.7632591724396
 10
550.7734961509705
 20
-3471.993849992752
 10
537.2634253501892
 20
-3470.863723039627
 10
530.013852596283
 20
-3469.7390282154083
 10
510.2659888267517
 20
-3470.0276024341583
 10
504.65386724472046
 20
-3469.5965111255646
 10
491.9202551841736
 20
-3470.0317528247833
 10
485.35085821151733
 20
-3469.602248430252
 10
480.75518560409546
 20
-3469.963820695877
 10
474.1440405845642
 20
-3469.076857805252
 10
461.20083379745483
 20
-3468.9773705005646
 10
443.77483892440796
 20
-3467.584609270096
 10
433.0548071861267
 20
-3468.025283098221
 10
399.07119512557983
 20
-3468.0637352466583
 10
392.44793462753296
 20
-3468.9736473560333
 10
382.90240240097046
 20
-3468.745314836502
 10
374.33001470565796
 20
-3469.1042625904083
 10
367.7111487388611
 20
-3469.9934837818146
 10
359.12396001815796
 20
-3469.047255754471
 10
330.1400122642517
 20
-3469.0068504810333
 10
323.52422857284546
 20
-3468.118605852127
 10
317.95965337753296
 20
-3468.653945207596
 10
312.3907446861267
 20
-3468.119094133377
 10
301.60174322128296
 20
-3469.014846086502
 10
280.6201148033142
 20
-3469.0163719654083
 10
273.9892249107361
 20
-3468.1248314380646
 10
267.10305547714233
 20
-3467.8496239185333
 10
257.7808814048767
 20
-3466.212599992752
 10
250.89625310897827
 20
-3465.9336693286896
 10
245.24813604354858
 20
-3465.0838158130646
 10
206.27053594589233
 20
-3465.027480363846
 10
199.71833562850952
 20
-3464.4495384693146
 10
195.07986211776733
 20
-3464.9969017505646
 10
188.09895086288452
 20
-3465.0263817310333
 10
180.48360967636108
 20
-3464.097304582596
 10
170.53425359725952
 20
-3464.0948021411896
 10
155.82246160507202
 20
-3467.205703020096
 10
147.85122442245483
 20
-3469.689894914627
 10
121.57661962509155
 20
-3476.2712547779083
 10
79.31800603866577
 20
-3487.7207176685333
 10
65.3558554649353
 20
-3495.0557396411896
 10
54.80474615097046
 20
-3498.554335832596
 10
50.6833815574646
 20
-3500.6758568286896
 10
42.20775747299194
 20
-3508.9644310474396
 10
33.23552846908569
 20
-3522.2483971118927
 10
21.999351024627686
 20
-3543.5948326587677
 10
14.154531002044678
 20
-3566.3460228443146
 10
13.865643978118896
 20
-3577.2266380786896
 10
12.13501501083374
 20
-3587.5100548267365
 10
10.897255420684814
 20
-3606.9978477954865
 10
10.038974285125732
 20
-3612.642470598221
 10
9.916208744049072
 20
-3619.591780900955
 10
9.05792760848999
 20
-3625.2364342212677
 10
8.874735355377197
 20
-3652.1611778736115
 10
8.097681522369385
 20
-3656.8394310474396
 10
7.813430309295654
 20
-3665.72190785408
 10
6.075083255767822
 20
-3676.002120256424
 10
5.900420665740967
 20
-3685.9300377368927
 10
5.042139530181885
 20
-3691.574660539627
 10
4.919363498687744
 20
-3708.5242149829865
 10
4.061082363128662
 20
-3714.168837785721
 10
3.9442734718322754
 20
-3729.12083363533
 10
2.9982619285583496
 20
-3736.729171037674
 10
2.956815242767334
 20
-3773.7128899097443
 10
1.0210795402526855
 20
-3786.9114067554474
 10
1.0593352317810059
 20
-3796.862975358963
 10
1.95939302444458
 20
-3803.4903252124786
 10
1.9759535789489746
 20
-3816.47923207283
 10
0.0
 20
-3831.6611473560333
 10
0.0483241081237793
 20
-3886.6270744800568
 10
0.9548029899597168
 20
-3893.2517693042755
 10
1.0271811485290527
 20
-3920.2224419116974
 10
1.4609332084655762
 20
-3923.0428459644318
 10
5.125725269317627
 20
-3932.525099992752
 10
6.552450656890869
 20
-3937.934279680252
 10
7.818979740142822
 20
-3945.4098579883575
 10
7.856680393218994
 20
-3957.2911751270294
 10
6.643100261688232
 20
-3964.788684129715
 10
4.939206600189209
 20
-3971.083075761795
  0
LWPOLYLINE
  5
1B5
330
17
100
AcDbEntity
  8
1F LICE OFFSET
100
AcDbPolyline
 90
197
 70
1
 10
24.654738903045654
 20
-3517.113204240799
 10
34.3173041343689
 20
-3502.8210594654083
 10
44.59417486190796
 20
-3492.743544816971
 10
50.93100118637085
 20
-3489.335097551346
 10
61.43060827255249
 20
-3485.8218529224396
 10
75.32571172714233
 20
-3478.552199602127
 10
118.96152257919312
 20
-3466.6192162036896
 10
145.14651250839233
 20
-3460.0584251880646
 10
153.75364446640015
 20
-3457.422072649002
 10
169.84185552597046
 20
-3454.118788957596
 10
181.09148931503296
 20
-3454.1157982349396
 10
188.6856665611267
 20
-3455.023818254471
 10
194.47083806991577
 20
-3454.999404191971
 10
199.91329717636108
 20
-3454.4514305591583
 10
206.71792364120483
 20
-3455.0280907154083
 10
246.0013861656189
 20
-3455.112197160721
 10
251.84542608261108
 20
-3455.9639427661896
 10
258.8504614830017
 20
-3456.269973039627
 10
268.17229986190796
 20
-3457.8843529224396
 10
274.3885474205017
 20
-3458.1328270435333
 10
281.28899908065796
 20
-3459.016310930252
 10
301.1869788169861
 20
-3459.014846086502
 10
312.1577124595642
 20
-3458.121779680252
 10
317.9588294029236
 20
-3458.607863664627
 10
323.71197271347046
 20
-3458.1203758716583
 10
330.8152747154236
 20
-3459.007766008377
 10
359.1379065513611
 20
-3459.047255754471
 10
367.5912756919861
 20
-3459.9197533130646
 10
373.91164922714233
 20
-3459.112990617752
 10
382.48403692245483
 20
-3458.754042863846
 10
391.88335943222046
 20
-3458.9572899341583
 10
399.05987310409546
 20
-3458.0637352466583
 10
432.84368658065796
 20
-3458.025527238846
 10
443.96816778182983
 20
-3457.5865013599396
 10
461.6381812095642
 20
-3458.980422258377
 10
474.8487219810486
 20
-3459.101699113846
 10
481.03094244003296
 20
-3459.9112083911896
 10
485.28472661972046
 20
-3459.602492570877
 10
492.0760474205017
 20
-3460.0205833911896
 10
504.3122534751892
 20
-3459.6023705005646
 10
510.5765357017517
 20
-3460.0219871997833
 10
530.429379940033
 20
-3459.7476341724396
 10
538.4482398033142
 20
-3460.927932024002
 10
550.7354102134705
 20
-3461.955764055252
 10
562.615415096283
 20
-3460.8711082935333
 10
569.6497168540955
 20
-3459.1724388599396
 10
573.0201392173767
 20
-3458.0298607349396
 10
582.163999080658
 20
-3453.622512102127
 10
589.361508846283
 20
-3451.559218645096
 10
598.2504858970642
 20
-3450.954726457596
 10
615.9995093345642
 20
-3448.738723039627
 10
623.5596289634705
 20
-3450.1507103443146
 10
650.0479712486267
 20
-3461.231887102127
 10
662.2669653892517
 20
-3470.422988176346
 10
668.0684180259705
 20
-3476.143203020096
 10
669.4465918540955
 20
-3478.1081688404083
 10
676.893247127533
 20
-3492.024062395096
 10
682.6361060142517
 20
-3504.7293236255646
 10
695.9460425376892
 20
-3537.0110313892365
 10
708.5613379478455
 20
-3564.580489397049
 10
723.7478613853455
 20
-3604.5256798267365
 10
730.7319312095642
 20
-3618.9725182056427
 10
738.3571753501892
 20
-3643.514632463455
 10
749.695249080658
 20
-3677.4336388111115
 10
756.8391699790955
 20
-3695.768996477127
 10
761.3701758384705
 20
-3705.120253801346
 10
768.768979549408
 20
-3723.056075334549
 10
775.6268286705017
 20
-3742.2280724048615
 10
780.0071997642517
 20
-3751.6543114185333
 10
782.8316016197205
 20
-3760.751143693924
 10
792.8026099205017
 20
-3785.1362755298615
 10
798.8438086509705
 20
-3801.787291765213
 10
805.5845923423767
 20
-3817.7092583179474
 10
810.620542049408
 20
-3833.2202446460724
 10
819.9257788658142
 20
-3856.6116478443146
 10
824.1374487876892
 20
-3869.2256004810333
 10
845.1769995689392
 20
-3939.8714592456818
 10
851.9132056236267
 20
-3955.437163591385
 10
856.5765357017517
 20
-3969.106684923172
 10
862.2960181236267
 20
-3983.4513618946075
 10
868.9565405845642
 20
-4004.4938023090363
 10
869.9170508384705
 20
-4010.4499990940094
 10
869.8522925376892
 20
-4014.5348942279816
 10
868.801450252533
 20
-4019.4902079105377
 10
867.8314185142517
 20
-4021.8597362041473
 10
864.846127986908
 20
-4026.1537144184113
 10
860.5804419517517
 20
-4029.844321012497
 10
852.9681372642517
 20
-4033.5719225406647
 10
841.4683814048767
 20
-4036.5718080997467
 10
836.3529028892517
 20
-4036.2580149173737
 10
827.6544165611267
 20
-4034.2059891223907
 10
821.1942114830017
 20
-4033.91006398201
 10
815.8909888267517
 20
-4033.118261575699
 10
800.6646094322205
 20
-4033.4867222309113
 10
775.714292049408
 20
-4031.0390298366547
 10
758.8064551353455
 20
-4031.0602424144745
 10
752.0765357017517
 20
-4031.825489282608
 10
746.1497168540955
 20
-4031.3137419223785
 10
724.3767066001892
 20
-4033.845198869705
 10
712.914975643158
 20
-4034.0962822437286
 10
694.0962500572205
 20
-4036.0226986408234
 10
655.103696346283
 20
-4036.0264341831207
 10
647.6191382408142
 20
-4035.3022062778473
 10
640.902768611908
 20
-4036.0260174274445
 10
628.9202857017517
 20
-4036.0007593631744
 10
624.2087988853455
 20
-4035.514970064163
 10
618.7540259361267
 20
-4036.0085356235504
 10
595.7659888267517
 20
-4036.030784845352
 10
587.4747290611267
 20
-4035.135412454605
 10
582.4473853111267
 20
-4035.0652134418488
 10
566.695737361908
 20
-4036.127672433853
 10
555.466245174408
 20
-4038.139016389847
 10
547.3939185142517
 20
-4040.153571367264
 10
539.1885962486267
 20
-4043.3676388263702
 10
532.0940527915955
 20
-4044.634677171707
 10
523.9822974205017
 20
-4043.106206178665
 10
514.1143164634705
 20
-4038.6891310214996
 10
505.8271460533142
 20
-4036.449057817459
 10
491.77764654159546
 20
-4035.051241159439
 10
469.79424810409546
 20
-4035.0591957569122
 10
463.5408911705017
 20
-4035.6193039417267
 10
448.4715247154236
 20
-4034.453780412674
 10
437.7617163658142
 20
-4035.0270760059357
 10
404.7643713951111
 20
-4035.0338337421417
 10
396.3201880455017
 20
-4034.361561059952
 10
389.58404302597046
 20
-4035.028128862381
 10
352.59365606307983
 20
-4035.015828371048
 10
347.00018072128296
 20
-4034.4723646640778
 10
341.4134497642517
 20
-4035.01486992836
 10
310.42349004745483
 20
-4035.028399705887
 10
302.21059942245483
 20
-4034.1133329868317
 10
291.4669165611267
 20
-4034.137446641922
 10
283.23367071151733
 20
-4035.0305054187775
 10
259.24538946151733
 20
-4035.009049654007
 10
248.23096990585327
 20
-4034.0378477573395
 10
241.46120977401733
 20
-4034.0813925266266
 10
235.05421209335327
 20
-4034.93848156929
 10
205.10525274276733
 20
-4035.005728006363
 10
198.55813360214233
 20
-4034.1603605747223
 10
194.88482427597046
 20
-4034.0559799671173
 10
186.21941900253296
 20
-4034.964634180069
 10
177.68647527694702
 20
-4034.0498354434967
 10
153.30621099472046
 20
-4033.965432405472
 10
146.65443181991577
 20
-4033.156574487686
 10
139.75045537948608
 20
-4033.9740555286407
 10
126.78448247909546
 20
-4034.0589497089386
 10
120.60761785507202
 20
-4034.744338274002
 10
98.3043417930603
 20
-4033.601313829422
 10
83.19968175888062
 20
-4034.9973747730255
 10
76.32880163192749
 20
-4034.491580247879
 10
71.19661474227905
 20
-4034.9965450763702
 10
60.7170844078064
 20
-4035.030302286148
 10
42.656339168548584
 20
-4033.3832972049713
 10
37.103524684906006
 20
-4034.0033218860626
 10
21.20313596725464
 20
-4034.1864330768585
 10
15.83091688156128
 20
-4033.069150209427
 10
10.280663013458252
 20
-4030.461991548538
 10
5.3897480964660645
 20
-4026.457813501358
 10
2.221604347229004
 20
-4022.097152352333
 10
-2.8189167976379395
 20
-4009.4528658390045
 10
-7.469930648803711
 20
-4000.592908143997
 10
-8.94645643234253
 20
-3993.922162294388
 10
-8.625869750976562
 20
-3979.4015839099884
 10
-4.603285729885101
 20
-3968.0634109973907
 10
-3.1453421115875244
 20
-3962.677588701248
 10
-2.14587140083313
 20
-3956.502852678299
 10
-2.178351640701294
 20
-3946.2667305469513
 10
-3.231779158115387
 20
-3940.048964738846
 10
-4.401998162269592
 20
-3935.6122810840607
 10
-8.102028369903564
 20
-3925.9668419361115
 10
-8.942694664001465
 20
-3920.998053789139
 10
-9.043369770050049
 20
-3893.9461205005646
 10
-9.951672077178955
 20
-3886.6358635425568
 10
-9.999996185302734
 20
-3831.6699364185333
 10
-8.024872779846191
 20
-3815.837554216385
 10
-8.039745330810547
 20
-3804.1726219654083
 10
-8.916583061218262
 20
-3797.556563615799
 10
-8.978846549987793
 20
-3786.949843645096
 10
-7.042367458343506
 20
-3772.9779045581818
 10
-7.001731872558594
 20
-3736.717971086502
 10
-6.050889492034912
 20
-3728.46263051033
 10
-5.907448410987854
 20
-3713.376113176346
 10
-5.0751625299453735
 20
-3707.7322838306427
 10
-4.926616191864014
 20
-3690.7847740650177
 10
-4.086290240287781
 20
-3685.0867149829865
 10
-3.882118374109268
 20
-3675.0779259204865
 10
-2.159746766090393
 20
-3664.723769426346
 10
-1.8540494441986084
 20
-3655.858077287674
 10
-1.1196541786193848
 20
-3651.3025658130646
 10
-0.9110019207000732
 20
-3624.4487450122833
 10
-0.07044720649719238
 20
-3618.7480919361115
 10
0.07446908950805664
 20
-3611.800673723221
 10
0.9451041221618652
 20
-3605.927230119705
 10
2.2011590003967285
 20
-3586.361800432205
 10
3.887801170349121
 20
-3576.2593834400177
 10
4.264951229095459
 20
-3564.8640587329865
 10
12.821311473846436
 20
-3539.624495744705
  0
TEXT
  5
1B6
330
17
100
AcDbEntity
  8
1F LICE OFFSET
100
AcDbText
 10
429.95852732658386
 20
-3746.686700105667
 30
0.0
 40
25.0
  1
1F LICE - OFFSET +10 mm
 72
1
 11
429.95852732658386
 21
-3746.686700105667
 31
0.0
100
AcDbText
 73
2
  0
DIMENSION
  5
1B7
330
17
100
AcDbEntity
  8
KOTE
100
AcDbDimension
280
0
  2
*D10
  3
EZDXF
 10
-9.999996185302734
 20
-4094.634677171707
 30
0.0
 11
429.95852732658386
 21
-4082.0346771717072
 31
0.0
 70
32
 71
5
  1
<>
100
AcDbAlignedDimension
 13
-9.999996185302734
 23
-4044.634677171707
 33
0.0
 14
869.9170508384705
 24
-4044.634677171707
 34
0.0
 50
0.0
100
AcDbRotatedDimension
1001
ACAD
1000
DSTYLE
1002
{
1070
140
1040
25.0
1070
41
1040
15.0
1070
271
1070
0
1070
44
1040
10.0
1070
42
1040
5.0
1002
}
  0
DIMENSION
  5
1C6
330
17
100
AcDbEntity
  8
KOTE
100
AcDbDimension
280
0
  2
*D11
  3
EZDXF
 10
-59.999996185302734
 20
-4044.634677171707
 30
0.0
 11
-72.59999618530273
 21
-3746.686700105667
 31
0.0
 70
32
 71
5
  1
<>
100
AcDbAlignedDimension
 13
-9.999996185302734
 23
-4044.634677171707
 33
0.0
 14
-9.999996185302734
 24
-3448.738723039627
 34
0.0
 50
90.0
100
AcDbRotatedDimension
1001
ACAD
1000
DSTYLE
1002
{
1070
140
1040
25.0
1070
41
1040
15.0
1070
271
1070
0
1070
44
1040
10.0
1070
42
1040
5.0
1002
}
  0
CIRCLE
  5
1D5
330
17
100
AcDbEntity
  8
1F LICE TRAKA
100
AcDbCircle
 10
1.148630142211914
 20
-3981.5132553577423
 30
0.0
 40
6.0
  0
TEXT
  5
1D6
330
17
100
AcDbEntity
  8
1F LICE TRAKA
100
AcDbText
 10
11.148630142211914
 20
-4001.5132553577423
 30
0.0
 40
10.0
  1
POČETAK TRAKE
 11
11.148630142211914
 21
-4001.5132553577423
 31
0.0
100
AcDbText
  0
CIRCLE
  5
1D7
330
17
100
AcDbEntity
  8
1F LICE TRAKA
100
AcDbCircle
 10
520.8086372867044
 20
-4030.7609076678423
 30
0.0
 40
4.0
  0
CIRCLE
  5
1D8
330
17
100
AcDbEntity
  8
1F LICE TRAKA
100
AcDbCircle
 10
543.4609124905171
 20
-4030.9566377661276
 30
0.0
 40
4.0
  0
TEXT
  5
1D9
330
17
100
AcDbEntity
  8
1F LICE TRAKA
100
AcDbText
 10
532.0890350289758
 20
-4034.6284779175194
 30
0.0
 40
12.0
  1
U1
 72
1
 11
532.0890350289758
 21
-4034.6284779175194
 31
0.0
100
AcDbText
 73
2
  0
CIRCLE
  5
1DA
330
17
100
AcDbEntity
  8
1F LICE TRAKA
100
AcDbCircle
 10
832.0387013912938
 20
-4024.969551494918
 30
0.0
 40
4.0
  0
CIRCLE
  5
1DB
330
17
100
AcDbEntity
  8
1F LICE TRAKA
100
AcDbCircle
 10
855.7799572376828
 20
-3995.9530762373724
 30
0.0
 40
4.0
  0
TEXT
  5
1DC
330
17
100
AcDbEntity
  8
1F LICE TRAKA
100
AcDbText
 10
858.9514100546522
 20
-4017.201687299385
 30
0.0
 40
12.0
  1
U2
 72
1
 11
858.9514100546522
 21
-4017.201687299385
 31
0.0
100
AcDbText
 73
2
  0
CIRCLE
  5
1DD
330
17
100
AcDbEntity
  8
1F LICE TRAKA
100
AcDbCircle
 10
668.0957459067866
 20
-3496.7853906551522
 30
0.0
 40
4.0
  0
CIRCLE
  5
1DE
330
17
100
AcDbEntity
  8
1F LICE TRAKA
100
AcDbCircle
 10
583.909223130649
 20
-3463.8684161754745
 30
0.0
 40
4.0
  0
TEXT
  5
1DF
330
17
100
AcDbEntity
  8
1F LICE TRAKA
100
AcDbText
 10
616.3079593056673
 20
-3458.8049730430503
 30
0.0
 40
12.0
  1
U3
 72
1
 11
616.3079593056673
 21
-3458.8049730430503
 31
0.0
100
AcDbText
 73
2
  0
CIRCLE
  5
1E0
330
17
100
AcDbEntity
  8
1F LICE TRAKA
100
AcDbCircle
 10
574.8100078177056
 20
-3467.9820867391672
 30
0.0
 40
4.0
  0
CIRCLE
  5
1E1
330
17
100
AcDbEntity
  8
1F LICE TRAKA
100
AcDbCircle
 10
546.253490646542
 20
-3471.615748343682
 30
0.0
 40
4.0
  0
TEXT
  5
1E2
330
17
100
AcDbEntity
  8
1F LICE TRAKA
100
AcDbText
 10
564.1796779055769
 20
-3470.7699020644586
 30
0.0
 40
12.0
  1
U4
 72
1
 11
564.1796779055769
 21
-3470.7699020644586
 31
0.0
100
AcDbText
 73
2
  0
CIRCLE
  5
1E3
330
17
100
AcDbEntity
  8
1F LICE TRAKA
100
AcDbCircle
 10
59.49720681179388
 20
-3496.998383324877
 30
0.0
 40
4.0
  0
CIRCLE
  5
1E4
330
17
100
AcDbEntity
  8
1F LICE TRAKA
100
AcDbCircle
 10
32.98809367235039
 20
-3522.718472541608
 30
0.0
 40
4.0
  0
TEXT
  5
1E5
330
17
100
AcDbEntity
  8
1F LICE TRAKA
100
AcDbText
 10
50.38332689341807
 20
-3500.9692895397025
 30
0.0
 40
12.0
  1
U5
 72
1
 11
50.38332689341807
 21
-3500.9692895397025
 31
0.0
100
AcDbText
 73
2
  0
CIRCLE
  5
1E6
330
17
100
AcDbEntity
  8
1F LICE TRAKA
100
AcDbCircle
 10
5.961543450842811
 20
-3935.693958393484
 30
0.0
 40
4.0
  0
CIRCLE
  5
1E7
330
17
100
AcDbEntity
  8
1F LICE TRAKA
100
AcDbCircle
 10
5.958388471341721
 20
-3967.3180932477417
 30
0.0
 40
4.0
  0
TEXT
  5
1E8
330
17
100
AcDbEntity
  8
1F LICE TRAKA
100
AcDbText
 10
7.8192960663050854
 20
-3945.5095478119138
 30
0.0
 40
12.0
  1
U6
 72
1
 11
7.8192960663050854
 21
-3945.5095478119138
 31
0.0
100
AcDbText
 73
2
  0
CIRCLE
  5
1E9
330
17
100
AcDbEntity
  8
1F LICE TRAKA
100
AcDbCircle
 10
4.563866155804401
 20
-3972.115865441137
 30
0.0
 40
4.0
  0
CIRCLE
  5
1EA
330
17
100
AcDbEntity
  8
1F LICE TRAKA
100
AcDbCircle
 10
33.66358184031877
 20
-4024.063363394458
 30
0.0
 40
4.0
  0
TEXT
  5
1EB
330
17
100
AcDbEntity
  8
1F LICE TRAKA
100
AcDbText
 10
4.563866155804401
 20
-3972.115865441137
 30
0.0
 40
12.0
  1
U7
 72
1
 11
4.563866155804401
 21
-3972.115865441137
 31
0.0
100
AcDbText
 73
2
  0
LWPOLYLINE
  5
1EC
330
17
100
AcDbEntity
  8
1F LICE TRAKA
100
AcDbPolyline
 90
4
 70
1
 10
-9.999996185302734
 20
-4244.634677171707
 10
2577.6735623223954
 20
-4244.634677171707
 10
2577.6735623223954
 20
-4334.634677171707
 10
-9.999996185302734
 20
-4334.634677171707
  0
TEXT
  5
1ED
330
17
100
AcDbEntity
  8
1F LICE TRAKA
100
AcDbText
 10
-9.999996185302734
 20
-4229.634677171707
 30
0.0
 40
12.0
  1
1F LICE - TRAKA 90 x 2588 mm  (opseg konture; početak = točka konture najbliža ishodištu, smjer CCW)
 11
-9.999996185302734
 21
-4229.634677171707
 31
0.0
100
AcDbText
  0
LINE
  5
1EE
330
17
100
AcDbEntity
  8
1F LICE TRAKA
100
AcDbLine
 10
-9.999996185302734
 20
-4244.634677171707
 30
0.0
 11
-9.999996185302734
 21
-4334.634677171707
 31
0.0
  0
TEXT
  5
1EF
330
17
100
AcDbEntity
  8
1F LICE TRAKA
100
AcDbText
 10
-6.999996185302734
 20
-4339.634677171707
 30
0.0
 40
8.0
  1
POČETAK 0
 50
90.0
 11
-6.999996185302734
 21
-4339.634677171707
 31
0.0
100
AcDbText
 73
3
  0
LINE
  5
1F0
330
17
100
AcDbEntity
  8
1F LICE TRAKA
100
AcDbLine
 10
542.0000038146973
 20
-4244.634677171707
 30
0.0
 11
542.0000038146973
 21
-4334.634677171707
 31
0.0
  0
TEXT
  5
1F1
330
17
100
AcDbEntity
  8
1F LICE TRAKA
100
AcDbText
 10
545.0000038146973
 20
-4339.634677171707
 30
0.0
 40
8.0
  1
U1 poč 552
 50
90.0
 11
545.0000038146973
 21
-4339.634677171707
 31
0.0
100
AcDbText
 73
3
  0
LINE
  5
1F2
330
17
100
AcDbEntity
  8
1F LICE TRAKA
100
AcDbLine
 10
554.0000038146973
 20
-4244.634677171707
 30
0.0
 11
554.0000038146973
 21
-4274.634677171707
 31
0.0
  0
TEXT
  5
1F3
330
17
100
AcDbEntity
  8
1F LICE TRAKA
100
AcDbText
 10
557.0000038146973
 20
-4339.634677171707
 30
0.0
 40
8.0
  1
U1 vrh 564
 50
90.0
 11
557.0000038146973
 21
-4339.634677171707
 31
0.0
100
AcDbText
 73
3
  0
LINE
  5
1F4
330
17
100
AcDbEntity
  8
1F LICE TRAKA
100
AcDbLine
 10
566.0000038146973
 20
-4244.634677171707
 30
0.0
 11
566.0000038146973
 21
-4334.634677171707
 31
0.0
  0
TEXT
  5
1F5
330
17
100
AcDbEntity
  8
1F LICE TRAKA
100
AcDbText
 10
569.0000038146973
 20
-4339.634677171707
 30
0.0
 40
8.0
  1
U1 kraj 576
 50
90.0
 11
569.0000038146973
 21
-4339.634677171707
 31
0.0
100
AcDbText
 73
3
  0
LINE
  5
1F6
330
17
100
AcDbEntity
  8
1F LICE TRAKA
100
AcDbLine
 10
856.0000038146973
 20
-4244.634677171707
 30
0.0
 11
856.0000038146973
 21
-4334.634677171707
 31
0.0
  0
TEXT
  5
1F7
330
17
100
AcDbEntity
  8
1F LICE TRAKA
100
AcDbText
 10
859.0000038146973
 20
-4339.634677171707
 30
0.0
 40
8.0
  1
U2 poč 866
 50
90.0
 11
859.0000038146973
 21
-4339.634677171707
 31
0.0
100
AcDbText
 73
3
  0
LINE
  5
1F8
330
17
100
AcDbEntity
  8
1F LICE TRAKA
100
AcDbLine
 10
886.0000038146973
 20
-4244.634677171707
 30
0.0
 11
886.0000038146973
 21
-4274.634677171707
 31
0.0
  0
TEXT
  5
1F9
330
17
100
AcDbEntity
  8
1F LICE TRAKA
100
AcDbText
 10
889.0000038146973
 20
-4339.634677171707
 30
0.0
 40
8.0
  1
U2 vrh 896
 50
90.0
 11
889.0000038146973
 21
-4339.634677171707
 31
0.0
100
AcDbText
 73
3
  0
LINE
  5
1FA
330
17
100
AcDbEntity
  8
1F LICE TRAKA
100
AcDbLine
 10
908.0000038146973
 20
-4244.634677171707
 30
0.0
 11
908.0000038146973
 21
-4334.634677171707
 31
0.0
  0
TEXT
  5
1FB
330
17
100
AcDbEntity
  8
1F LICE TRAKA
100
AcDbText
 10
911.0000038146973
 20
-4339.634677171707
 30
0.0
 40
8.0
  1
U2 kraj 918
 50
90.0
 11
911.0000038146973
 21
-4339.634677171707
 31
0.0
100
AcDbText
 73
3
  0
LINE
  5
1FC
330
17
100
AcDbEntity
  8
1F LICE TRAKA
100
AcDbLine
 10
1442.0000038146973
 20
-4244.634677171707
 30
0.0
 11
1442.0000038146973
 21
-4334.634677171707
 31
0.0
  0
TEXT
  5
1FD
330
17
100
AcDbEntity
  8
1F LICE TRAKA
100
AcDbText
 10
1445.0000038146973
 20
-4339.634677171707
 30
0.0
 40
8.0
  1
U3 poč 1452
 50
90.0
 11
1445.0000038146973
 21
-4339.634677171707
 31
0.0
100
AcDbText
 73
3
  0
LINE
  5
1FE
330
17
100
AcDbEntity
  8
1F LICE TRAKA
100
AcDbLine
 10
1509.0000038146973
 20
-4244.634677171707
 30
0.0
 11
1509.0000038146973
 21
-4274.634677171707
 31
0.0
  0
TEXT
  5
1FF
330
17
100
AcDbEntity
  8
1F LICE TRAKA
100
AcDbText
 10
1512.0000038146973
 20
-4339.634677171707
 30
0.0
 40
8.0
  1
U3 vrh 1519
 50
90.0
 11
1512.0000038146973
 21
-4339.634677171707
 31
0.0
100
AcDbText
 73
3
  0
LINE
  5
200
330
17
100
AcDbEntity
  8
1F LICE TRAKA
100
AcDbLine
 10
1542.0000038146973
 20
-4244.634677171707
 30
0.0
 11
1542.0000038146973
 21
-4334.634677171707
 31
0.0
  0
TEXT
  5
201
330
17
100
AcDbEntity
  8
1F LICE TRAKA
100
AcDbText
 10
1545.0000038146973
 20
-4339.634677171707
 30
0.0
 40
8.0
  1
U3 kraj 1552
 50
90.0
 11
1545.0000038146973
 21
-4339.634677171707
 31
0.0
100
AcDbText
 73
3
  0
LINE
  5
202
330
17
100
AcDbEntity
  8
1F LICE TRAKA
100
AcDbLine
 10
1552.0000038146973
 20
-4244.634677171707
 30
0.0
 11
1552.0000038146973
 21
-4334.634677171707
 31
0.0
  0
TEXT
  5
203
330
17
100
AcDbEntity
  8
1F LICE TRAKA
100
AcDbText
 10
1555.0000038146973
 20
-4339.634677171707
 30
0.0
 40
8.0
  1
U4 poč 1562
 50
90.0
 11
1555.0000038146973
 21
-4339.634677171707
 31
0.0
100
AcDbText
 73
3
  0
LINE
  5
204
330
17
100
AcDbEntity
  8
1F LICE TRAKA
100
AcDbLine
 10
1563.0000038146973
 20
-4244.634677171707
 30
0.0
 11
1563.0000038146973
 21
-4274.634677171707
 31
0.0
  0
TEXT
  5
205
330
17
100
AcDbEntity
  8
1F LICE TRAKA
100
AcDbText
 10
1566.0000038146973
 20
-4339.634677171707
 30
0.0
 40
8.0
  1
U4 vrh 1573
 50
90.0
 11
1566.0000038146973
 21
-4339.634677171707
 31
0.0
100
AcDbText
 73
3
  0
LINE
  5
206
330
17
100
AcDbEntity
  8
1F LICE TRAKA
100
AcDbLine
 10
1581.0000038146973
 20
-4244.634677171707
 30
0.0
 11
1581.0000038146973
 21
-4334.634677171707
 31
0.0
  0
TEXT
  5
207
330
17
100
AcDbEntity
  8
1F LICE TRAKA
100
AcDbText
 10
1584.0000038146973
 20
-4339.634677171707
 30
0.0
 40
8.0
  1
U4 kraj 1591
 50
90.0
 11
1584.0000038146973
 21
-4339.634677171707
 31
0.0
100
AcDbText
 73
3
  0
LINE
  5
208
330
17
100
AcDbEntity
  8
1F LICE TRAKA
100
AcDbLine
 10
2074.0000038146973
 20
-4244.634677171707
 30
0.0
 11
2074.0000038146973
 21
-4334.634677171707
 31
0.0
  0
TEXT
  5
209
330
17
100
AcDbEntity
  8
1F LICE TRAKA
100
AcDbText
 10
2077.0000038146973
 20
-4339.634677171707
 30
0.0
 40
8.0
  1
U5 poč 2084
 50
90.0
 11
2077.0000038146973
 21
-4339.634677171707
 31
0.0
100
AcDbText
 73
3
  0
LINE
  5
20A
330
17
100
AcDbEntity
  8
1F LICE TRAKA
100
AcDbLine
 10
2084.0000038146973
 20
-4244.634677171707
 30
0.0
 11
2084.0000038146973
 21
-4274.634677171707
 31
0.0
  0
TEXT
  5
20B
330
17
100
AcDbEntity
  8
1F LICE TRAKA
100
AcDbText
 10
2087.0000038146973
 20
-4339.634677171707
 30
0.0
 40
8.0
  1
U5 vrh 2094
 50
90.0
 11
2087.0000038146973
 21
-4339.634677171707
 31
0.0
100
AcDbText
 73
3
  0
LINE
  5
20C
330
17
100
AcDbEntity
  8
1F LICE TRAKA
100
AcDbLine
 10
2112.0000038146973
 20
-4244.634677171707
 30
0.0
 11
2112.0000038146973
 21
-4334.634677171707
 31
0.0
  0
TEXT
  5
20D
330
17
100
AcDbEntity
  8
1F LICE TRAKA
100
AcDbText
 10
2115.0000038146973
 20
-4339.634677171707
 30
0.0
 40
8.0
  1
U5 kraj 2122
 50
90.0
 11
2115.0000038146973
 21
-4339.634677171707
 31
0.0
100
AcDbText
 73
3
  0
LINE
  5
20E
330
17
100
AcDbEntity
  8
1F LICE TRAKA
100
AcDbLine
 10
2531.0000038146973
 20
-4244.634677171707
 30
0.0
 11
2531.0000038146973
 21
-4334.634677171707
 31
0.0
  0
TEXT
  5
20F
330
17
100
AcDbEntity
  8
1F LICE TRAKA
100
AcDbText
 10
2534.0000038146973
 20
-4339.634677171707
 30
0.0
 40
8.0
  1
U6 poč 2541
 50
90.0
 11
2534.0000038146973
 21
-4339.634677171707
 31
0.0
100
AcDbText
 73
3
  0
LINE
  5
210
330
17
100
AcDbEntity
  8
1F LICE TRAKA
100
AcDbLine
 10
2541.0000038146973
 20
-4244.634677171707
 30
0.0
 11
2541.0000038146973
 21
-4274.634677171707
 31
0.0
  0
TEXT
  5
211
330
17
100
AcDbEntity
  8
1F LICE TRAKA
100
AcDbText
 10
2544.0000038146973
 20
-4339.634677171707
 30
0.0
 40
8.0
  1
U6 vrh 2551
 50
90.0
 11
2544.0000038146973
 21
-4339.634677171707
 31
0.0
100
AcDbText
 73
3
  0
LINE
  5
212
330
17
100
AcDbEntity
  8
1F LICE TRAKA
100
AcDbLine
 10
2563.0000038146973
 20
-4244.634677171707
 30
0.0
 11
2563.0000038146973
 21
-4334.634677171707
 31
0.0
  0
TEXT
  5
213
330
17
100
AcDbEntity
  8
1F LICE TRAKA
100
AcDbText
 10
2566.0000038146973
 20
-4339.634677171707
 30
0.0
 40
8.0
  1
U6 kraj 2573
 50
90.0
 11
2566.0000038146973
 21
-4339.634677171707
 31
0.0
100
AcDbText
 73
3
  0
LINE
  5
214
330
17
100
AcDbEntity
  8
1F LICE TRAKA
100
AcDbLine
 10
2568.0000038146973
 20
-4244.634677171707
 30
0.0
 11
2568.0000038146973
 21
-4334.634677171707
 31
0.0
  0
TEXT
  5
215
330
17
100
AcDbEntity
  8
1F LICE TRAKA
100
AcDbText
 10
2571.0000038146973
 20
-4339.634677171707
 30
0.0
 40
8.0
  1
U7 poč 2578
 50
90.0
 11
2571.0000038146973
 21
-4339.634677171707
 31
0.0
100
AcDbText
 73
3
  0
LINE
  5
216
330
17
100
AcDbEntity
  8
1F LICE TRAKA
100
AcDbLine
 10
2568.0000038146973
 20
-4244.634677171707
 30
0.0
 11
2568.0000038146973
 21
-4274.634677171707
 31
0.0
  0
TEXT
  5
217
330
17
100
AcDbEntity
  8
1F LICE TRAKA
100
AcDbText
 10
2571.0000038146973
 20
-4339.634677171707
 30
0.0
 40
8.0
  1
U7 vrh 2578
 50
90.0
 11
2571.0000038146973
 21
-4339.634677171707
 31
0.0
100
AcDbText
 73
3
  0
LINE
  5
218
330
17
100
AcDbEntity
  8
1F LICE TRAKA
100
AcDbLine
 10
53.000003814697266
 20
-4244.634677171707
 30
0.0
 11
53.000003814697266
 21
-4334.634677171707
 31
0.0
  0
TEXT
  5
219
330
17
100
AcDbEntity
  8
1F LICE TRAKA
100
AcDbText
 10
56.000003814697266
 20
-4339.634677171707
 30
0.0
 40
8.0
  1
U7 kraj 63
 50
90.0
 11
56.000003814697266
 21
-4339.634677171707
 31
0.0
100
AcDbText
 73
3
  0
LINE
  5
21A
330
17
100
AcDbEntity
  8
1F LICE TRAKA
100
AcDbLine
 10
2577.6735623223954
 20
-4244.634677171707
 30
0.0
 11
2577.6735623223954
 21
-4334.634677171707
 31
0.0
  0
TEXT
  5
21B
330
17
100
AcDbEntity
  8
1F LICE TRAKA
100
AcDbText
 10
2580.6735623223954
 20
-4339.634677171707
 30
0.0
 40
8.0
  1
KRAJ 2588
 50
90.0
 11
2580.6735623223954
 21
-4339.634677171707
 31
0.0
100
AcDbText
 73
3
  0
DIMENSION
  5
21C
330
17
100
AcDbEntity
  8
KOTE
100
AcDbDimension
280
0
  2
*D12
  3
EZDXF
 10
-9.999996185302734
 20
-4414.634677171707
 30
0.0
 11
1283.8367830685463
 21
-4402.034677171707
 31
0.0
 70
32
 71
5
  1
<>
100
AcDbAlignedDimension
 13
-9.999996185302734
 23
-4334.634677171707
 33
0.0
 14
2577.6735623223954
 24
-4334.634677171707
 34
0.0
 50
0.0
100
AcDbRotatedDimension
1001
ACAD
1000
DSTYLE
1002
{
1070
140
1040
25.0
1070
41
1040
15.0
1070
271
1070
0
1070
44
1040
10.0
1070
42
1040
5.0
1002
}
  0
ENDSEC
  0
SECTION
  2
OBJECTS
  0
DICTIONARY
  5
A
330
0
100
AcDbDictionary
281
1
  3
ACAD_COLOR
350
B
  3
ACAD_GROUP
350
C
  3
ACAD_LAYOUT
350
D
  3
ACAD_MATERIAL
350
E
  3
ACAD_MLEADERSTYLE
350
F
  3
ACAD_MLINESTYLE
350
10
  3
ACAD_PLOTSETTINGS
350
11
  3
ACAD_PLOTSTYLENAME
350
12
  3
ACAD_SCALELIST
350
14
  3
ACAD_TABLESTYLE
350
15
  3
ACAD_VISUALSTYLE
350
16
  3
EZDXF_META
350
2D
  0
DICTIONARY
  5
B
330
A
100
AcDbDictionary
281
1
  0
DICTIONARY
  5
C
330
A
100
AcDbDictionary
281
1
  0
DICTIONARY
  5
D
330
A
100
AcDbDictionary
281
1
  3
Model
350
1A
  3
Layout1
350
1E
  0
DICTIONARY
  5
E
330
A
100
AcDbDictionary
281
1
  3
ByBlock
350
1F
  3
ByLayer
350
20
  3
Global
350
21
  0
DICTIONARY
  5
F
330
A
100
AcDbDictionary
281
1
  3
Standard
350
2C
  0
DICTIONARY
  5
10
330
A
100
AcDbDictionary
281
1
  3
Standard
350
22
  0
DICTIONARY
  5
11
330
A
100
AcDbDictionary
281
1
  0
ACDBDICTIONARYWDFLT
  5
12
330
A
100
AcDbDictionary
281
1
  3
Normal
350
13
100
AcDbDictionaryWithDefault
340
13
  0
ACDBPLACEHOLDER
  5
13
330
12
  0
DICTIONARY
  5
14
330
A
100
AcDbDictionary
281
1
  0
DICTIONARY
  5
15
330
A
100
AcDbDictionary
281
1
  0
DICTIONARY
  5
16
330
A
100
AcDbDictionary
281
1
  3
2dWireframe
350
5A
  3
Basic
350
5B
  3
Brighten
350
5C
  3
ColorChange
350
5D
  3
Conceptual
350
5E
  3
Dim
350
5F
  3
EdgeColorOff
350
60
  3
Facepattern
350
61
  3
Flat
350
62
  3
FlatWithEdges
350
63
  3
Gouraud
350
64
  3
GouraudWithEdges
350
65
  3
Hidden
350
66
  3
JitterOff
350
67
  3
Linepattern
350
68
  3
Modeling
350
69
  3
OverhangOff
350
6A
  3
Realistic
350
6B
  3
Shaded
350
6C
  3
Shaded with edges
350
6D
  3
Shades of Gray
350
6E
  3
Sketchy
350
6F
  3
Thicken
350
70
  3
Wireframe
350
71
  3
X-Ray
350
72
  0
LAYOUT
  5
1A
330
D
100
AcDbPlotSettings
  1

  4
A3
  6

 40
7.5
 41
20.0
 42
7.5
 43
20.0
 44
420.0
 45
297.0
 46
0.0
 47
0.0
 48
0.0
 49
0.0
140
0.0
141
0.0
142
1.0
143
1.0
 70
1024
 72
1
 73
0
 74
5
  7

 75
16
 76
0
 77
2
 78
300
147
1.0
148
0.0
149
0.0
100
AcDbLayout
  1
Model
 70
1
 71
0
 10
0.0
 20
0.0
 11
420.0
 21
297.0
 12
0.0
 22
0.0
 32
0.0
 14
1e+20
 24
1e+20
 34
1e+20
 15
-1e+20
 25
-1e+20
 35
-1e+20
146
0.0
 13
0.0
 23
0.0
 33
0.0
 16
1.0
 26
0.0
 36
0.0
 17
0.0
 27
1.0
 37
0.0
 76
1
330
17
  0
LAYOUT
  5
1E
330
D
100
AcDbPlotSettings
  1

  4
A3
  6

 40
7.5
 41
20.0
 42
7.5
 43
20.0
 44
420.0
 45
297.0
 46
0.0
 47
0.0
 48
0.0
 49
0.0
140
0.0
141
0.0
142
1.0
143
1.0
 70
0
 72
1
 73
0
 74
5
  7

 75
16
 76
0
 77
2
 78
300
147
1.0
148
0.0
149
0.0
100
AcDbLayout
  1
Layout1
 70
1
 71
1
 10
0.0
 20
0.0
 11
420.0
 21
297.0
 12
0.0
 22
0.0
 32
0.0
 14
1e+20
 24
1e+20
 34
1e+20
 15
-1e+20
 25
-1e+20
 35
-1e+20
146
0.0
 13
0.0
 23
0.0
 33
0.0
 16
1.0
 26
0.0
 36
0.0
 17
0.0
 27
1.0
 37
0.0
 76
1
330
1B
  0
MATERIAL
  5
1F
102
{ACAD_REACTORS
330
E
102
}
330
E
100
AcDbMaterial
  1
ByBlock
  2

 70
0
 40
1.0
 71
1
 41
1.0
 91
-1023410177
 42
1.0
 72
1
  3

 73
1
 74
1
 75
1
 44
0.5
 73
0
 45
1.0
 46
1.0
 77
1
  4

 78
1
 79
1
170
1
 48
1.0
171
1
  6

172
1
173
1
174
1
140
1.0
141
1.0
175
1
  7

176
1
177
1
178
1
143
1.0
179
1
  8

270
1
271
1
272
1
145
1.0
146
1.0
273
1
  9

274
1
275
1
276
1
 42
1.0
 72
1
  3

 73
1
 74
1
 75
1
 94
63
  0
MATERIAL
  5
20
102
{ACAD_REACTORS
330
E
102
}
330
E
100
AcDbMaterial
  1
ByLayer
  2

 70
0
 40
1.0
 71
1
 41
1.0
 91
-1023410177
 42
1.0
 72
1
  3

 73
1
 74
1
 75
1
 44
0.5
 73
0
 45
1.0
 46
1.0
 77
1
  4

 78
1
 79
1
170
1
 48
1.0
171
1
  6

172
1
173
1
174
1
140
1.0
141
1.0
175
1
  7

176
1
177
1
178
1
143
1.0
179
1
  8

270
1
271
1
272
1
145
1.0
146
1.0
273
1
  9

274
1
275
1
276
1
 42
1.0
 72
1
  3

 73
1
 74
1
 75
1
 94
63
  0
MATERIAL
  5
21
102
{ACAD_REACTORS
330
E
102
}
330
E
100
AcDbMaterial
  1
Global
  2

 70
0
 40
1.0
 71
1
 41
1.0
 91
-1023410177
 42
1.0
 72
1
  3

 73
1
 74
1
 75
1
 44
0.5
 73
0
 45
1.0
 46
1.0
 77
1
  4

 78
1
 79
1
170
1
 48
1.0
171
1
  6

172
1
173
1
174
1
140
1.0
141
1.0
175
1
  7

176
1
177
1
178
1
143
1.0
179
1
  8

270
1
271
1
272
1
145
1.0
146
1.0
273
1
  9

274
1
275
1
276
1
 42
1.0
 72
1
  3

 73
1
 74
1
 75
1
 94
63
  0
MLINESTYLE
  5
22
102
{ACAD_REACTORS
330
10
102
}
330
10
100
AcDbMlineStyle
  2
Standard
 70
0
  3

 62
256
 51
90.0
 52
90.0
 71
2
 49
0.5
 62
256
  6
BYLAYER
 49
-0.5
 62
256
  6
BYLAYER
  0
MLEADERSTYLE
  5
2C
102
{ACAD_REACTORS
330
F
102
}
330
F
100
AcDbMLeaderStyle
179
2
170
2
171
1
172
0
 90
2
 40
0.0
 41
0.0
173
1
 91
-1056964608
 92
-2
290
1
 42
2.0
291
1
 43
8.0
  3
Standard
 44
4.0
300

342
29
174
1
175
1
176
0
178
1
 93
-1056964608
 45
4.0
292
0
297
0
 46
4.0
 94
-1056964608
 47
1.0
 49
1.0
140
1.0
294
1
141
0.0
177
0
142
1.0
295
0
296
0
143
3.75
271
0
272
9
273
9
  0
DICTIONARY
  5
2D
330
A
100
AcDbDictionary
280
1
281
1
  3
CREATED_BY_EZDXF
350
2E
  3
WRITTEN_BY_EZDXF
350
22D
  0
DICTIONARYVAR
  5
2E
330
2D
100
DictionaryVariables
280
0
  1
1.4.4 @ 2026-09-02T21:19:09.970386+00:00
  0
VISUALSTYLE
  5
5A
102
{ACAD_REACTORS
330
16
102
}
330
16
100
AcDbVisualStyle
  2
2dWireframe
 70
4
 90
0
 40
0.6
 62
7
290
0
291
0
  0
VISUALSTYLE
  5
5B
102
{ACAD_REACTORS
330
16
102
}
330
16
100
AcDbVisualStyle
  2
Basic
 70
7
 90
1
 40
0.6
 62
7
290
0
291
1
  0
VISUALSTYLE
  5
5C
102
{ACAD_REACTORS
330
16
102
}
330
16
100
AcDbVisualStyle
  2
Brighten
 70
12
 90
2
 40
0.6
 62
7
290
0
291
1
  0
VISUALSTYLE
  5
5D
102
{ACAD_REACTORS
330
16
102
}
330
16
100
AcDbVisualStyle
  2
ColorChange
 70
16
 90
2
 40
0.6
 62
8
290
0
291
1
  0
VISUALSTYLE
  5
5E
102
{ACAD_REACTORS
330
16
102
}
330
16
100
AcDbVisualStyle
  2
Conceptual
 70
9
 90
3
 40
0.6
 62
7
290
0
291
0
  0
VISUALSTYLE
  5
5F
102
{ACAD_REACTORS
330
16
102
}
330
16
100
AcDbVisualStyle
  2
Dim
 70
11
 90
2
 40
0.6
 62
7
290
0
291
1
  0
VISUALSTYLE
  5
60
102
{ACAD_REACTORS
330
16
102
}
330
16
100
AcDbVisualStyle
  2
EdgeColorOff
 70
22
 90
2
 40
0.6
 62
7
290
0
291
1
  0
VISUALSTYLE
  5
61
102
{ACAD_REACTORS
330
16
102
}
330
16
100
AcDbVisualStyle
  2
Facepattern
 70
15
 90
2
 40
0.6
 62
7
290
0
291
1
  0
VISUALSTYLE
  5
62
102
{ACAD_REACTORS
330
16
102
}
330
16
100
AcDbVisualStyle
  2
Flat
 70
0
 90
2
 40
0.6
 62
7
290
0
291
1
  0
VISUALSTYLE
  5
63
102
{ACAD_REACTORS
330
16
102
}
330
16
100
AcDbVisualStyle
  2
FlatWithEdges
 70
1
 90
2
 40
0.6
 62
7
290
0
291
1
  0
VISUALSTYLE
  5
64
102
{ACAD_REACTORS
330
16
102
}
330
16
100
AcDbVisualStyle
  2
Gouraud
 70
2
 90
2
 40
0.6
 62
7
290
0
291
1
  0
VISUALSTYLE
  5
65
102
{ACAD_REACTORS
330
16
102
}
330
16
100
AcDbVisualStyle
  2
GouraudWithEdges
 70
3
 90
2
 40
0.6
 62
7
290
0
291
1
  0
VISUALSTYLE
  5
66
102
{ACAD_REACTORS
330
16
102
}
330
16
100
AcDbVisualStyle
  2
Hidden
 70
6
 90
1
 40
0.6
 62
7
290
0
291
0
  0
VISUALSTYLE
  5
67
102
{ACAD_REACTORS
330
16
102
}
330
16
100
AcDbVisualStyle
  2
JitterOff
 70
20
 90
2
 40
0.6
 62
7
290
0
291
1
  0
VISUALSTYLE
  5
68
102
{ACAD_REACTORS
330
16
102
}
330
16
100
AcDbVisualStyle
  2
Linepattern
 70
14
 90
2
 40
0.6
 62
7
290
0
291
1
  0
VISUALSTYLE
  5
69
102
{ACAD_REACTORS
330
16
102
}
330
16
100
AcDbVisualStyle
  2
Modeling
 70
10
 90
2
 40
0.6
 62
7
290
0
291
0
  0
VISUALSTYLE
  5
6A
102
{ACAD_REACTORS
330
16
102
}
330
16
100
AcDbVisualStyle
  2
OverhangOff
 70
21
 90
2
 40
0.6
 62
7
290
0
291
1
  0
VISUALSTYLE
  5
6B
102
{ACAD_REACTORS
330
16
102
}
330
16
100
AcDbVisualStyle
  2
Realistic
 70
8
 90
2
 40
0.6
 62
7
290
0
291
0
  0
VISUALSTYLE
  5
6C
102
{ACAD_REACTORS
330
16
102
}
330
16
100
AcDbVisualStyle
  2
Shaded
 70
27
 90
2
 40
0.6
 62
7
290
0
291
0
  0
VISUALSTYLE
  5
6D
102
{ACAD_REACTORS
330
16
102
}
330
16
100
AcDbVisualStyle
  2
Shaded with edges
 70
26
 90
2
 40
0.6
 62
7
290
0
291
0
  0
VISUALSTYLE
  5
6E
102
{ACAD_REACTORS
330
16
102
}
330
16
100
AcDbVisualStyle
  2
Shades of Gray
 70
23
 90
2
 40
0.6
 62
7
290
0
291
0
  0
VISUALSTYLE
  5
6F
102
{ACAD_REACTORS
330
16
102
}
330
16
100
AcDbVisualStyle
  2
Sketchy
 70
24
 90
1
 40
0.6
 62
7
290
0
291
0
  0
VISUALSTYLE
  5
70
102
{ACAD_REACTORS
330
16
102
}
330
16
100
AcDbVisualStyle
  2
Thicken
 70
13
 90
2
 40
0.6
 62
7
290
0
291
1
  0
VISUALSTYLE
  5
71
102
{ACAD_REACTORS
330
16
102
}
330
16
100
AcDbVisualStyle
  2
Wireframe
 70
5
 90
0
 40
0.6
 62
7
290
0
291
0
  0
VISUALSTYLE
  5
72
102
{ACAD_REACTORS
330
16
102
}
330
16
100
AcDbVisualStyle
  2
X-Ray
 70
25
 90
2
 40
0.5
 62
7
290
0
291
0
  0
DICTIONARYVAR
  5
22D
330
2D
100
DictionaryVariables
280
0
  1
1.4.4 @ 2026-09-02T21:19:09.991222+00:00
  0
ENDSEC
  0
EOF
